  0
SECTION
  2
HEADER
  9
$MEASUREMENT
  70
  1
  9
$INSUNITS
  70
  4
  0
ENDSEC
  0
SECTION
  2
TABLES
  0
TABLE
  2
LTYPE
 70
     1
  0
LTYPE
  2
CONTINUOUS
 70
    64
  3
Ausgezogene Linie
 72
    65
 73
     0
 40
0.0
  0
ENDTAB
  0
TABLE
  2
LAYER
 70
     3
  0
LAYER
  2
Contour
 70
    64
 62
     7
  6
CONTINUOUS
  0
LAYER
  2
Engraving
 70
    64
 62
     7
  6
CONTINUOUS
  0
LAYER
  2
Reference_points
 70
    64
 62
     1
  6
CONTINUOUS
  0
ENDTAB
  0
TABLE
  2
STYLE
 70
     1
  0
STYLE
  2
TXT
 70
    64
 40
0.0
 41
1.0
 50
0.0
 71
     0
 42
3.500000
  3
TXT
  0
ENDTAB
  0
ENDSEC
  0
SECTION
  2
BLOCKS
  0
ENDSEC
  0
SECTION
  2
ENTITIES
  0
LINE
  8
Contour
 62
   7
 39
0.100
  6
CONTINUOUS
 10
95.00000
 20
150.00000
 30
 0
 11
5.00000
 21
150.00000
  0
ARC
  8
Contour
 62
   7
 39
0.100
  6
CONTINUOUS
 10
5.00000
 20
145.00000
 30
 0
 40
5.00000
 50
90.00000
 51
180.00000
  0
LINE
  8
Contour
 62
   7
 39
0.100
  6
CONTINUOUS
 10
0.00000
 20
145.00000
 30
 0
 11
0.00000
 21
5.00000
  0
ARC
  8
Contour
 62
   7
 39
0.100
  6
CONTINUOUS
 10
5.00000
 20
5.00000
 30
 0
 40
5.00000
 50
180.00000
 51
270.00000
  0
LINE
  8
Contour
 62
   7
 39
0.100
  6
CONTINUOUS
 10
5.00000
 20
0.00000
 30
 0
 11
95.00000
 21
0.00000
  0
ARC
  8
Contour
 62
   7
 39
0.100
  6
CONTINUOUS
 10
95.00000
 20
5.00000
 30
 0
 40
5.00000
 50
-90.00000
 51
0.00000
  0
LINE
  8
Contour
 62
   7
 39
0.100
  6
CONTINUOUS
 10
100.00000
 20
5.00000
 30
 0
 11
100.00000
 21
145.00000
  0
ARC
  8
Contour
 62
   7
 39
0.100
  6
CONTINUOUS
 10
95.00000
 20
145.00000
 30
 0
 40
5.00000
 50
0.00000
 51
90.00000
  0
LINE
  8
Engraving
 62
   7
 39
0.400
  6
CONTINUOUS
 10
15.44000
 20
99.17000
 30
 0
 11
13.78000
 21
100.83000
  0
LINE
  8
Engraving
 62
   7
 39
0.400
  6
CONTINUOUS
 10
13.78000
 20
100.83000
 30
 0
 11
21.25000
 21
100.83000
  0
LINE
  8
Engraving
 62
   7
 39
0.400
  6
CONTINUOUS
 10
18.28300
 20
116.01100
 30
 0
 11
18.17300
 21
116.65000
  0
ARC
  8
Engraving
 62
   7
 39
0.400
  6
CONTINUOUS
 10
20.19700
 20
117.03200
 30
 0
 40
2.06000
 50
19.30580
 51
-169.31199
  0
LINE
  8
Engraving
 62
   7
 39
0.400
  6
CONTINUOUS
 10
22.14100
 20
117.71300
 30
 0
 11
24.06400
 21
112.57800
  0
LINE
  8
Engraving
 62
   7
 39
0.400
  6
CONTINUOUS
 10
24.06400
 20
112.57800
 30
 0
 11
26.13900
 21
116.17200
  0
ARC
  8
Engraving
 62
   7
 39
0.400
  6
CONTINUOUS
 10
32.94700
 20
129.65300
 30
 0
 40
2.17900
 50
120.37756
 51
-172.98912
  0
ARC
  8
Engraving
 62
   7
 39
0.400
  6
CONTINUOUS
 10
32.78200
 20
129.82300
 30
 0
 40
1.95000
 50
301.29599
 51
118.72068
  0
ARC
  8
Engraving
 62
   7
 39
0.400
  6
CONTINUOUS
 10
34.73200
 20
126.44400
 30
 0
 40
1.95000
 50
301.31124
 51
118.68080
  0
ARC
  8
Engraving
 62
   7
 39
0.400
  6
CONTINUOUS
 10
34.60200
 20
126.78100
 30
 0
 40
2.30800
 50
239.76858
 51
-60.27976
  0
LINE
  8
Engraving
 62
   7
 39
0.400
  6
CONTINUOUS
 10
50.41500
 20
136.22000
 30
 0
 11
47.92500
 21
129.99500
  0
LINE
  8
Engraving
 62
   7
 39
0.400
  6
CONTINUOUS
 10
47.92500
 20
129.99500
 30
 0
 11
52.07500
 21
129.99500
  0
LINE
  8
Engraving
 62
   7
 39
0.400
  6
CONTINUOUS
 10
52.07500
 20
129.99500
 30
 0
 11
51.24500
 21
129.99500
  0
LINE
  8
Engraving
 62
   7
 39
0.400
  6
CONTINUOUS
 10
51.24500
 20
129.99500
 30
 0
 11
51.24500
 21
131.24000
  0
LINE
  8
Engraving
 62
   7
 39
0.400
  6
CONTINUOUS
 10
51.24500
 20
131.24000
 30
 0
 11
51.24500
 21
128.75000
  0
LINE
  8
Engraving
 62
   7
 39
0.400
  6
CONTINUOUS
 10
84.97500
 20
102.07500
 30
 0
 11
86.22000
 21
102.07500
  0
LINE
  8
Engraving
 62
   7
 39
0.400
  6
CONTINUOUS
 10
86.22000
 20
102.07500
 30
 0
 11
86.22000
 21
97.92500
  0
LINE
  8
Engraving
 62
   7
 39
0.400
  6
CONTINUOUS
 10
86.22000
 20
97.92500
 30
 0
 11
78.75000
 21
101.24500
  0
ARC
  8
Engraving
 62
   7
 39
0.400
  6
CONTINUOUS
 10
76.98300
 20
115.57800
 30
 0
 40
2.15800
 50
300.01172
 51
119.99844
  0
LINE
  8
Engraving
 62
   7
 39
0.400
  6
CONTINUOUS
 10
78.06200
 20
113.71000
 30
 0
 11
77.70300
 21
113.50200
  0
ARC
  8
Engraving
 62
   7
 39
0.400
  6
CONTINUOUS
 10
76.62400
 20
115.37100
 30
 0
 40
2.15800
 50
119.99844
 51
-60.00156
  0
LINE
  8
Engraving
 62
   7
 39
0.400
  6
CONTINUOUS
 10
75.54500
 20
117.24000
 30
 0
 11
78.34800
 21
118.85800
  0
ARC
  8
Engraving
 62
   7
 39
0.400
  6
CONTINUOUS
 10
79.57600
 20
116.91300
 30
 0
 40
2.30000
 50
345.89130
 51
122.26678
  0
LINE
  8
Engraving
 62
   7
 39
0.400
  6
CONTINUOUS
 10
69.57700
 20
130.52100
 30
 0
 11
66.34200
 21
132.38800
  0
LINE
  8
Engraving
 62
   7
 39
0.400
  6
CONTINUOUS
 10
66.34200
 20
132.38800
 30
 0
 11
64.59900
 21
129.36900
  0
ARC
  8
Engraving
 62
   7
 39
0.400
  6
CONTINUOUS
 10
64.97800
 20
126.55100
 30
 0
 40
2.84300
 50
414.85116
 51
97.65989
  0
ARC
  8
Engraving
 62
   7
 39
0.400
  6
CONTINUOUS
 10
65.22300
 20
126.91900
 30
 0
 40
2.40200
 50
285.74882
 51
54.57603
  0
ARC
  8
Engraving
 62
   7
 39
0.400
  6
CONTINUOUS
 10
65.27500
 20
126.76700
 30
 0
 40
2.24200
 50
178.56854
 51
-74.47589
  0
LINE
  8
Engraving
 62
   12
 39
0.400
  6
CONTINUOUS
 10
21.43700
 20
81.01700
 30
 0
 11
24.45500
 21
82.76000
  0
ARC
  8
Engraving
 62
   12
 39
0.400
  6
CONTINUOUS
 10
23.37600
 20
84.62900
 30
 0
 40
2.15800
 50
-60.00156
 51
119.99844
  0
LINE
  8
Engraving
 62
   12
 39
0.400
  6
CONTINUOUS
 10
22.29700
 20
86.49800
 30
 0
 11
19.27900
 21
84.75500
  0
ARC
  8
Engraving
 62
   12
 39
0.400
  6
CONTINUOUS
 10
20.35800
 20
82.88600
 30
 0
 40
2.15800
 50
119.99844
 51
299.99844
  0
ARC
  8
Engraving
 62
   7
 39
0.400
  6
CONTINUOUS
 10
76.62400
 20
84.62900
 30
 0
 40
2.15700
 50
150.00156
 51
-30.01172
  0
ARC
  8
Engraving
 62
   7
 39
0.400
  6
CONTINUOUS
 10
76.62400
 20
84.62900
 30
 0
 40
2.15800
 50
329.98828
 51
150.00156
  0
ARC
  8
Engraving
 62
   7
 39
0.400
  6
CONTINUOUS
 10
80.00200
 20
82.67900
 30
 0
 40
1.74300
 50
150.02274
 51
329.97784
  0
ARC
  8
Engraving
 62
   7
 39
0.400
  6
CONTINUOUS
 10
80.00200
 20
82.67900
 30
 0
 40
1.74300
 50
-30.02216
 51
150.02274
  0
LINE
  8
Engraving
 62
   7
 39
0.400
  6
CONTINUOUS
 10
38.18700
 20
6.81000
 30
 0
 11
38.18700
 21
5.78700
  0
ARC
  8
Engraving
 62
   7
 39
0.400
  6
CONTINUOUS
 10
37.44500
 20
5.81400
 30
 0
 40
0.74200
 50
182.08117
 51
-2.08397
  0
LINE
  8
Engraving
 62
   7
 39
0.400
  6
CONTINUOUS
 10
36.70200
 20
5.78700
 30
 0
 11
36.70200
 21
6.08400
  0
ARC
  8
Engraving
 62
   7
 39
0.400
  6
CONTINUOUS
 10
37.44500
 20
6.05700
 30
 0
 40
0.74300
 50
362.08397
 51
177.91883
  0
LINE
  8
Engraving
 62
   7
 39
0.400
  6
CONTINUOUS
 10
38.18700
 20
6.08400
 30
 0
 11
38.18700
 21
5.42400
  0
ARC
  8
Engraving
 62
   7
 39
0.400
  6
CONTINUOUS
 10
38.59400
 20
5.42000
 30
 0
 40
0.40700
 50
179.43691
 51
254.32523
  0
ARC
  8
Engraving
 62
   7
 39
0.400
  6
CONTINUOUS
 10
38.52800
 20
5.22700
 30
 0
 40
0.20400
 50
-102.46782
 51
-40.81508
  0
ARC
  8
Engraving
 62
   7
 39
0.400
  6
CONTINUOUS
 10
37.61900
 20
6.08400
 30
 0
 40
1.45300
 50
-42.96355
 51
72.53776
  0
ARC
  8
Engraving
 62
   7
 39
0.400
  6
CONTINUOUS
 10
37.57100
 20
5.94800
 30
 0
 40
1.59700
 50
72.35920
 51
229.64777
  0
ARC
  8
Engraving
 62
   7
 39
0.400
  6
CONTINUOUS
 10
37.48800
 20
5.88500
 30
 0
 40
1.49500
 50
-129.49160
 51
-54.69400
  0
LINE
  8
Engraving
 62
   7
 39
0.400
  6
CONTINUOUS
 10
39.87000
 20
7.47000
 30
 0
 11
39.87000
 21
4.50000
  0
LINE
  8
Engraving
 62
   7
 39
0.400
  6
CONTINUOUS
 10
39.87000
 20
4.50000
 30
 0
 11
41.52000
 21
4.50000
  0
LINE
  8
Engraving
 62
   7
 39
0.400
  6
CONTINUOUS
 10
42.31200
 20
7.47000
 30
 0
 11
42.31200
 21
4.50000
  0
LINE
  8
Engraving
 62
   7
 39
0.400
  6
CONTINUOUS
 10
42.31200
 20
4.50000
 30
 0
 11
42.31200
 21
5.98500
  0
LINE
  8
Engraving
 62
   7
 39
0.400
  6
CONTINUOUS
 10
42.31200
 20
5.98500
 30
 0
 11
44.29200
 21
5.98500
  0
LINE
  8
Engraving
 62
   7
 39
0.400
  6
CONTINUOUS
 10
44.29200
 20
5.98500
 30
 0
 11
44.29200
 21
4.50000
  0
LINE
  8
Engraving
 62
   7
 39
0.400
  6
CONTINUOUS
 10
44.29200
 20
4.50000
 30
 0
 11
44.29200
 21
7.47000
  0
ARC
  8
Engraving
 62
   7
 39
0.400
  6
CONTINUOUS
 10
46.37000
 20
6.70500
 30
 0
 40
0.78300
 50
36.69432
 51
77.75699
  0
ARC
  8
Engraving
 62
   7
 39
0.400
  6
CONTINUOUS
 10
46.13800
 20
5.64900
 30
 0
 40
1.86400
 50
77.67123
 51
106.39301
  0
ARC
  8
Engraving
 62
   7
 39
0.400
  6
CONTINUOUS
 10
45.86600
 20
6.59200
 30
 0
 40
0.88200
 50
106.73034
 51
144.27353
  0
ARC
  8
Engraving
 62
   7
 39
0.400
  6
CONTINUOUS
 10
45.64100
 20
6.75500
 30
 0
 40
0.60400
 50
144.36310
 51
251.26508
  0
LINE
  8
Engraving
 62
   7
 39
0.400
  6
CONTINUOUS
 10
45.44700
 20
6.18300
 30
 0
 11
46.60200
 21
5.78700
  0
ARC
  8
Engraving
 62
   7
 39
0.400
  6
CONTINUOUS
 10
46.40800
 20
5.21500
 30
 0
 40
0.60400
 50
324.36310
 51
71.26508
  0
ARC
  8
Engraving
 62
   7
 39
0.400
  6
CONTINUOUS
 10
46.18300
 20
5.37800
 30
 0
 40
0.88200
 50
286.73034
 51
-35.72647
  0
ARC
  8
Engraving
 62
   7
 39
0.400
  6
CONTINUOUS
 10
45.91100
 20
6.32100
 30
 0
 40
1.86400
 50
257.67123
 51
-73.60699
  0
ARC
  8
Engraving
 62
   7
 39
0.400
  6
CONTINUOUS
 10
45.67900
 20
5.26500
 30
 0
 40
0.78300
 50
216.69432
 51
-102.24301
  0
ARC
  8
Engraving
 62
   7
 39
0.400
  6
CONTINUOUS
 10
48.84600
 20
5.49000
 30
 0
 40
1.05600
 50
180.00000
 51
360.00000
  0
LINE
  8
Engraving
 62
   7
 39
0.400
  6
CONTINUOUS
 10
49.90200
 20
5.49000
 30
 0
 11
49.90200
 21
6.48000
  0
ARC
  8
Engraving
 62
   7
 39
0.400
  6
CONTINUOUS
 10
48.84600
 20
6.48000
 30
 0
 40
1.05600
 50
0.00000
 51
180.00000
  0
LINE
  8
Engraving
 62
   7
 39
0.400
  6
CONTINUOUS
 10
47.79000
 20
6.48000
 30
 0
 11
47.79000
 21
5.49000
  0
LINE
  8
Engraving
 62
   7
 39
0.400
  6
CONTINUOUS
 10
50.69400
 20
3.51000
 30
 0
 11
50.69400
 21
5.65500
  0
ARC
  8
Engraving
 62
   7
 39
0.400
  6
CONTINUOUS
 10
51.51900
 20
5.65500
 30
 0
 40
0.82500
 50
360.00000
 51
180.00000
  0
LINE
  8
Engraving
 62
   7
 39
0.400
  6
CONTINUOUS
 10
52.34400
 20
5.65500
 30
 0
 11
52.34400
 21
5.32500
  0
ARC
  8
Engraving
 62
   7
 39
0.400
  6
CONTINUOUS
 10
51.51900
 20
5.32500
 30
 0
 40
0.82500
 50
180.00000
 51
0.00000
  0
LINE
  8
Engraving
 62
   7
 39
0.400
  6
CONTINUOUS
 10
50.69400
 20
5.32500
 30
 0
 11
50.69400
 21
6.48000
  0
LINE
  8
Engraving
 62
   7
 39
0.400
  6
CONTINUOUS
 10
53.13600
 20
5.49000
 30
 0
 11
54.78600
 21
5.49000
  0
LINE
  8
Engraving
 62
   7
 39
0.400
  6
CONTINUOUS
 10
54.78600
 20
5.49000
 30
 0
 11
54.78600
 21
5.65500
  0
ARC
  8
Engraving
 62
   7
 39
0.400
  6
CONTINUOUS
 10
53.96100
 20
5.65500
 30
 0
 40
0.82500
 50
0.00000
 51
180.00000
  0
LINE
  8
Engraving
 62
   7
 39
0.400
  6
CONTINUOUS
 10
53.13600
 20
5.65500
 30
 0
 11
53.13600
 21
5.32500
  0
ARC
  8
Engraving
 62
   7
 39
0.400
  6
CONTINUOUS
 10
54.00100
 20
5.32400
 30
 0
 40
0.86500
 50
179.93376
 51
322.46775
  0
LINE
  8
Engraving
 62
   7
 39
0.400
  6
CONTINUOUS
 10
55.57800
 20
4.50000
 30
 0
 11
55.57800
 21
6.48000
  0
LINE
  8
Engraving
 62
   7
 39
0.400
  6
CONTINUOUS
 10
55.57800
 20
6.48000
 30
 0
 11
55.57800
 21
5.65500
  0
ARC
  8
Engraving
 62
   7
 39
0.400
  6
CONTINUOUS
 10
56.40300
 20
5.65500
 30
 0
 40
0.82500
 50
360.00000
 51
180.00000
  0
LINE
  8
Engraving
 62
   7
 39
0.400
  6
CONTINUOUS
 10
57.22800
 20
5.65500
 30
 0
 11
57.22800
 21
4.50000
  0
ARC
  8
Engraving
 62
   7
 39
0.400
  6
CONTINUOUS
 10
59.08200
 20
6.72800
 30
 0
 40
0.74300
 50
-87.91883
 51
87.91603
  0
LINE
  8
Engraving
 62
   7
 39
0.400
  6
CONTINUOUS
 10
59.10900
 20
7.47000
 30
 0
 11
58.02000
 21
7.47000
  0
LINE
  8
Engraving
 62
   7
 39
0.400
  6
CONTINUOUS
 10
58.02000
 20
7.47000
 30
 0
 11
58.02000
 21
4.50000
  0
LINE
  8
Engraving
 62
   7
 39
0.400
  6
CONTINUOUS
 10
58.02000
 20
4.50000
 30
 0
 11
59.27400
 21
4.50000
  0
ARC
  8
Engraving
 62
   7
 39
0.400
  6
CONTINUOUS
 10
59.24700
 20
5.24300
 30
 0
 40
0.74300
 50
-87.91883
 51
87.91603
  0
LINE
  8
Engraving
 62
   7
 39
0.400
  6
CONTINUOUS
 10
59.27400
 20
5.98500
 30
 0
 11
58.02000
 21
5.98500
  0
LINE
  8
Engraving
 62
   7
 39
0.400
  6
CONTINUOUS
 10
60.79200
 20
5.32500
 30
 0
 11
60.79200
 21
5.65500
  0
ARC
  8
Engraving
 62
   7
 39
0.400
  6
CONTINUOUS
 10
61.61700
 20
5.65500
 30
 0
 40
0.82500
 50
360.00000
 51
180.00000
  0
LINE
  8
Engraving
 62
   7
 39
0.400
  6
CONTINUOUS
 10
62.44200
 20
5.65500
 30
 0
 11
62.44200
 21
5.32500
  0
ARC
  8
Engraving
 62
   7
 39
0.400
  6
CONTINUOUS
 10
61.61700
 20
5.32500
 30
 0
 40
0.82500
 50
180.00000
 51
0.00000
  0
LINE
  8
Engraving
 62
   7
 39
0.400
  6
CONTINUOUS
 10
63.53100
 20
7.47000
 30
 0
 11
63.53100
 21
6.48000
  0
LINE
  8
Engraving
 62
   7
 39
0.400
  6
CONTINUOUS
 10
63.53100
 20
6.48000
 30
 0
 11
64.02600
 21
6.48000
  0
LINE
  8
Engraving
 62
   7
 39
0.400
  6
CONTINUOUS
 10
64.02600
 20
6.48000
 30
 0
 11
63.20100
 21
6.48000
  0
LINE
  8
Engraving
 62
   7
 39
0.400
  6
CONTINUOUS
 10
63.20100
 20
6.48000
 30
 0
 11
63.53100
 21
6.48000
  0
LINE
  8
Engraving
 62
   7
 39
0.400
  6
CONTINUOUS
 10
63.53100
 20
6.48000
 30
 0
 11
63.53100
 21
4.89600
  0
ARC
  8
Engraving
 62
   7
 39
0.400
  6
CONTINUOUS
 10
63.93300
 20
4.89500
 30
 0
 40
0.40200
 50
179.85747
 51
259.66963
  0
LINE
  8
Engraving
 62
   7
 39
0.400
  6
CONTINUOUS
 10
41.36700
 20
69.46000
 30
 0
 11
41.36700
 21
65.50000
  0
LINE
  8
Engraving
 62
   7
 39
0.400
  6
CONTINUOUS
 10
41.36700
 20
65.50000
 30
 0
 11
41.36700
 21
67.48000
  0
LINE
  8
Engraving
 62
   7
 39
0.400
  6
CONTINUOUS
 10
41.36700
 20
67.48000
 30
 0
 11
44.00700
 21
67.48000
  0
LINE
  8
Engraving
 62
   7
 39
0.400
  6
CONTINUOUS
 10
44.00700
 20
67.48000
 30
 0
 11
44.00700
 21
65.50000
  0
LINE
  8
Engraving
 62
   7
 39
0.400
  6
CONTINUOUS
 10
44.00700
 20
65.50000
 30
 0
 11
44.00700
 21
69.46000
  0
ARC
  8
Engraving
 62
   7
 39
0.400
  6
CONTINUOUS
 10
46.47100
 20
66.82000
 30
 0
 40
1.40800
 50
180.00000
 51
360.00000
  0
LINE
  8
Engraving
 62
   7
 39
0.400
  6
CONTINUOUS
 10
47.87900
 20
66.82000
 30
 0
 11
47.87900
 21
68.14000
  0
ARC
  8
Engraving
 62
   7
 39
0.400
  6
CONTINUOUS
 10
46.47100
 20
68.14000
 30
 0
 40
1.40800
 50
0.00000
 51
180.00000
  0
LINE
  8
Engraving
 62
   7
 39
0.400
  6
CONTINUOUS
 10
45.06300
 20
68.14000
 30
 0
 11
45.06300
 21
66.82000
  0
LINE
  8
Engraving
 62
   7
 39
0.400
  6
CONTINUOUS
 10
48.93500
 20
69.46000
 30
 0
 11
48.93500
 21
66.73200
  0
ARC
  8
Engraving
 62
   7
 39
0.400
  6
CONTINUOUS
 10
50.25500
 20
66.73200
 30
 0
 40
1.32000
 50
180.00000
 51
360.00000
  0
LINE
  8
Engraving
 62
   7
 39
0.400
  6
CONTINUOUS
 10
51.57500
 20
66.73200
 30
 0
 11
51.57500
 21
69.46000
  0
LINE
  8
Engraving
 62
   7
 39
0.400
  6
CONTINUOUS
 10
52.63100
 20
65.50000
 30
 0
 11
52.63100
 21
69.46000
  0
LINE
  8
Engraving
 62
   7
 39
0.400
  6
CONTINUOUS
 10
52.63100
 20
69.46000
 30
 0
 11
54.08300
 21
69.46000
  0
ARC
  8
Engraving
 62
   7
 39
0.400
  6
CONTINUOUS
 10
54.08300
 20
68.47000
 30
 0
 40
0.99000
 50
270.00000
 51
90.00000
  0
LINE
  8
Engraving
 62
   7
 39
0.400
  6
CONTINUOUS
 10
54.08300
 20
67.48000
 30
 0
 11
52.63100
 21
67.48000
  0
LINE
  8
Engraving
 62
   7
 39
0.400
  6
CONTINUOUS
 10
52.63100
 20
67.48000
 30
 0
 11
54.17100
 21
67.48000
  0
LINE
  8
Engraving
 62
   7
 39
0.400
  6
CONTINUOUS
 10
54.17100
 20
67.48000
 30
 0
 11
55.05100
 21
65.50000
  0
ARC
  8
Engraving
 62
   7
 39
0.400
  6
CONTINUOUS
 10
57.77800
 20
68.44000
 30
 0
 40
1.04400
 50
36.70526
 51
77.77488
  0
ARC
  8
Engraving
 62
   7
 39
0.400
  6
CONTINUOUS
 10
57.46900
 20
67.03200
 30
 0
 40
2.48500
 50
77.68625
 51
106.40776
  0
ARC
  8
Engraving
 62
   7
 39
0.400
  6
CONTINUOUS
 10
57.10600
 20
68.29000
 30
 0
 40
1.17600
 50
106.75525
 51
144.30938
  0
ARC
  8
Engraving
 62
   7
 39
0.400
  6
CONTINUOUS
 10
56.80500
 20
68.50700
 30
 0
 40
0.80500
 50
144.35473
 51
251.31760
  0
LINE
  8
Engraving
 62
   7
 39
0.400
  6
CONTINUOUS
 10
56.54700
 20
67.74400
 30
 0
 11
58.08700
 21
67.21600
  0
ARC
  8
Engraving
 62
   7
 39
0.400
  6
CONTINUOUS
 10
57.82900
 20
66.45300
 30
 0
 40
0.80500
 50
324.35473
 51
71.31760
  0
ARC
  8
Engraving
 62
   7
 39
0.400
  6
CONTINUOUS
 10
57.52800
 20
66.67000
 30
 0
 40
1.17600
 50
286.75525
 51
-35.69062
  0
ARC
  8
Engraving
 62
   7
 39
0.400
  6
CONTINUOUS
 10
57.16500
 20
67.92800
 30
 0
 40
2.48500
 50
257.68625
 51
-73.59224
  0
ARC
  8
Engraving
 62
   7
 39
0.400
  6
CONTINUOUS
 10
56.85600
 20
66.52000
 30
 0
 40
1.04400
 50
216.70526
 51
-102.22512
  0
CIRCLE
  8
Contour
 62
   7
 39
0.100
  6
CONTINUOUS
 10
50.00000
 20
100.00000
 30
 0
 40
4.50000
  0
CIRCLE
  8
Contour
 62
   7
 39
0.100
  6
CONTINUOUS
 10
50.00000
 20
91.00000
 30
 0
 40
1.50000
  0
CIRCLE
  8
Contour
 62
   7
 39
0.100
  6
CONTINUOUS
 10
50.00000
 20
35.00000
 30
 0
 40
9.62500
  0
CIRCLE
  8
Contour
 62
   7
 39
0.100
  6
CONTINUOUS
 10
94.00000
 20
6.00000
 30
 0
 40
4.15000
  0
CIRCLE
  8
Contour
 62
   7
 39
0.100
  6
CONTINUOUS
 10
94.00000
 20
6.00000
 30
 0
 40
2.15000
  0
CIRCLE
  8
Contour
 62
   7
 39
0.100
  6
CONTINUOUS
 10
6.00000
 20
6.00000
 30
 0
 40
4.15000
  0
CIRCLE
  8
Contour
 62
   7
 39
0.100
  6
CONTINUOUS
 10
6.00000
 20
6.00000
 30
 0
 40
2.15000
  0
CIRCLE
  8
Contour
 62
   7
 39
0.100
  6
CONTINUOUS
 10
94.00000
 20
144.00000
 30
 0
 40
4.15000
  0
CIRCLE
  8
Contour
 62
   7
 39
0.100
  6
CONTINUOUS
 10
94.00000
 20
144.00000
 30
 0
 40
2.15000
  0
CIRCLE
  8
Contour
 62
   7
 39
0.100
  6
CONTINUOUS
 10
6.00000
 20
144.00000
 30
 0
 40
4.15000
  0
CIRCLE
  8
Contour
 62
   7
 39
0.100
  6
CONTINUOUS
 10
6.00000
 20
144.00000
 30
 0
 40
2.15000
  0
LINE
  8
Reference_points
 62
   1
 39
0.100
  6
CONTINUOUS
 10
-1.00000
 20
0.00000
 30
 0
 11
1.00000
 21
0.00000
  0
LINE
  8
Reference_points
 62
   1
 39
0.100
  6
CONTINUOUS
 10
0.00000
 20
-1.00000
 30
 0
 11
0.00000
 21
1.00000
  0
LINE
  8
Reference_points
 62
   1
 39
0.100
  6
CONTINUOUS
 10
49.00000
 20
100.00000
 30
 0
 11
51.00000
 21
100.00000
  0
LINE
  8
Reference_points
 62
   1
 39
0.100
  6
CONTINUOUS
 10
50.00000
 20
99.00000
 30
 0
 11
50.00000
 21
101.00000
  0
LINE
  8
Reference_points
 62
   1
 39
0.100
  6
CONTINUOUS
 10
49.00000
 20
91.00000
 30
 0
 11
51.00000
 21
91.00000
  0
LINE
  8
Reference_points
 62
   1
 39
0.100
  6
CONTINUOUS
 10
50.00000
 20
90.00000
 30
 0
 11
50.00000
 21
92.00000
  0
LINE
  8
Reference_points
 62
   1
 39
0.100
  6
CONTINUOUS
 10
49.00000
 20
35.00000
 30
 0
 11
51.00000
 21
35.00000
  0
LINE
  8
Reference_points
 62
   1
 39
0.100
  6
CONTINUOUS
 10
50.00000
 20
34.00000
 30
 0
 11
50.00000
 21
36.00000
  0
LINE
  8
Reference_points
 62
   1
 39
0.100
  6
CONTINUOUS
 10
93.00000
 20
6.00000
 30
 0
 11
95.00000
 21
6.00000
  0
LINE
  8
Reference_points
 62
   1
 39
0.100
  6
CONTINUOUS
 10
94.00000
 20
5.00000
 30
 0
 11
94.00000
 21
7.00000
  0
LINE
  8
Reference_points
 62
   1
 39
0.100
  6
CONTINUOUS
 10
5.00000
 20
6.00000
 30
 0
 11
7.00000
 21
6.00000
  0
LINE
  8
Reference_points
 62
   1
 39
0.100
  6
CONTINUOUS
 10
6.00000
 20
5.00000
 30
 0
 11
6.00000
 21
7.00000
  0
LINE
  8
Reference_points
 62
   1
 39
0.100
  6
CONTINUOUS
 10
16.50000
 20
100.00000
 30
 0
 11
18.50000
 21
100.00000
  0
LINE
  8
Reference_points
 62
   1
 39
0.100
  6
CONTINUOUS
 10
17.50000
 20
99.00000
 30
 0
 11
17.50000
 21
101.00000
  0
LINE
  8
Reference_points
 62
   1
 39
0.100
  6
CONTINUOUS
 10
20.85400
 20
116.25000
 30
 0
 11
22.85400
 21
116.25000
  0
LINE
  8
Reference_points
 62
   1
 39
0.100
  6
CONTINUOUS
 10
21.85400
 20
115.25000
 30
 0
 11
21.85400
 21
117.25000
  0
LINE
  8
Reference_points
 62
   1
 39
0.100
  6
CONTINUOUS
 10
32.75000
 20
128.14600
 30
 0
 11
34.75000
 21
128.14600
  0
LINE
  8
Reference_points
 62
   1
 39
0.100
  6
CONTINUOUS
 10
33.75000
 20
127.14600
 30
 0
 11
33.75000
 21
129.14600
  0
LINE
  8
Reference_points
 62
   1
 39
0.100
  6
CONTINUOUS
 10
49.00000
 20
132.50000
 30
 0
 11
51.00000
 21
132.50000
  0
LINE
  8
Reference_points
 62
   1
 39
0.100
  6
CONTINUOUS
 10
50.00000
 20
131.50000
 30
 0
 11
50.00000
 21
133.50000
  0
LINE
  8
Reference_points
 62
   1
 39
0.100
  6
CONTINUOUS
 10
81.50000
 20
100.00000
 30
 0
 11
83.50000
 21
100.00000
  0
LINE
  8
Reference_points
 62
   1
 39
0.100
  6
CONTINUOUS
 10
82.50000
 20
99.00000
 30
 0
 11
82.50000
 21
101.00000
  0
LINE
  8
Reference_points
 62
   1
 39
0.100
  6
CONTINUOUS
 10
77.14600
 20
116.25000
 30
 0
 11
79.14600
 21
116.25000
  0
LINE
  8
Reference_points
 62
   1
 39
0.100
  6
CONTINUOUS
 10
78.14600
 20
115.25000
 30
 0
 11
78.14600
 21
117.25000
  0
LINE
  8
Reference_points
 62
   1
 39
0.100
  6
CONTINUOUS
 10
65.25000
 20
128.14600
 30
 0
 11
67.25000
 21
128.14600
  0
LINE
  8
Reference_points
 62
   1
 39
0.100
  6
CONTINUOUS
 10
66.25000
 20
127.14600
 30
 0
 11
66.25000
 21
129.14600
  0
LINE
  8
Reference_points
 62
   1
 39
0.100
  6
CONTINUOUS
 10
20.85400
 20
83.75000
 30
 0
 11
22.85400
 21
83.75000
  0
LINE
  8
Reference_points
 62
   1
 39
0.100
  6
CONTINUOUS
 10
21.85400
 20
82.75000
 30
 0
 11
21.85400
 21
84.75000
  0
LINE
  8
Reference_points
 62
   1
 39
0.100
  6
CONTINUOUS
 10
77.14600
 20
83.75000
 30
 0
 11
79.14600
 21
83.75000
  0
LINE
  8
Reference_points
 62
   1
 39
0.100
  6
CONTINUOUS
 10
78.14600
 20
82.75000
 30
 0
 11
78.14600
 21
84.75000
  0
LINE
  8
Reference_points
 62
   1
 39
0.100
  6
CONTINUOUS
 10
93.00000
 20
144.00000
 30
 0
 11
95.00000
 21
144.00000
  0
LINE
  8
Reference_points
 62
   1
 39
0.100
  6
CONTINUOUS
 10
94.00000
 20
143.00000
 30
 0
 11
94.00000
 21
145.00000
  0
LINE
  8
Reference_points
 62
   1
 39
0.100
  6
CONTINUOUS
 10
5.00000
 20
144.00000
 30
 0
 11
7.00000
 21
144.00000
  0
LINE
  8
Reference_points
 62
   1
 39
0.100
  6
CONTINUOUS
 10
6.00000
 20
143.00000
 30
 0
 11
6.00000
 21
145.00000
  0
LINE
  8
Reference_points
 62
   1
 39
0.100
  6
CONTINUOUS
 10
49.00000
 20
6.00000
 30
 0
 11
51.00000
 21
6.00000
  0
LINE
  8
Reference_points
 62
   1
 39
0.100
  6
CONTINUOUS
 10
50.00000
 20
5.00000
 30
 0
 11
50.00000
 21
7.00000
  0
LINE
  8
Reference_points
 62
   1
 39
0.100
  6
CONTINUOUS
 10
49.00000
 20
67.50000
 30
 0
 11
51.00000
 21
67.50000
  0
LINE
  8
Reference_points
 62
   1
 39
0.100
  6
CONTINUOUS
 10
50.00000
 20
66.50000
 30
 0
 11
50.00000
 21
68.50000
  0
ENDSEC
  0
EOF
