G04 #@! TF.FileFunction,Legend,Top*
%FSLAX46Y46*%
G04 Gerber Fmt 4.6, Leading zero omitted, Abs format (unit mm)*
G04 Created by KiCad (PCBNEW 4.0.1-stable) date 27/02/2016 21:34:42*
%MOMM*%
G01*
G04 APERTURE LIST*
%ADD10C,0.150000*%
%ADD11C,0.100000*%
%ADD12R,5.800000X6.200000*%
%ADD13R,1.600000X3.000000*%
%ADD14R,0.600000X1.550000*%
%ADD15R,1.150000X1.150000*%
%ADD16C,2.000000*%
%ADD17C,1.800000*%
%ADD18R,1.500000X1.500000*%
%ADD19C,1.500000*%
%ADD20R,2.500000X1.700000*%
%ADD21C,1.000000*%
%ADD22R,1.000000X1.000000*%
%ADD23O,3.000000X1.800000*%
%ADD24C,4.000000*%
%ADD25C,2.500000*%
%ADD26R,2.350000X2.770000*%
%ADD27R,1.000000X0.400000*%
%ADD28R,1.000000X0.600000*%
%ADD29R,1.800000X1.800000*%
G04 APERTURE END LIST*
D10*
X87503096Y-94750000D02*
X87407858Y-94702381D01*
X87265001Y-94702381D01*
X87122143Y-94750000D01*
X87026905Y-94845238D01*
X86979286Y-94940476D01*
X86931667Y-95130952D01*
X86931667Y-95273810D01*
X86979286Y-95464286D01*
X87026905Y-95559524D01*
X87122143Y-95654762D01*
X87265001Y-95702381D01*
X87360239Y-95702381D01*
X87503096Y-95654762D01*
X87550715Y-95607143D01*
X87550715Y-95273810D01*
X87360239Y-95273810D01*
X87979286Y-95702381D02*
X87979286Y-94702381D01*
X88550715Y-95702381D01*
X88550715Y-94702381D01*
X89026905Y-95702381D02*
X89026905Y-94702381D01*
X89265000Y-94702381D01*
X89407858Y-94750000D01*
X89503096Y-94845238D01*
X89550715Y-94940476D01*
X89598334Y-95130952D01*
X89598334Y-95273810D01*
X89550715Y-95464286D01*
X89503096Y-95559524D01*
X89407858Y-95654762D01*
X89265000Y-95702381D01*
X89026905Y-95702381D01*
X84836190Y-94927381D02*
X85026666Y-94927381D01*
X85121905Y-94879762D01*
X85169524Y-94832143D01*
X85264762Y-94689286D01*
X85312381Y-94498810D01*
X85312381Y-94117857D01*
X85264762Y-94022619D01*
X85217143Y-93975000D01*
X85121905Y-93927381D01*
X84931428Y-93927381D01*
X84836190Y-93975000D01*
X84788571Y-94022619D01*
X84740952Y-94117857D01*
X84740952Y-94355952D01*
X84788571Y-94451190D01*
X84836190Y-94498810D01*
X84931428Y-94546429D01*
X85121905Y-94546429D01*
X85217143Y-94498810D01*
X85264762Y-94451190D01*
X85312381Y-94355952D01*
X85598095Y-93927381D02*
X85931428Y-94927381D01*
X86264762Y-93927381D01*
X84598095Y-96477381D02*
X84598095Y-95477381D01*
X84836190Y-95477381D01*
X84979048Y-95525000D01*
X85074286Y-95620238D01*
X85121905Y-95715476D01*
X85169524Y-95905952D01*
X85169524Y-96048810D01*
X85121905Y-96239286D01*
X85074286Y-96334524D01*
X84979048Y-96429762D01*
X84836190Y-96477381D01*
X84598095Y-96477381D01*
X86169524Y-96382143D02*
X86121905Y-96429762D01*
X85979048Y-96477381D01*
X85883810Y-96477381D01*
X85740952Y-96429762D01*
X85645714Y-96334524D01*
X85598095Y-96239286D01*
X85550476Y-96048810D01*
X85550476Y-95905952D01*
X85598095Y-95715476D01*
X85645714Y-95620238D01*
X85740952Y-95525000D01*
X85883810Y-95477381D01*
X85979048Y-95477381D01*
X86121905Y-95525000D01*
X86169524Y-95572619D01*
X76835000Y-93345000D02*
X75565000Y-93345000D01*
X73025000Y-90170000D02*
X73025000Y-92710000D01*
X79375000Y-90170000D02*
X79375000Y-92710000D01*
X55880000Y-74930000D02*
X55880000Y-78740000D01*
X55880000Y-78740000D02*
X50165000Y-78740000D01*
X50165000Y-78740000D02*
X50165000Y-74930000D01*
X50165000Y-74930000D02*
X55880000Y-74930000D01*
X55880000Y-74930000D02*
X55245000Y-74930000D01*
X55245000Y-74930000D02*
X55245000Y-78740000D01*
D11*
X66929000Y-78740000D02*
X63881000Y-78740000D01*
X63881000Y-78740000D02*
X63881000Y-77470000D01*
X63881000Y-77470000D02*
X66929000Y-77470000D01*
X66929000Y-77470000D02*
X66929000Y-78740000D01*
X66929000Y-75565000D02*
X63881000Y-75565000D01*
X63881000Y-75565000D02*
X63881000Y-74295000D01*
X63881000Y-74295000D02*
X66929000Y-74295000D01*
X66929000Y-74295000D02*
X66929000Y-75565000D01*
X51435000Y-69596000D02*
X51435000Y-72644000D01*
X51435000Y-72644000D02*
X50165000Y-72644000D01*
X50165000Y-72644000D02*
X50165000Y-69596000D01*
X50165000Y-69596000D02*
X51435000Y-69596000D01*
X49530000Y-77216000D02*
X49530000Y-80264000D01*
X49530000Y-80264000D02*
X48260000Y-80264000D01*
X48260000Y-80264000D02*
X48260000Y-77216000D01*
X48260000Y-77216000D02*
X49530000Y-77216000D01*
D10*
X58420000Y-57150000D02*
X58420000Y-52070000D01*
X58420000Y-52070000D02*
X81280000Y-52070000D01*
X81280000Y-52070000D02*
X81280000Y-57150000D01*
X58420000Y-99060000D02*
X58420000Y-93980000D01*
X81280000Y-99060000D02*
X81280000Y-93980000D01*
X58420000Y-99060000D02*
X81280000Y-99060000D01*
X73787000Y-100330000D02*
X73787000Y-97790000D01*
X74041000Y-97917000D02*
X74041000Y-100203000D01*
X74295000Y-100330000D02*
X74295000Y-97917000D01*
X74168000Y-97790000D02*
X74168000Y-100330000D01*
X74168000Y-100330000D02*
X74422000Y-100330000D01*
X74422000Y-100330000D02*
X74422000Y-97790000D01*
X73914000Y-100330000D02*
X73914000Y-97790000D01*
X78740000Y-100330000D02*
X73660000Y-100330000D01*
X73660000Y-100330000D02*
X73660000Y-97790000D01*
X73660000Y-97790000D02*
X78740000Y-97790000D01*
X78740000Y-97790000D02*
X78740000Y-100330000D01*
X84455000Y-90297000D02*
X86995000Y-90297000D01*
X86995000Y-90297000D02*
X86995000Y-90424000D01*
X86995000Y-90424000D02*
X84455000Y-90424000D01*
X84582000Y-92583000D02*
X86868000Y-92583000D01*
X86868000Y-92583000D02*
X86868000Y-92456000D01*
X86868000Y-92456000D02*
X84582000Y-92456000D01*
X84582000Y-92456000D02*
X84455000Y-92456000D01*
X84455000Y-92456000D02*
X84455000Y-92329000D01*
X84455000Y-92329000D02*
X84455000Y-92456000D01*
X84455000Y-92710000D02*
X86995000Y-92710000D01*
X86995000Y-92710000D02*
X84455000Y-92710000D01*
X84455000Y-92710000D02*
X84455000Y-90170000D01*
X84455000Y-90170000D02*
X86995000Y-90170000D01*
X86995000Y-90170000D02*
X86995000Y-92710000D01*
X86995000Y-92710000D02*
X89535000Y-92710000D01*
X89535000Y-92710000D02*
X89535000Y-90170000D01*
X89535000Y-90170000D02*
X86995000Y-90170000D01*
X48895000Y-57277000D02*
X51435000Y-57277000D01*
X51435000Y-57277000D02*
X51435000Y-57404000D01*
X51435000Y-57404000D02*
X48895000Y-57404000D01*
X49022000Y-59563000D02*
X51308000Y-59563000D01*
X51308000Y-59563000D02*
X51308000Y-59436000D01*
X51308000Y-59436000D02*
X49022000Y-59436000D01*
X49022000Y-59436000D02*
X48895000Y-59436000D01*
X48895000Y-59436000D02*
X48895000Y-59309000D01*
X48895000Y-59309000D02*
X48895000Y-59436000D01*
X48895000Y-59690000D02*
X51435000Y-59690000D01*
X51435000Y-59690000D02*
X48895000Y-59690000D01*
X48895000Y-59690000D02*
X48895000Y-57150000D01*
X48895000Y-57150000D02*
X51435000Y-57150000D01*
X51435000Y-57150000D02*
X51435000Y-59690000D01*
X51435000Y-59690000D02*
X53975000Y-59690000D01*
X53975000Y-59690000D02*
X53975000Y-57150000D01*
X53975000Y-57150000D02*
X51435000Y-57150000D01*
X53848000Y-90297000D02*
X53848000Y-93091000D01*
X53848000Y-88773000D02*
X53848000Y-85979000D01*
X56070000Y-89535000D02*
G75*
G03X56070000Y-89535000I-4000000J0D01*
G01*
D11*
X80645000Y-96329500D02*
X81915000Y-96329500D01*
X81915000Y-96710500D02*
X80645000Y-96710500D01*
X80645000Y-96266000D02*
X81915000Y-96266000D01*
X81915000Y-96266000D02*
X81915000Y-96393000D01*
X81915000Y-96393000D02*
X80645000Y-96393000D01*
X80645000Y-96393000D02*
X80645000Y-96266000D01*
X80645000Y-96774000D02*
X81915000Y-96774000D01*
X81915000Y-96774000D02*
X81915000Y-96647000D01*
X81915000Y-96647000D02*
X80645000Y-96647000D01*
X80645000Y-96647000D02*
X80645000Y-96774000D01*
X80645000Y-98044000D02*
X80645000Y-94996000D01*
X80645000Y-94996000D02*
X81915000Y-94996000D01*
X81915000Y-94996000D02*
X81915000Y-98044000D01*
X81915000Y-98044000D02*
X80645000Y-98044000D01*
X53975000Y-71310500D02*
X52705000Y-71310500D01*
X52705000Y-70929500D02*
X53975000Y-70929500D01*
X53975000Y-71374000D02*
X52705000Y-71374000D01*
X52705000Y-71374000D02*
X52705000Y-71247000D01*
X52705000Y-71247000D02*
X53975000Y-71247000D01*
X53975000Y-71247000D02*
X53975000Y-71374000D01*
X53975000Y-70866000D02*
X52705000Y-70866000D01*
X52705000Y-70866000D02*
X52705000Y-70993000D01*
X52705000Y-70993000D02*
X53975000Y-70993000D01*
X53975000Y-70993000D02*
X53975000Y-70866000D01*
X53975000Y-69596000D02*
X53975000Y-72644000D01*
X53975000Y-72644000D02*
X52705000Y-72644000D01*
X52705000Y-72644000D02*
X52705000Y-69596000D01*
X52705000Y-69596000D02*
X53975000Y-69596000D01*
D10*
X74549000Y-80772000D02*
X74549000Y-80645000D01*
X77978000Y-80645000D02*
X77978000Y-81026000D01*
X77978000Y-81026000D02*
X74549000Y-81026000D01*
X74549000Y-81026000D02*
X74549000Y-80772000D01*
X77978000Y-76962000D02*
X74549000Y-76962000D01*
X77978000Y-76835000D02*
X74549000Y-76835000D01*
X77978000Y-71755000D02*
X77978000Y-80645000D01*
X77978000Y-80645000D02*
X74549000Y-80645000D01*
X74549000Y-80645000D02*
X74549000Y-71755000D01*
X74549000Y-71755000D02*
X77978000Y-71755000D01*
X70358000Y-73787000D02*
X69342000Y-73787000D01*
X69342000Y-73914000D02*
X70358000Y-73914000D01*
X69342000Y-73660000D02*
X70358000Y-73660000D01*
X70358000Y-73660000D02*
X70358000Y-76200000D01*
X70358000Y-76200000D02*
X69342000Y-76200000D01*
X69342000Y-76200000D02*
X69342000Y-73660000D01*
X70993095Y-87717381D02*
X70993095Y-88526905D01*
X71040714Y-88622143D01*
X71088333Y-88669762D01*
X71183571Y-88717381D01*
X71374048Y-88717381D01*
X71469286Y-88669762D01*
X71516905Y-88622143D01*
X71564524Y-88526905D01*
X71564524Y-87717381D01*
X72564524Y-88717381D02*
X71993095Y-88717381D01*
X72278809Y-88717381D02*
X72278809Y-87717381D01*
X72183571Y-87860238D01*
X72088333Y-87955476D01*
X71993095Y-88003095D01*
X53848095Y-81367381D02*
X53848095Y-82176905D01*
X53895714Y-82272143D01*
X53943333Y-82319762D01*
X54038571Y-82367381D01*
X54229048Y-82367381D01*
X54324286Y-82319762D01*
X54371905Y-82272143D01*
X54419524Y-82176905D01*
X54419524Y-81367381D01*
X54800476Y-81367381D02*
X55419524Y-81367381D01*
X55086190Y-81748333D01*
X55229048Y-81748333D01*
X55324286Y-81795952D01*
X55371905Y-81843571D01*
X55419524Y-81938810D01*
X55419524Y-82176905D01*
X55371905Y-82272143D01*
X55324286Y-82319762D01*
X55229048Y-82367381D01*
X54943333Y-82367381D01*
X54848095Y-82319762D01*
X54800476Y-82272143D01*
X62063334Y-78557381D02*
X61730000Y-78081190D01*
X61491905Y-78557381D02*
X61491905Y-77557381D01*
X61872858Y-77557381D01*
X61968096Y-77605000D01*
X62015715Y-77652619D01*
X62063334Y-77747857D01*
X62063334Y-77890714D01*
X62015715Y-77985952D01*
X61968096Y-78033571D01*
X61872858Y-78081190D01*
X61491905Y-78081190D01*
X62444286Y-77652619D02*
X62491905Y-77605000D01*
X62587143Y-77557381D01*
X62825239Y-77557381D01*
X62920477Y-77605000D01*
X62968096Y-77652619D01*
X63015715Y-77747857D01*
X63015715Y-77843095D01*
X62968096Y-77985952D01*
X62396667Y-78557381D01*
X63015715Y-78557381D01*
X62063334Y-75382381D02*
X61730000Y-74906190D01*
X61491905Y-75382381D02*
X61491905Y-74382381D01*
X61872858Y-74382381D01*
X61968096Y-74430000D01*
X62015715Y-74477619D01*
X62063334Y-74572857D01*
X62063334Y-74715714D01*
X62015715Y-74810952D01*
X61968096Y-74858571D01*
X61872858Y-74906190D01*
X61491905Y-74906190D01*
X63015715Y-75382381D02*
X62444286Y-75382381D01*
X62730000Y-75382381D02*
X62730000Y-74382381D01*
X62634762Y-74525238D01*
X62539524Y-74620476D01*
X62444286Y-74668095D01*
X48347334Y-71572381D02*
X48014000Y-71096190D01*
X47775905Y-71572381D02*
X47775905Y-70572381D01*
X48156858Y-70572381D01*
X48252096Y-70620000D01*
X48299715Y-70667619D01*
X48347334Y-70762857D01*
X48347334Y-70905714D01*
X48299715Y-71000952D01*
X48252096Y-71048571D01*
X48156858Y-71096190D01*
X47775905Y-71096190D01*
X48680667Y-70572381D02*
X49347334Y-70572381D01*
X48918762Y-71572381D01*
X48347334Y-76652381D02*
X48014000Y-76176190D01*
X47775905Y-76652381D02*
X47775905Y-75652381D01*
X48156858Y-75652381D01*
X48252096Y-75700000D01*
X48299715Y-75747619D01*
X48347334Y-75842857D01*
X48347334Y-75985714D01*
X48299715Y-76080952D01*
X48252096Y-76128571D01*
X48156858Y-76176190D01*
X47775905Y-76176190D01*
X48918762Y-76080952D02*
X48823524Y-76033333D01*
X48775905Y-75985714D01*
X48728286Y-75890476D01*
X48728286Y-75842857D01*
X48775905Y-75747619D01*
X48823524Y-75700000D01*
X48918762Y-75652381D01*
X49109239Y-75652381D01*
X49204477Y-75700000D01*
X49252096Y-75747619D01*
X49299715Y-75842857D01*
X49299715Y-75890476D01*
X49252096Y-75985714D01*
X49204477Y-76033333D01*
X49109239Y-76080952D01*
X48918762Y-76080952D01*
X48823524Y-76128571D01*
X48775905Y-76176190D01*
X48728286Y-76271429D01*
X48728286Y-76461905D01*
X48775905Y-76557143D01*
X48823524Y-76604762D01*
X48918762Y-76652381D01*
X49109239Y-76652381D01*
X49204477Y-76604762D01*
X49252096Y-76557143D01*
X49299715Y-76461905D01*
X49299715Y-76271429D01*
X49252096Y-76176190D01*
X49204477Y-76128571D01*
X49109239Y-76080952D01*
X58928095Y-52792381D02*
X58928095Y-53601905D01*
X58975714Y-53697143D01*
X59023333Y-53744762D01*
X59118571Y-53792381D01*
X59309048Y-53792381D01*
X59404286Y-53744762D01*
X59451905Y-53697143D01*
X59499524Y-53601905D01*
X59499524Y-52792381D01*
X59928095Y-52887619D02*
X59975714Y-52840000D01*
X60070952Y-52792381D01*
X60309048Y-52792381D01*
X60404286Y-52840000D01*
X60451905Y-52887619D01*
X60499524Y-52982857D01*
X60499524Y-53078095D01*
X60451905Y-53220952D01*
X59880476Y-53792381D01*
X60499524Y-53792381D01*
X77478095Y-52792381D02*
X77478095Y-53601905D01*
X77525714Y-53697143D01*
X77573333Y-53744762D01*
X77668571Y-53792381D01*
X77859048Y-53792381D01*
X77954286Y-53744762D01*
X78001905Y-53697143D01*
X78049524Y-53601905D01*
X78049524Y-52792381D01*
X78478095Y-53744762D02*
X78620952Y-53792381D01*
X78859048Y-53792381D01*
X78954286Y-53744762D01*
X79001905Y-53697143D01*
X79049524Y-53601905D01*
X79049524Y-53506667D01*
X79001905Y-53411429D01*
X78954286Y-53363810D01*
X78859048Y-53316190D01*
X78668571Y-53268571D01*
X78573333Y-53220952D01*
X78525714Y-53173333D01*
X78478095Y-53078095D01*
X78478095Y-52982857D01*
X78525714Y-52887619D01*
X78573333Y-52840000D01*
X78668571Y-52792381D01*
X78906667Y-52792381D01*
X79049524Y-52840000D01*
X79811429Y-53268571D02*
X79954286Y-53316190D01*
X80001905Y-53363810D01*
X80049524Y-53459048D01*
X80049524Y-53601905D01*
X80001905Y-53697143D01*
X79954286Y-53744762D01*
X79859048Y-53792381D01*
X79478095Y-53792381D01*
X79478095Y-52792381D01*
X79811429Y-52792381D01*
X79906667Y-52840000D01*
X79954286Y-52887619D01*
X80001905Y-52982857D01*
X80001905Y-53078095D01*
X79954286Y-53173333D01*
X79906667Y-53220952D01*
X79811429Y-53268571D01*
X79478095Y-53268571D01*
X80541905Y-100782381D02*
X80541905Y-99782381D01*
X80780000Y-99782381D01*
X80922858Y-99830000D01*
X81018096Y-99925238D01*
X81065715Y-100020476D01*
X81113334Y-100210952D01*
X81113334Y-100353810D01*
X81065715Y-100544286D01*
X81018096Y-100639524D01*
X80922858Y-100734762D01*
X80780000Y-100782381D01*
X80541905Y-100782381D01*
X82065715Y-100782381D02*
X81494286Y-100782381D01*
X81780000Y-100782381D02*
X81780000Y-99782381D01*
X81684762Y-99925238D01*
X81589524Y-100020476D01*
X81494286Y-100068095D01*
X84685476Y-87447381D02*
X84685476Y-86447381D01*
X85066429Y-86447381D01*
X85161667Y-86495000D01*
X85209286Y-86542619D01*
X85256905Y-86637857D01*
X85256905Y-86780714D01*
X85209286Y-86875952D01*
X85161667Y-86923571D01*
X85066429Y-86971190D01*
X84685476Y-86971190D01*
X85875952Y-86447381D02*
X86066429Y-86447381D01*
X86161667Y-86495000D01*
X86256905Y-86590238D01*
X86304524Y-86780714D01*
X86304524Y-87114048D01*
X86256905Y-87304524D01*
X86161667Y-87399762D01*
X86066429Y-87447381D01*
X85875952Y-87447381D01*
X85780714Y-87399762D01*
X85685476Y-87304524D01*
X85637857Y-87114048D01*
X85637857Y-86780714D01*
X85685476Y-86590238D01*
X85780714Y-86495000D01*
X85875952Y-86447381D01*
X86637857Y-86447381D02*
X86875952Y-87447381D01*
X87066429Y-86733095D01*
X87256905Y-87447381D01*
X87495000Y-86447381D01*
X87875952Y-86923571D02*
X88209286Y-86923571D01*
X88352143Y-87447381D02*
X87875952Y-87447381D01*
X87875952Y-86447381D01*
X88352143Y-86447381D01*
X89352143Y-87447381D02*
X89018809Y-86971190D01*
X88780714Y-87447381D02*
X88780714Y-86447381D01*
X89161667Y-86447381D01*
X89256905Y-86495000D01*
X89304524Y-86542619D01*
X89352143Y-86637857D01*
X89352143Y-86780714D01*
X89304524Y-86875952D01*
X89256905Y-86923571D01*
X89161667Y-86971190D01*
X88780714Y-86971190D01*
X49173096Y-62793571D02*
X49315953Y-62841190D01*
X49363572Y-62888810D01*
X49411191Y-62984048D01*
X49411191Y-63126905D01*
X49363572Y-63222143D01*
X49315953Y-63269762D01*
X49220715Y-63317381D01*
X48839762Y-63317381D01*
X48839762Y-62317381D01*
X49173096Y-62317381D01*
X49268334Y-62365000D01*
X49315953Y-62412619D01*
X49363572Y-62507857D01*
X49363572Y-62603095D01*
X49315953Y-62698333D01*
X49268334Y-62745952D01*
X49173096Y-62793571D01*
X48839762Y-62793571D01*
X49839762Y-62317381D02*
X49839762Y-63126905D01*
X49887381Y-63222143D01*
X49935000Y-63269762D01*
X50030238Y-63317381D01*
X50220715Y-63317381D01*
X50315953Y-63269762D01*
X50363572Y-63222143D01*
X50411191Y-63126905D01*
X50411191Y-62317381D01*
X50744524Y-62317381D02*
X51315953Y-62317381D01*
X51030238Y-63317381D02*
X51030238Y-62317381D01*
X51506429Y-62317381D02*
X52077858Y-62317381D01*
X51792143Y-63317381D02*
X51792143Y-62317381D01*
X52601667Y-62317381D02*
X52792144Y-62317381D01*
X52887382Y-62365000D01*
X52982620Y-62460238D01*
X53030239Y-62650714D01*
X53030239Y-62984048D01*
X52982620Y-63174524D01*
X52887382Y-63269762D01*
X52792144Y-63317381D01*
X52601667Y-63317381D01*
X52506429Y-63269762D01*
X52411191Y-63174524D01*
X52363572Y-62984048D01*
X52363572Y-62650714D01*
X52411191Y-62460238D01*
X52506429Y-62365000D01*
X52601667Y-62317381D01*
X53458810Y-63317381D02*
X53458810Y-62317381D01*
X54030239Y-63317381D01*
X54030239Y-62317381D01*
X55078334Y-94337143D02*
X55030715Y-94384762D01*
X54887858Y-94432381D01*
X54792620Y-94432381D01*
X54649762Y-94384762D01*
X54554524Y-94289524D01*
X54506905Y-94194286D01*
X54459286Y-94003810D01*
X54459286Y-93860952D01*
X54506905Y-93670476D01*
X54554524Y-93575238D01*
X54649762Y-93480000D01*
X54792620Y-93432381D01*
X54887858Y-93432381D01*
X55030715Y-93480000D01*
X55078334Y-93527619D01*
X55411667Y-93432381D02*
X56030715Y-93432381D01*
X55697381Y-93813333D01*
X55840239Y-93813333D01*
X55935477Y-93860952D01*
X55983096Y-93908571D01*
X56030715Y-94003810D01*
X56030715Y-94241905D01*
X55983096Y-94337143D01*
X55935477Y-94384762D01*
X55840239Y-94432381D01*
X55554524Y-94432381D01*
X55459286Y-94384762D01*
X55411667Y-94337143D01*
X83018334Y-98782143D02*
X82970715Y-98829762D01*
X82827858Y-98877381D01*
X82732620Y-98877381D01*
X82589762Y-98829762D01*
X82494524Y-98734524D01*
X82446905Y-98639286D01*
X82399286Y-98448810D01*
X82399286Y-98305952D01*
X82446905Y-98115476D01*
X82494524Y-98020238D01*
X82589762Y-97925000D01*
X82732620Y-97877381D01*
X82827858Y-97877381D01*
X82970715Y-97925000D01*
X83018334Y-97972619D01*
X83970715Y-98877381D02*
X83399286Y-98877381D01*
X83685000Y-98877381D02*
X83685000Y-97877381D01*
X83589762Y-98020238D01*
X83494524Y-98115476D01*
X83399286Y-98163095D01*
X55078334Y-71477143D02*
X55030715Y-71524762D01*
X54887858Y-71572381D01*
X54792620Y-71572381D01*
X54649762Y-71524762D01*
X54554524Y-71429524D01*
X54506905Y-71334286D01*
X54459286Y-71143810D01*
X54459286Y-71000952D01*
X54506905Y-70810476D01*
X54554524Y-70715238D01*
X54649762Y-70620000D01*
X54792620Y-70572381D01*
X54887858Y-70572381D01*
X55030715Y-70620000D01*
X55078334Y-70667619D01*
X55935477Y-70905714D02*
X55935477Y-71572381D01*
X55697381Y-70524762D02*
X55459286Y-71239048D01*
X56078334Y-71239048D01*
X72858334Y-80367143D02*
X72810715Y-80414762D01*
X72667858Y-80462381D01*
X72572620Y-80462381D01*
X72429762Y-80414762D01*
X72334524Y-80319524D01*
X72286905Y-80224286D01*
X72239286Y-80033810D01*
X72239286Y-79890952D01*
X72286905Y-79700476D01*
X72334524Y-79605238D01*
X72429762Y-79510000D01*
X72572620Y-79462381D01*
X72667858Y-79462381D01*
X72810715Y-79510000D01*
X72858334Y-79557619D01*
X73239286Y-79557619D02*
X73286905Y-79510000D01*
X73382143Y-79462381D01*
X73620239Y-79462381D01*
X73715477Y-79510000D01*
X73763096Y-79557619D01*
X73810715Y-79652857D01*
X73810715Y-79748095D01*
X73763096Y-79890952D01*
X73191667Y-80462381D01*
X73810715Y-80462381D01*
X68484762Y-72937619D02*
X68389524Y-72890000D01*
X68294286Y-72794762D01*
X68151429Y-72651905D01*
X68056190Y-72604286D01*
X67960952Y-72604286D01*
X68008571Y-72842381D02*
X67913333Y-72794762D01*
X67818095Y-72699524D01*
X67770476Y-72509048D01*
X67770476Y-72175714D01*
X67818095Y-71985238D01*
X67913333Y-71890000D01*
X68008571Y-71842381D01*
X68199048Y-71842381D01*
X68294286Y-71890000D01*
X68389524Y-71985238D01*
X68437143Y-72175714D01*
X68437143Y-72509048D01*
X68389524Y-72699524D01*
X68294286Y-72794762D01*
X68199048Y-72842381D01*
X68008571Y-72842381D01*
X69389524Y-72842381D02*
X68818095Y-72842381D01*
X69103809Y-72842381D02*
X69103809Y-71842381D01*
X69008571Y-71985238D01*
X68913333Y-72080476D01*
X68818095Y-72128095D01*
X89352381Y-83668809D02*
X88352381Y-83668809D01*
X88352381Y-83287856D01*
X88400000Y-83192618D01*
X88447619Y-83144999D01*
X88542857Y-83097380D01*
X88685714Y-83097380D01*
X88780952Y-83144999D01*
X88828571Y-83192618D01*
X88876190Y-83287856D01*
X88876190Y-83668809D01*
X88352381Y-82478333D02*
X88352381Y-82287856D01*
X88400000Y-82192618D01*
X88495238Y-82097380D01*
X88685714Y-82049761D01*
X89019048Y-82049761D01*
X89209524Y-82097380D01*
X89304762Y-82192618D01*
X89352381Y-82287856D01*
X89352381Y-82478333D01*
X89304762Y-82573571D01*
X89209524Y-82668809D01*
X89019048Y-82716428D01*
X88685714Y-82716428D01*
X88495238Y-82668809D01*
X88400000Y-82573571D01*
X88352381Y-82478333D01*
X88352381Y-81764047D02*
X88352381Y-81192618D01*
X89352381Y-81478333D02*
X88352381Y-81478333D01*
X88971429Y-80859285D02*
X88971429Y-80097380D01*
X89352381Y-79621190D02*
X88352381Y-79621190D01*
X88352381Y-79383095D01*
X88400000Y-79240237D01*
X88495238Y-79144999D01*
X88590476Y-79097380D01*
X88780952Y-79049761D01*
X88923810Y-79049761D01*
X89114286Y-79097380D01*
X89209524Y-79144999D01*
X89304762Y-79240237D01*
X89352381Y-79383095D01*
X89352381Y-79621190D01*
X89352381Y-78621190D02*
X88352381Y-78621190D01*
X89352381Y-77573571D02*
X88876190Y-77906905D01*
X89352381Y-78145000D02*
X88352381Y-78145000D01*
X88352381Y-77764047D01*
X88400000Y-77668809D01*
X88447619Y-77621190D01*
X88542857Y-77573571D01*
X88685714Y-77573571D01*
X88780952Y-77621190D01*
X88828571Y-77668809D01*
X88876190Y-77764047D01*
X88876190Y-78145000D01*
%LPC*%
D12*
X76200000Y-86995000D03*
D13*
X78300000Y-94250000D03*
X74100000Y-94250000D03*
D14*
X54610000Y-74235000D03*
X53340000Y-74235000D03*
X52070000Y-74235000D03*
X50800000Y-74235000D03*
X50800000Y-79435000D03*
X52070000Y-79435000D03*
X53340000Y-79435000D03*
X54610000Y-79435000D03*
D15*
X66255000Y-78105000D03*
X64555000Y-78105000D03*
X66255000Y-74930000D03*
X64555000Y-74930000D03*
X50800000Y-70270000D03*
X50800000Y-71970000D03*
X48895000Y-77890000D03*
X48895000Y-79590000D03*
D16*
X81280000Y-92710000D03*
X81280000Y-90170000D03*
X81280000Y-87630000D03*
X81280000Y-85090000D03*
X81280000Y-82550000D03*
X81280000Y-80010000D03*
X81280000Y-77470000D03*
X81280000Y-74930000D03*
X81280000Y-72390000D03*
X81280000Y-69850000D03*
X81280000Y-67310000D03*
X81280000Y-64770000D03*
X81280000Y-62230000D03*
X81280000Y-59690000D03*
X81280000Y-57150000D03*
D17*
X58420000Y-57150000D03*
X58420000Y-59690000D03*
X58420000Y-62230000D03*
X58420000Y-64770000D03*
X58420000Y-67310000D03*
X58420000Y-69850000D03*
X58420000Y-72390000D03*
X58420000Y-74930000D03*
X58420000Y-77470000D03*
X58420000Y-80010000D03*
X58420000Y-82550000D03*
X58420000Y-85090000D03*
X58420000Y-87630000D03*
X58420000Y-90170000D03*
X58420000Y-92710000D03*
D18*
X67945000Y-56515000D03*
D19*
X67945000Y-59055000D03*
D18*
X67945000Y-53340000D03*
D19*
X67945000Y-50800000D03*
D18*
X67945000Y-96520000D03*
D19*
X67945000Y-99060000D03*
D18*
X67945000Y-93345000D03*
D19*
X67945000Y-90805000D03*
D20*
X78200000Y-99060000D03*
X74200000Y-99060000D03*
D17*
X85725000Y-91440000D03*
X88265000Y-91440000D03*
X50165000Y-58420000D03*
X52705000Y-58420000D03*
D21*
X50320000Y-89535000D03*
D22*
X53820000Y-89535000D03*
D15*
X81280000Y-97370000D03*
X81280000Y-95670000D03*
D23*
X85090000Y-73680000D03*
X85090000Y-76180000D03*
X85090000Y-78680000D03*
X85090000Y-71180000D03*
X85090000Y-68680000D03*
X85090000Y-81180000D03*
X85090000Y-83680000D03*
X85090000Y-66180000D03*
D24*
X69590000Y-83180000D03*
X69590000Y-66680000D03*
D25*
X49890000Y-83430000D03*
X49890000Y-66430000D03*
D15*
X53340000Y-70270000D03*
X53340000Y-71970000D03*
D26*
X76200000Y-78770000D03*
X76200000Y-73630000D03*
D27*
X70750000Y-74930000D03*
X68950000Y-74930000D03*
D28*
X70750000Y-75680000D03*
X68950000Y-74180000D03*
X70750000Y-74180000D03*
X68950000Y-75680000D03*
D17*
X76835000Y-55245000D03*
X76835000Y-57785000D03*
X76835000Y-60325000D03*
X74295000Y-60325000D03*
X74295000Y-57785000D03*
X74295000Y-55245000D03*
D29*
X88900000Y-74930000D03*
X88900000Y-72390000D03*
X88900000Y-69850000D03*
M02*
