G04 #@! TF.FileFunction,Soldermask,Bot*
%FSLAX46Y46*%
G04 Gerber Fmt 4.6, Leading zero omitted, Abs format (unit mm)*
G04 Created by KiCad (PCBNEW 4.0.1-stable) date 27/02/2016 21:34:42*
%MOMM*%
G01*
G04 APERTURE LIST*
%ADD10C,0.150000*%
%ADD11R,1.150000X1.150000*%
%ADD12C,2.000000*%
%ADD13C,1.800000*%
%ADD14R,1.500000X1.500000*%
%ADD15C,1.500000*%
%ADD16C,1.000000*%
%ADD17R,1.000000X1.000000*%
%ADD18O,3.000000X1.800000*%
%ADD19C,4.000000*%
%ADD20C,2.500000*%
G04 APERTURE END LIST*
D10*
D11*
X63500000Y-92925000D03*
X63500000Y-91225000D03*
X63500000Y-56935000D03*
X63500000Y-58635000D03*
X63500000Y-96940000D03*
X63500000Y-98640000D03*
X63500000Y-52920000D03*
X63500000Y-51220000D03*
D12*
X81280000Y-92710000D03*
X81280000Y-90170000D03*
X81280000Y-87630000D03*
X81280000Y-85090000D03*
X81280000Y-82550000D03*
X81280000Y-80010000D03*
X81280000Y-77470000D03*
X81280000Y-74930000D03*
X81280000Y-72390000D03*
X81280000Y-69850000D03*
X81280000Y-67310000D03*
X81280000Y-64770000D03*
X81280000Y-62230000D03*
X81280000Y-59690000D03*
X81280000Y-57150000D03*
D13*
X58420000Y-57150000D03*
X58420000Y-59690000D03*
X58420000Y-62230000D03*
X58420000Y-64770000D03*
X58420000Y-67310000D03*
X58420000Y-69850000D03*
X58420000Y-72390000D03*
X58420000Y-74930000D03*
X58420000Y-77470000D03*
X58420000Y-80010000D03*
X58420000Y-82550000D03*
X58420000Y-85090000D03*
X58420000Y-87630000D03*
X58420000Y-90170000D03*
X58420000Y-92710000D03*
D14*
X67945000Y-56515000D03*
D15*
X67945000Y-59055000D03*
D14*
X67945000Y-53340000D03*
D15*
X67945000Y-50800000D03*
D14*
X67945000Y-96520000D03*
D15*
X67945000Y-99060000D03*
D14*
X67945000Y-93345000D03*
D15*
X67945000Y-90805000D03*
D13*
X85725000Y-91440000D03*
X88265000Y-91440000D03*
X50165000Y-58420000D03*
X52705000Y-58420000D03*
D16*
X50320000Y-89535000D03*
D17*
X53820000Y-89535000D03*
D18*
X85090000Y-73680000D03*
X85090000Y-76180000D03*
X85090000Y-78680000D03*
X85090000Y-71180000D03*
X85090000Y-68680000D03*
X85090000Y-81180000D03*
X85090000Y-83680000D03*
X85090000Y-66180000D03*
D19*
X69590000Y-83180000D03*
X69590000Y-66680000D03*
D20*
X49890000Y-83430000D03*
X49890000Y-66430000D03*
D13*
X76835000Y-55245000D03*
X76835000Y-57785000D03*
X76835000Y-60325000D03*
X74295000Y-60325000D03*
X74295000Y-57785000D03*
X74295000Y-55245000D03*
M02*
