G04 #@! TF.FileFunction,Legend,Bot*
%FSLAX46Y46*%
G04 Gerber Fmt 4.6, Leading zero omitted, Abs format (unit mm)*
G04 Created by KiCad (PCBNEW 4.0.1-stable) date 27/02/2016 21:34:42*
%MOMM*%
G01*
G04 APERTURE LIST*
%ADD10C,0.150000*%
%ADD11C,0.100000*%
%ADD12R,1.150000X1.150000*%
%ADD13C,2.000000*%
%ADD14C,1.800000*%
%ADD15R,1.500000X1.500000*%
%ADD16C,1.500000*%
%ADD17C,1.000000*%
%ADD18R,1.000000X1.000000*%
%ADD19O,3.000000X1.800000*%
%ADD20C,4.000000*%
%ADD21C,2.500000*%
G04 APERTURE END LIST*
D10*
X85582143Y-49337381D02*
X84963095Y-49337381D01*
X85296429Y-49718333D01*
X85153571Y-49718333D01*
X85058333Y-49765952D01*
X85010714Y-49813571D01*
X84963095Y-49908810D01*
X84963095Y-50146905D01*
X85010714Y-50242143D01*
X85058333Y-50289762D01*
X85153571Y-50337381D01*
X85439286Y-50337381D01*
X85534524Y-50289762D01*
X85582143Y-50242143D01*
X84677381Y-49337381D02*
X84344048Y-50337381D01*
X84010714Y-49337381D01*
X83772619Y-49337381D02*
X83153571Y-49337381D01*
X83486905Y-49718333D01*
X83344047Y-49718333D01*
X83248809Y-49765952D01*
X83201190Y-49813571D01*
X83153571Y-49908810D01*
X83153571Y-50146905D01*
X83201190Y-50242143D01*
X83248809Y-50289762D01*
X83344047Y-50337381D01*
X83629762Y-50337381D01*
X83725000Y-50289762D01*
X83772619Y-50242143D01*
X80677380Y-49385000D02*
X80772618Y-49337381D01*
X80915475Y-49337381D01*
X81058333Y-49385000D01*
X81153571Y-49480238D01*
X81201190Y-49575476D01*
X81248809Y-49765952D01*
X81248809Y-49908810D01*
X81201190Y-50099286D01*
X81153571Y-50194524D01*
X81058333Y-50289762D01*
X80915475Y-50337381D01*
X80820237Y-50337381D01*
X80677380Y-50289762D01*
X80629761Y-50242143D01*
X80629761Y-49908810D01*
X80820237Y-49908810D01*
X80201190Y-50337381D02*
X80201190Y-49337381D01*
X79629761Y-50337381D01*
X79629761Y-49337381D01*
X79153571Y-50337381D02*
X79153571Y-49337381D01*
X78915476Y-49337381D01*
X78772618Y-49385000D01*
X78677380Y-49480238D01*
X78629761Y-49575476D01*
X78582142Y-49765952D01*
X78582142Y-49908810D01*
X78629761Y-50099286D01*
X78677380Y-50194524D01*
X78772618Y-50289762D01*
X78915476Y-50337381D01*
X79153571Y-50337381D01*
X85010714Y-50887381D02*
X85486905Y-50887381D01*
X85534524Y-51363571D01*
X85486905Y-51315952D01*
X85391667Y-51268333D01*
X85153571Y-51268333D01*
X85058333Y-51315952D01*
X85010714Y-51363571D01*
X84963095Y-51458810D01*
X84963095Y-51696905D01*
X85010714Y-51792143D01*
X85058333Y-51839762D01*
X85153571Y-51887381D01*
X85391667Y-51887381D01*
X85486905Y-51839762D01*
X85534524Y-51792143D01*
X84677381Y-50887381D02*
X84344048Y-51887381D01*
X84010714Y-50887381D01*
X81391666Y-51887381D02*
X81391666Y-50887381D01*
X81153571Y-50887381D01*
X81010713Y-50935000D01*
X80915475Y-51030238D01*
X80867856Y-51125476D01*
X80820237Y-51315952D01*
X80820237Y-51458810D01*
X80867856Y-51649286D01*
X80915475Y-51744524D01*
X81010713Y-51839762D01*
X81153571Y-51887381D01*
X81391666Y-51887381D01*
X80248809Y-51315952D02*
X80344047Y-51268333D01*
X80391666Y-51220714D01*
X80439285Y-51125476D01*
X80439285Y-51077857D01*
X80391666Y-50982619D01*
X80344047Y-50935000D01*
X80248809Y-50887381D01*
X80058332Y-50887381D01*
X79963094Y-50935000D01*
X79915475Y-50982619D01*
X79867856Y-51077857D01*
X79867856Y-51125476D01*
X79915475Y-51220714D01*
X79963094Y-51268333D01*
X80058332Y-51315952D01*
X80248809Y-51315952D01*
X80344047Y-51363571D01*
X80391666Y-51411190D01*
X80439285Y-51506429D01*
X80439285Y-51696905D01*
X80391666Y-51792143D01*
X80344047Y-51839762D01*
X80248809Y-51887381D01*
X80058332Y-51887381D01*
X79963094Y-51839762D01*
X79915475Y-51792143D01*
X79867856Y-51696905D01*
X79867856Y-51506429D01*
X79915475Y-51411190D01*
X79963094Y-51363571D01*
X80058332Y-51315952D01*
X85486905Y-53437381D02*
X85486905Y-52437381D01*
X85248810Y-52437381D01*
X85105952Y-52485000D01*
X85010714Y-52580238D01*
X84963095Y-52675476D01*
X84915476Y-52865952D01*
X84915476Y-53008810D01*
X84963095Y-53199286D01*
X85010714Y-53294524D01*
X85105952Y-53389762D01*
X85248810Y-53437381D01*
X85486905Y-53437381D01*
X84058333Y-52437381D02*
X84248810Y-52437381D01*
X84344048Y-52485000D01*
X84391667Y-52532619D01*
X84486905Y-52675476D01*
X84534524Y-52865952D01*
X84534524Y-53246905D01*
X84486905Y-53342143D01*
X84439286Y-53389762D01*
X84344048Y-53437381D01*
X84153571Y-53437381D01*
X84058333Y-53389762D01*
X84010714Y-53342143D01*
X83963095Y-53246905D01*
X83963095Y-53008810D01*
X84010714Y-52913571D01*
X84058333Y-52865952D01*
X84153571Y-52818333D01*
X84344048Y-52818333D01*
X84439286Y-52865952D01*
X84486905Y-52913571D01*
X84534524Y-53008810D01*
X81248809Y-53437381D02*
X81248809Y-52437381D01*
X81010714Y-52437381D01*
X80867856Y-52485000D01*
X80772618Y-52580238D01*
X80724999Y-52675476D01*
X80677380Y-52865952D01*
X80677380Y-53008810D01*
X80724999Y-53199286D01*
X80772618Y-53294524D01*
X80867856Y-53389762D01*
X81010714Y-53437381D01*
X81248809Y-53437381D01*
X80344047Y-52437381D02*
X79677380Y-52437381D01*
X80105952Y-53437381D01*
D11*
X64135000Y-93599000D02*
X64135000Y-90551000D01*
X64135000Y-90551000D02*
X62865000Y-90551000D01*
X62865000Y-90551000D02*
X62865000Y-93599000D01*
X62865000Y-93599000D02*
X64135000Y-93599000D01*
X62865000Y-56261000D02*
X62865000Y-59309000D01*
X62865000Y-59309000D02*
X64135000Y-59309000D01*
X64135000Y-59309000D02*
X64135000Y-56261000D01*
X64135000Y-56261000D02*
X62865000Y-56261000D01*
X62865000Y-96266000D02*
X62865000Y-99314000D01*
X62865000Y-99314000D02*
X64135000Y-99314000D01*
X64135000Y-99314000D02*
X64135000Y-96266000D01*
X64135000Y-96266000D02*
X62865000Y-96266000D01*
X64135000Y-53594000D02*
X64135000Y-50546000D01*
X64135000Y-50546000D02*
X62865000Y-50546000D01*
X62865000Y-50546000D02*
X62865000Y-53594000D01*
X62865000Y-53594000D02*
X64135000Y-53594000D01*
D10*
X69209229Y-55242123D02*
G75*
G02X66675000Y-55245000I-1264229J-2542877D01*
G01*
X66675000Y-55245000D02*
X69215000Y-55245000D01*
X69082806Y-55496410D02*
G75*
G02X66802000Y-55499000I-1137806J-2288590D01*
G01*
X66802000Y-55499000D02*
X69088000Y-55499000D01*
X66680771Y-54612877D02*
G75*
G02X69215000Y-54610000I1264229J2542877D01*
G01*
X69215000Y-54610000D02*
X66675000Y-54610000D01*
X66807194Y-54358590D02*
G75*
G02X69088000Y-54356000I1137806J2288590D01*
G01*
X69088000Y-54356000D02*
X66802000Y-54356000D01*
X69209229Y-95247123D02*
G75*
G02X66675000Y-95250000I-1264229J-2542877D01*
G01*
X66675000Y-95250000D02*
X69215000Y-95250000D01*
X69082806Y-95501410D02*
G75*
G02X66802000Y-95504000I-1137806J-2288590D01*
G01*
X66802000Y-95504000D02*
X69088000Y-95504000D01*
X66680771Y-94617877D02*
G75*
G02X69215000Y-94615000I1264229J2542877D01*
G01*
X69215000Y-94615000D02*
X66675000Y-94615000D01*
X66807194Y-94363590D02*
G75*
G02X69088000Y-94361000I1137806J2288590D01*
G01*
X69088000Y-94361000D02*
X66802000Y-94361000D01*
X47590000Y-62430000D02*
X92590000Y-62430000D01*
X47590000Y-87430000D02*
X92590000Y-87430000D01*
X47590000Y-62430000D02*
X47590000Y-87430000D01*
X92590000Y-62430000D02*
X92590000Y-87430000D01*
X78105000Y-56515000D02*
X75565000Y-56515000D01*
X75565000Y-56515000D02*
X75565000Y-53975000D01*
X73025000Y-56515000D02*
X73025000Y-61595000D01*
X73025000Y-61595000D02*
X78105000Y-61595000D01*
X78105000Y-61595000D02*
X78105000Y-56515000D01*
X78105000Y-54102000D02*
X75565000Y-54102000D01*
X75565000Y-54102000D02*
X75565000Y-54229000D01*
X75565000Y-54229000D02*
X78105000Y-54229000D01*
X78105000Y-56261000D02*
X78105000Y-56134000D01*
X78105000Y-56134000D02*
X78105000Y-56261000D01*
X78105000Y-56515000D02*
X78105000Y-53975000D01*
X78105000Y-53975000D02*
X75565000Y-53975000D01*
X73025000Y-56515000D02*
X73025000Y-53975000D01*
X73025000Y-53975000D02*
X75565000Y-53975000D01*
X61126666Y-92527381D02*
X61460000Y-92051190D01*
X61698095Y-92527381D02*
X61698095Y-91527381D01*
X61317142Y-91527381D01*
X61221904Y-91575000D01*
X61174285Y-91622619D01*
X61126666Y-91717857D01*
X61126666Y-91860714D01*
X61174285Y-91955952D01*
X61221904Y-92003571D01*
X61317142Y-92051190D01*
X61698095Y-92051190D01*
X60793333Y-91527381D02*
X60174285Y-91527381D01*
X60507619Y-91908333D01*
X60364761Y-91908333D01*
X60269523Y-91955952D01*
X60221904Y-92003571D01*
X60174285Y-92098810D01*
X60174285Y-92336905D01*
X60221904Y-92432143D01*
X60269523Y-92479762D01*
X60364761Y-92527381D01*
X60650476Y-92527381D01*
X60745714Y-92479762D01*
X60793333Y-92432143D01*
X61126666Y-58237381D02*
X61460000Y-57761190D01*
X61698095Y-58237381D02*
X61698095Y-57237381D01*
X61317142Y-57237381D01*
X61221904Y-57285000D01*
X61174285Y-57332619D01*
X61126666Y-57427857D01*
X61126666Y-57570714D01*
X61174285Y-57665952D01*
X61221904Y-57713571D01*
X61317142Y-57761190D01*
X61698095Y-57761190D01*
X60221904Y-57237381D02*
X60698095Y-57237381D01*
X60745714Y-57713571D01*
X60698095Y-57665952D01*
X60602857Y-57618333D01*
X60364761Y-57618333D01*
X60269523Y-57665952D01*
X60221904Y-57713571D01*
X60174285Y-57808810D01*
X60174285Y-58046905D01*
X60221904Y-58142143D01*
X60269523Y-58189762D01*
X60364761Y-58237381D01*
X60602857Y-58237381D01*
X60698095Y-58189762D01*
X60745714Y-58142143D01*
X61126666Y-98242381D02*
X61460000Y-97766190D01*
X61698095Y-98242381D02*
X61698095Y-97242381D01*
X61317142Y-97242381D01*
X61221904Y-97290000D01*
X61174285Y-97337619D01*
X61126666Y-97432857D01*
X61126666Y-97575714D01*
X61174285Y-97670952D01*
X61221904Y-97718571D01*
X61317142Y-97766190D01*
X61698095Y-97766190D01*
X60269523Y-97575714D02*
X60269523Y-98242381D01*
X60507619Y-97194762D02*
X60745714Y-97909048D01*
X60126666Y-97909048D01*
X61126666Y-52522381D02*
X61460000Y-52046190D01*
X61698095Y-52522381D02*
X61698095Y-51522381D01*
X61317142Y-51522381D01*
X61221904Y-51570000D01*
X61174285Y-51617619D01*
X61126666Y-51712857D01*
X61126666Y-51855714D01*
X61174285Y-51950952D01*
X61221904Y-51998571D01*
X61317142Y-52046190D01*
X61698095Y-52046190D01*
X60269523Y-51522381D02*
X60460000Y-51522381D01*
X60555238Y-51570000D01*
X60602857Y-51617619D01*
X60698095Y-51760476D01*
X60745714Y-51950952D01*
X60745714Y-52331905D01*
X60698095Y-52427143D01*
X60650476Y-52474762D01*
X60555238Y-52522381D01*
X60364761Y-52522381D01*
X60269523Y-52474762D01*
X60221904Y-52427143D01*
X60174285Y-52331905D01*
X60174285Y-52093810D01*
X60221904Y-51998571D01*
X60269523Y-51950952D01*
X60364761Y-51903333D01*
X60555238Y-51903333D01*
X60650476Y-51950952D01*
X60698095Y-51998571D01*
X60745714Y-52093810D01*
X65984286Y-61412381D02*
X65984286Y-60412381D01*
X65746191Y-60412381D01*
X65603333Y-60460000D01*
X65508095Y-60555238D01*
X65460476Y-60650476D01*
X65412857Y-60840952D01*
X65412857Y-60983810D01*
X65460476Y-61174286D01*
X65508095Y-61269524D01*
X65603333Y-61364762D01*
X65746191Y-61412381D01*
X65984286Y-61412381D01*
X65031905Y-61364762D02*
X64889048Y-61412381D01*
X64650952Y-61412381D01*
X64555714Y-61364762D01*
X64508095Y-61317143D01*
X64460476Y-61221905D01*
X64460476Y-61126667D01*
X64508095Y-61031429D01*
X64555714Y-60983810D01*
X64650952Y-60936190D01*
X64841429Y-60888571D01*
X64936667Y-60840952D01*
X64984286Y-60793333D01*
X65031905Y-60698095D01*
X65031905Y-60602857D01*
X64984286Y-60507619D01*
X64936667Y-60460000D01*
X64841429Y-60412381D01*
X64603333Y-60412381D01*
X64460476Y-60460000D01*
X64127143Y-60412381D02*
X63508095Y-60412381D01*
X63841429Y-60793333D01*
X63698571Y-60793333D01*
X63603333Y-60840952D01*
X63555714Y-60888571D01*
X63508095Y-60983810D01*
X63508095Y-61221905D01*
X63555714Y-61317143D01*
X63603333Y-61364762D01*
X63698571Y-61412381D01*
X63984286Y-61412381D01*
X64079524Y-61364762D01*
X64127143Y-61317143D01*
X65349286Y-49982381D02*
X65349286Y-48982381D01*
X65111191Y-48982381D01*
X64968333Y-49030000D01*
X64873095Y-49125238D01*
X64825476Y-49220476D01*
X64777857Y-49410952D01*
X64777857Y-49553810D01*
X64825476Y-49744286D01*
X64873095Y-49839524D01*
X64968333Y-49934762D01*
X65111191Y-49982381D01*
X65349286Y-49982381D01*
X64396905Y-49934762D02*
X64254048Y-49982381D01*
X64015952Y-49982381D01*
X63920714Y-49934762D01*
X63873095Y-49887143D01*
X63825476Y-49791905D01*
X63825476Y-49696667D01*
X63873095Y-49601429D01*
X63920714Y-49553810D01*
X64015952Y-49506190D01*
X64206429Y-49458571D01*
X64301667Y-49410952D01*
X64349286Y-49363333D01*
X64396905Y-49268095D01*
X64396905Y-49172857D01*
X64349286Y-49077619D01*
X64301667Y-49030000D01*
X64206429Y-48982381D01*
X63968333Y-48982381D01*
X63825476Y-49030000D01*
X62968333Y-49315714D02*
X62968333Y-49982381D01*
X63206429Y-48934762D02*
X63444524Y-49649048D01*
X62825476Y-49649048D01*
X65349286Y-100782381D02*
X65349286Y-99782381D01*
X65111191Y-99782381D01*
X64968333Y-99830000D01*
X64873095Y-99925238D01*
X64825476Y-100020476D01*
X64777857Y-100210952D01*
X64777857Y-100353810D01*
X64825476Y-100544286D01*
X64873095Y-100639524D01*
X64968333Y-100734762D01*
X65111191Y-100782381D01*
X65349286Y-100782381D01*
X64396905Y-100734762D02*
X64254048Y-100782381D01*
X64015952Y-100782381D01*
X63920714Y-100734762D01*
X63873095Y-100687143D01*
X63825476Y-100591905D01*
X63825476Y-100496667D01*
X63873095Y-100401429D01*
X63920714Y-100353810D01*
X64015952Y-100306190D01*
X64206429Y-100258571D01*
X64301667Y-100210952D01*
X64349286Y-100163333D01*
X64396905Y-100068095D01*
X64396905Y-99972857D01*
X64349286Y-99877619D01*
X64301667Y-99830000D01*
X64206429Y-99782381D01*
X63968333Y-99782381D01*
X63825476Y-99830000D01*
X63444524Y-99877619D02*
X63396905Y-99830000D01*
X63301667Y-99782381D01*
X63063571Y-99782381D01*
X62968333Y-99830000D01*
X62920714Y-99877619D01*
X62873095Y-99972857D01*
X62873095Y-100068095D01*
X62920714Y-100210952D01*
X63492143Y-100782381D01*
X62873095Y-100782381D01*
X65349286Y-89987381D02*
X65349286Y-88987381D01*
X65111191Y-88987381D01*
X64968333Y-89035000D01*
X64873095Y-89130238D01*
X64825476Y-89225476D01*
X64777857Y-89415952D01*
X64777857Y-89558810D01*
X64825476Y-89749286D01*
X64873095Y-89844524D01*
X64968333Y-89939762D01*
X65111191Y-89987381D01*
X65349286Y-89987381D01*
X64396905Y-89939762D02*
X64254048Y-89987381D01*
X64015952Y-89987381D01*
X63920714Y-89939762D01*
X63873095Y-89892143D01*
X63825476Y-89796905D01*
X63825476Y-89701667D01*
X63873095Y-89606429D01*
X63920714Y-89558810D01*
X64015952Y-89511190D01*
X64206429Y-89463571D01*
X64301667Y-89415952D01*
X64349286Y-89368333D01*
X64396905Y-89273095D01*
X64396905Y-89177857D01*
X64349286Y-89082619D01*
X64301667Y-89035000D01*
X64206429Y-88987381D01*
X63968333Y-88987381D01*
X63825476Y-89035000D01*
X62873095Y-89987381D02*
X63444524Y-89987381D01*
X63158810Y-89987381D02*
X63158810Y-88987381D01*
X63254048Y-89130238D01*
X63349286Y-89225476D01*
X63444524Y-89273095D01*
X89701666Y-86177381D02*
X90035000Y-85701190D01*
X90273095Y-86177381D02*
X90273095Y-85177381D01*
X89892142Y-85177381D01*
X89796904Y-85225000D01*
X89749285Y-85272619D01*
X89701666Y-85367857D01*
X89701666Y-85510714D01*
X89749285Y-85605952D01*
X89796904Y-85653571D01*
X89892142Y-85701190D01*
X90273095Y-85701190D01*
X89225476Y-86177381D02*
X89035000Y-86177381D01*
X88939761Y-86129762D01*
X88892142Y-86082143D01*
X88796904Y-85939286D01*
X88749285Y-85748810D01*
X88749285Y-85367857D01*
X88796904Y-85272619D01*
X88844523Y-85225000D01*
X88939761Y-85177381D01*
X89130238Y-85177381D01*
X89225476Y-85225000D01*
X89273095Y-85272619D01*
X89320714Y-85367857D01*
X89320714Y-85605952D01*
X89273095Y-85701190D01*
X89225476Y-85748810D01*
X89130238Y-85796429D01*
X88939761Y-85796429D01*
X88844523Y-85748810D01*
X88796904Y-85701190D01*
X88749285Y-85605952D01*
X72493095Y-55062381D02*
X72493095Y-54062381D01*
X72112142Y-54062381D01*
X72016904Y-54110000D01*
X71969285Y-54157619D01*
X71921666Y-54252857D01*
X71921666Y-54395714D01*
X71969285Y-54490952D01*
X72016904Y-54538571D01*
X72112142Y-54586190D01*
X72493095Y-54586190D01*
X71064523Y-54395714D02*
X71064523Y-55062381D01*
X71302619Y-54014762D02*
X71540714Y-54729048D01*
X70921666Y-54729048D01*
%LPC*%
D12*
X63500000Y-92925000D03*
X63500000Y-91225000D03*
X63500000Y-56935000D03*
X63500000Y-58635000D03*
X63500000Y-96940000D03*
X63500000Y-98640000D03*
X63500000Y-52920000D03*
X63500000Y-51220000D03*
D13*
X81280000Y-92710000D03*
X81280000Y-90170000D03*
X81280000Y-87630000D03*
X81280000Y-85090000D03*
X81280000Y-82550000D03*
X81280000Y-80010000D03*
X81280000Y-77470000D03*
X81280000Y-74930000D03*
X81280000Y-72390000D03*
X81280000Y-69850000D03*
X81280000Y-67310000D03*
X81280000Y-64770000D03*
X81280000Y-62230000D03*
X81280000Y-59690000D03*
X81280000Y-57150000D03*
D14*
X58420000Y-57150000D03*
X58420000Y-59690000D03*
X58420000Y-62230000D03*
X58420000Y-64770000D03*
X58420000Y-67310000D03*
X58420000Y-69850000D03*
X58420000Y-72390000D03*
X58420000Y-74930000D03*
X58420000Y-77470000D03*
X58420000Y-80010000D03*
X58420000Y-82550000D03*
X58420000Y-85090000D03*
X58420000Y-87630000D03*
X58420000Y-90170000D03*
X58420000Y-92710000D03*
D15*
X67945000Y-56515000D03*
D16*
X67945000Y-59055000D03*
D15*
X67945000Y-53340000D03*
D16*
X67945000Y-50800000D03*
D15*
X67945000Y-96520000D03*
D16*
X67945000Y-99060000D03*
D15*
X67945000Y-93345000D03*
D16*
X67945000Y-90805000D03*
D14*
X85725000Y-91440000D03*
X88265000Y-91440000D03*
X50165000Y-58420000D03*
X52705000Y-58420000D03*
D17*
X50320000Y-89535000D03*
D18*
X53820000Y-89535000D03*
D19*
X85090000Y-73680000D03*
X85090000Y-76180000D03*
X85090000Y-78680000D03*
X85090000Y-71180000D03*
X85090000Y-68680000D03*
X85090000Y-81180000D03*
X85090000Y-83680000D03*
X85090000Y-66180000D03*
D20*
X69590000Y-83180000D03*
X69590000Y-66680000D03*
D21*
X49890000Y-83430000D03*
X49890000Y-66430000D03*
D14*
X76835000Y-55245000D03*
X76835000Y-57785000D03*
X76835000Y-60325000D03*
X74295000Y-60325000D03*
X74295000Y-57785000D03*
X74295000Y-55245000D03*
M02*
