M48
;DRILL file {KiCad 4.0.1-stable} date 27/02/2016 21:34:45
;FORMAT={-:-/ absolute / inch / decimal}
FMAT,2
INCH,TZ
T1C0.024
T2C0.025
T3C0.031
T4C0.035
T5C0.039
T6C0.043
T7C0.047
T8C0.049
T9C0.102
T10C0.118
%
G90
G05
M72
T1
X1.9811Y-3.525
X2.1189Y-3.525
T2
X1.925Y-2.925
X2.Y-3.
X2.Y-3.05
X2.05Y-3.225
X2.1Y-2.675
X2.425Y-2.475
X2.55Y-2.85
X2.7Y-2.475
X2.725Y-3.125
X2.775Y-2.85
X2.775Y-3.025
X2.825Y-3.025
X2.875Y-2.9
X3.Y-3.725
X3.025Y-2.05
X3.075Y-3.25
X3.3Y-3.8
X3.475Y-3.45
T3
X2.675Y-2.
X2.675Y-2.1
X2.675Y-2.225
X2.675Y-2.325
X2.675Y-3.575
X2.675Y-3.675
X2.675Y-3.8
X2.675Y-3.9
T4
X1.975Y-2.3
X2.075Y-2.3
X3.375Y-3.6
X3.475Y-3.6
T5
X3.025Y-2.175
X3.025Y-2.275
T6
X2.3Y-2.25
X2.3Y-2.35
X2.3Y-2.45
X2.3Y-2.55
X2.3Y-2.65
X2.3Y-2.75
X2.3Y-2.85
X2.3Y-2.95
X2.3Y-3.05
X2.3Y-3.15
X2.3Y-3.25
X2.3Y-3.35
X2.3Y-3.45
X2.3Y-3.55
X2.3Y-3.65
X2.925Y-2.175
X2.925Y-2.275
X2.925Y-2.375
X3.025Y-2.375
T7
X3.2Y-2.25
X3.2Y-2.35
X3.2Y-2.45
X3.2Y-2.55
X3.2Y-2.65
X3.2Y-2.75
X3.2Y-2.85
X3.2Y-2.95
X3.2Y-3.05
X3.2Y-3.15
X3.2Y-3.25
X3.2Y-3.35
X3.2Y-3.45
X3.2Y-3.55
X3.2Y-3.65
T8
X1.9642Y-2.6154
X1.9642Y-3.2846
X3.35Y-2.6055
X3.35Y-2.7039
X3.35Y-2.8024
X3.35Y-2.9008
X3.35Y-2.9992
X3.35Y-3.0976
X3.35Y-3.1961
X3.35Y-3.2945
T9
X2.7398Y-2.6252
X2.7398Y-3.2748
T10
X1.975Y-2.025
X1.975Y-3.875
X3.475Y-2.025
X3.475Y-3.875
T0
M30
