G04 #@! TF.FileFunction,Copper,L2,Bot,Signal*
%FSLAX46Y46*%
G04 Gerber Fmt 4.6, Leading zero omitted, Abs format (unit mm)*
G04 Created by KiCad (PCBNEW 4.0.1-stable) date 27/02/2016 21:34:42*
%MOMM*%
G01*
G04 APERTURE LIST*
%ADD10C,0.150000*%
%ADD11R,0.950000X0.950000*%
%ADD12C,2.000000*%
%ADD13C,1.800000*%
%ADD14R,1.500000X1.500000*%
%ADD15C,1.500000*%
%ADD16C,1.000000*%
%ADD17R,1.000000X1.000000*%
%ADD18O,3.000000X1.800000*%
%ADD19C,4.000000*%
%ADD20C,2.500000*%
%ADD21C,0.889000*%
%ADD22C,0.500000*%
%ADD23C,0.254000*%
G04 APERTURE END LIST*
D10*
D11*
X63500000Y-92925000D03*
X63500000Y-91225000D03*
X63500000Y-56935000D03*
X63500000Y-58635000D03*
X63500000Y-96940000D03*
X63500000Y-98640000D03*
X63500000Y-52920000D03*
X63500000Y-51220000D03*
D12*
X81280000Y-92710000D03*
X81280000Y-90170000D03*
X81280000Y-87630000D03*
X81280000Y-85090000D03*
X81280000Y-82550000D03*
X81280000Y-80010000D03*
X81280000Y-77470000D03*
X81280000Y-74930000D03*
X81280000Y-72390000D03*
X81280000Y-69850000D03*
X81280000Y-67310000D03*
X81280000Y-64770000D03*
X81280000Y-62230000D03*
X81280000Y-59690000D03*
X81280000Y-57150000D03*
D13*
X58420000Y-57150000D03*
X58420000Y-59690000D03*
X58420000Y-62230000D03*
X58420000Y-64770000D03*
X58420000Y-67310000D03*
X58420000Y-69850000D03*
X58420000Y-72390000D03*
X58420000Y-74930000D03*
X58420000Y-77470000D03*
X58420000Y-80010000D03*
X58420000Y-82550000D03*
X58420000Y-85090000D03*
X58420000Y-87630000D03*
X58420000Y-90170000D03*
X58420000Y-92710000D03*
D14*
X67945000Y-56515000D03*
D15*
X67945000Y-59055000D03*
D14*
X67945000Y-53340000D03*
D15*
X67945000Y-50800000D03*
D14*
X67945000Y-96520000D03*
D15*
X67945000Y-99060000D03*
D14*
X67945000Y-93345000D03*
D15*
X67945000Y-90805000D03*
D13*
X85725000Y-91440000D03*
X88265000Y-91440000D03*
X50165000Y-58420000D03*
X52705000Y-58420000D03*
D16*
X50320000Y-89535000D03*
D17*
X53820000Y-89535000D03*
D18*
X85090000Y-73680000D03*
X85090000Y-76180000D03*
X85090000Y-78680000D03*
X85090000Y-71180000D03*
X85090000Y-68680000D03*
X85090000Y-81180000D03*
X85090000Y-83680000D03*
X85090000Y-66180000D03*
D19*
X69590000Y-83180000D03*
X69590000Y-66680000D03*
D20*
X49890000Y-83430000D03*
X49890000Y-66430000D03*
D13*
X76835000Y-55245000D03*
X76835000Y-57785000D03*
X76835000Y-60325000D03*
X74295000Y-60325000D03*
X74295000Y-57785000D03*
X74295000Y-55245000D03*
D16*
X52070000Y-81915000D03*
X73025000Y-73660000D03*
D21*
X61595000Y-62865000D03*
X68580000Y-62865000D03*
X76835000Y-52070000D03*
X78105000Y-82550000D03*
X48895000Y-74295000D03*
X53340000Y-67945000D03*
X76200000Y-94615000D03*
X88265000Y-87630000D03*
X83820000Y-96520000D03*
X50800000Y-76200000D03*
X50800000Y-77470000D03*
X69215000Y-79375000D03*
X71755000Y-76835000D03*
X64770000Y-72390000D03*
X70485000Y-72390000D03*
X70485000Y-76835000D03*
D22*
X52070000Y-88900000D02*
X52070000Y-88265000D01*
X52070000Y-81915000D02*
X52070000Y-88265000D01*
X52070000Y-88900000D02*
X51435000Y-89535000D01*
X50320000Y-89535000D02*
X51435000Y-89535000D01*
X78740000Y-57785000D02*
X79375000Y-58420000D01*
X76200000Y-70485000D02*
X73025000Y-73660000D01*
X76200000Y-63500000D02*
X76200000Y-70485000D01*
X79375000Y-60325000D02*
X76200000Y-63500000D01*
X79375000Y-58420000D02*
X79375000Y-60325000D01*
X76835000Y-57785000D02*
X78740000Y-57785000D01*
X81280000Y-57150000D02*
X79375000Y-57150000D01*
X79375000Y-57150000D02*
X78740000Y-57785000D01*
D23*
X76835000Y-55245000D02*
X76835000Y-52070000D01*
X68580000Y-62865000D02*
X61595000Y-62865000D01*
X81280000Y-67310000D02*
X83185000Y-65405000D01*
X88900000Y-72430000D02*
X87650000Y-73680000D01*
X88900000Y-65405000D02*
X88900000Y-72430000D01*
X87630000Y-64135000D02*
X88900000Y-65405000D01*
X83820000Y-64135000D02*
X87630000Y-64135000D01*
X83185000Y-64770000D02*
X83820000Y-64135000D01*
X83185000Y-65405000D02*
X83185000Y-64770000D01*
X85090000Y-73680000D02*
X87650000Y-73680000D01*
X87730000Y-81180000D02*
X85090000Y-81180000D01*
X88900000Y-80010000D02*
X87730000Y-81180000D01*
X88900000Y-74930000D02*
X88900000Y-80010000D01*
X87650000Y-73680000D02*
X88900000Y-74930000D01*
X53820000Y-89535000D02*
X53820000Y-90015000D01*
X53820000Y-90015000D02*
X54610000Y-90805000D01*
D22*
X53820000Y-89380000D02*
X53820000Y-89535000D01*
D23*
X56515000Y-55245000D02*
X56515000Y-57150000D01*
X56515000Y-55245000D02*
X57785000Y-53975000D01*
X59690000Y-52070000D02*
X58840000Y-52920000D01*
X57785000Y-53975000D02*
X58840000Y-52920000D01*
X55245000Y-58420000D02*
X52705000Y-58420000D01*
X56515000Y-57150000D02*
X55245000Y-58420000D01*
X76200000Y-84455000D02*
X76200000Y-94615000D01*
X78105000Y-82550000D02*
X76200000Y-84455000D01*
X58420000Y-77470000D02*
X53975000Y-77470000D01*
X50800000Y-74295000D02*
X53975000Y-77470000D01*
X50800000Y-74295000D02*
X48895000Y-74295000D01*
X81280000Y-59690000D02*
X79375000Y-61595000D01*
X79375000Y-67945000D02*
X81280000Y-69850000D01*
X79375000Y-61595000D02*
X79375000Y-67945000D01*
X55245000Y-59690000D02*
X58420000Y-59690000D01*
X53340000Y-61595000D02*
X55245000Y-59690000D01*
X53340000Y-67945000D02*
X53340000Y-61595000D01*
X54610000Y-90960000D02*
X54610000Y-92710000D01*
X56515000Y-94615000D02*
X63500000Y-94615000D01*
X54610000Y-92710000D02*
X56515000Y-94615000D01*
X83820000Y-96520000D02*
X78105000Y-96520000D01*
X78105000Y-96520000D02*
X76200000Y-94615000D01*
X74295000Y-55245000D02*
X74295000Y-50165000D01*
X60540000Y-52920000D02*
X63500000Y-52920000D01*
X59690000Y-52070000D02*
X60540000Y-52920000D01*
X59690000Y-49530000D02*
X59690000Y-52070000D01*
X60325000Y-48895000D02*
X59690000Y-49530000D01*
X73025000Y-48895000D02*
X60325000Y-48895000D01*
X74295000Y-50165000D02*
X73025000Y-48895000D01*
X88265000Y-87630000D02*
X88265000Y-91440000D01*
X88265000Y-93980000D02*
X88265000Y-91440000D01*
X85725000Y-96520000D02*
X88265000Y-93980000D01*
X83820000Y-96520000D02*
X85725000Y-96520000D01*
X63500000Y-92925000D02*
X63500000Y-94615000D01*
X63500000Y-94615000D02*
X63500000Y-95250000D01*
X63500000Y-95250000D02*
X63500000Y-96940000D01*
X58420000Y-59690000D02*
X60325000Y-59690000D01*
X60325000Y-59690000D02*
X60960000Y-59055000D01*
X60960000Y-59055000D02*
X60960000Y-57785000D01*
X60960000Y-57785000D02*
X61810000Y-56935000D01*
X61810000Y-56935000D02*
X63500000Y-56935000D01*
X63500000Y-56935000D02*
X63500000Y-52920000D01*
X56515000Y-87630000D02*
X58420000Y-87630000D01*
X55245000Y-86360000D02*
X56515000Y-87630000D01*
X55245000Y-80645000D02*
X55245000Y-86360000D01*
X50800000Y-76200000D02*
X55245000Y-80645000D01*
X58420000Y-90170000D02*
X56515000Y-90170000D01*
X50800000Y-78105000D02*
X50800000Y-77470000D01*
X54610000Y-81915000D02*
X50800000Y-78105000D01*
X54610000Y-88265000D02*
X54610000Y-81915000D01*
X56515000Y-90170000D02*
X54610000Y-88265000D01*
X71755000Y-76835000D02*
X69215000Y-79375000D01*
X74295000Y-57785000D02*
X72390000Y-59690000D01*
X61595000Y-67310000D02*
X58420000Y-67310000D01*
X64135000Y-69850000D02*
X61595000Y-67310000D01*
X72390000Y-69850000D02*
X64135000Y-69850000D01*
X73660000Y-68580000D02*
X72390000Y-69850000D01*
X73660000Y-62230000D02*
X73660000Y-68580000D01*
X72390000Y-60960000D02*
X73660000Y-62230000D01*
X72390000Y-59690000D02*
X72390000Y-60960000D01*
X63500000Y-98640000D02*
X65825000Y-98640000D01*
X65825000Y-98640000D02*
X67945000Y-96520000D01*
X63500000Y-51220000D02*
X65825000Y-51220000D01*
X65825000Y-51220000D02*
X67945000Y-53340000D01*
X64770000Y-87630000D02*
X67945000Y-90805000D01*
X64770000Y-72390000D02*
X64770000Y-87630000D01*
X50165000Y-58420000D02*
X50165000Y-60325000D01*
X50165000Y-60325000D02*
X52070000Y-62230000D01*
X52070000Y-72390000D02*
X52070000Y-62230000D01*
X52070000Y-72390000D02*
X54610000Y-74930000D01*
X58420000Y-74930000D02*
X54610000Y-74930000D01*
X63500000Y-91225000D02*
X65825000Y-91225000D01*
X65825000Y-91225000D02*
X67945000Y-93345000D01*
X63500000Y-58635000D02*
X65825000Y-58635000D01*
X65825000Y-58635000D02*
X67945000Y-56515000D01*
X70485000Y-76835000D02*
X70485000Y-72390000D01*
X70485000Y-76835000D02*
X68580000Y-76835000D01*
X69850000Y-97155000D02*
X67945000Y-99060000D01*
X69850000Y-90170000D02*
X69850000Y-97155000D01*
X65405000Y-85725000D02*
X69850000Y-90170000D01*
X65405000Y-80010000D02*
X65405000Y-85725000D01*
X68580000Y-76835000D02*
X65405000Y-80010000D01*
X74930000Y-65405000D02*
X74930000Y-62230000D01*
X62230000Y-72390000D02*
X63500000Y-71120000D01*
X63500000Y-71120000D02*
X73660000Y-71120000D01*
X73660000Y-71120000D02*
X74930000Y-69850000D01*
X74930000Y-69850000D02*
X74930000Y-65405000D01*
X58420000Y-72390000D02*
X62230000Y-72390000D01*
X74930000Y-62230000D02*
X76835000Y-60325000D01*
X74295000Y-60325000D02*
X74295000Y-62230000D01*
X62865000Y-69850000D02*
X58420000Y-69850000D01*
X63500000Y-70485000D02*
X62865000Y-69850000D01*
X73025000Y-70485000D02*
X63500000Y-70485000D01*
X74295000Y-69215000D02*
X73025000Y-70485000D01*
X74295000Y-62230000D02*
X74295000Y-69215000D01*
X74295000Y-62230000D02*
X74295000Y-62230000D01*
G36*
X89703848Y-48859339D02*
X90385317Y-49314683D01*
X90840661Y-49996152D01*
X91009000Y-50842448D01*
X91009000Y-99017552D01*
X90840661Y-99863848D01*
X90385317Y-100545317D01*
X89703848Y-101000661D01*
X88857552Y-101169000D01*
X49572448Y-101169000D01*
X48726152Y-101000661D01*
X48044683Y-100545317D01*
X47589339Y-99863848D01*
X47421000Y-99017552D01*
X47421000Y-98797513D01*
X48283674Y-98797513D01*
X48569436Y-99489109D01*
X49098108Y-100018704D01*
X49789204Y-100305673D01*
X50537513Y-100306326D01*
X51229109Y-100020564D01*
X51758704Y-99491892D01*
X52045673Y-98800796D01*
X52046326Y-98052487D01*
X51760564Y-97360891D01*
X51231892Y-96831296D01*
X50540796Y-96544327D01*
X49792487Y-96543674D01*
X49100891Y-96829436D01*
X48571296Y-97358108D01*
X48284327Y-98049204D01*
X48283674Y-98797513D01*
X47421000Y-98797513D01*
X47421000Y-96338691D01*
X62390000Y-96338691D01*
X62390000Y-96543750D01*
X62548750Y-96702500D01*
X63262500Y-96702500D01*
X63262500Y-95988750D01*
X63737500Y-95988750D01*
X63737500Y-96702500D01*
X64451250Y-96702500D01*
X64610000Y-96543750D01*
X64610000Y-96338691D01*
X64513327Y-96105302D01*
X64334699Y-95926673D01*
X64101310Y-95830000D01*
X63896250Y-95830000D01*
X63737500Y-95988750D01*
X63262500Y-95988750D01*
X63103750Y-95830000D01*
X62898690Y-95830000D01*
X62665301Y-95926673D01*
X62486673Y-96105302D01*
X62390000Y-96338691D01*
X47421000Y-96338691D01*
X47421000Y-83753003D01*
X48258718Y-83753003D01*
X48506499Y-84352680D01*
X48964907Y-84811888D01*
X49564151Y-85060716D01*
X50213003Y-85061282D01*
X50812680Y-84813501D01*
X51271888Y-84355093D01*
X51439000Y-83952643D01*
X51439000Y-88638631D01*
X51173632Y-88904000D01*
X50934937Y-88904000D01*
X50819698Y-88788560D01*
X50496011Y-88654153D01*
X50145527Y-88653847D01*
X49821605Y-88787689D01*
X49573560Y-89035302D01*
X49439153Y-89358989D01*
X49438847Y-89709473D01*
X49572689Y-90033395D01*
X49820302Y-90281440D01*
X50143989Y-90415847D01*
X50494473Y-90416153D01*
X50818395Y-90282311D01*
X50934909Y-90166000D01*
X51435000Y-90166000D01*
X51676473Y-90117968D01*
X51881184Y-89981184D01*
X51918618Y-89943750D01*
X52685000Y-89943750D01*
X52685000Y-90161310D01*
X52781673Y-90394699D01*
X52960302Y-90573327D01*
X53193691Y-90670000D01*
X53411250Y-90670000D01*
X53570000Y-90511250D01*
X53570000Y-89785000D01*
X54070000Y-89785000D01*
X54070000Y-90511250D01*
X54228750Y-90670000D01*
X54446309Y-90670000D01*
X54679698Y-90573327D01*
X54858327Y-90394699D01*
X54955000Y-90161310D01*
X54955000Y-89943750D01*
X54796250Y-89785000D01*
X54070000Y-89785000D01*
X53570000Y-89785000D01*
X52843750Y-89785000D01*
X52685000Y-89943750D01*
X51918618Y-89943750D01*
X52516185Y-89346184D01*
X52652968Y-89141473D01*
X52685000Y-88980437D01*
X52685000Y-89126250D01*
X52843750Y-89285000D01*
X53570000Y-89285000D01*
X53570000Y-88558750D01*
X53411250Y-88400000D01*
X53193691Y-88400000D01*
X52960302Y-88496673D01*
X52781673Y-88675301D01*
X52701000Y-88870063D01*
X52701000Y-82529937D01*
X52816440Y-82414698D01*
X52950847Y-82091011D01*
X52951153Y-81740527D01*
X52817311Y-81416605D01*
X52569698Y-81168560D01*
X52246011Y-81034153D01*
X51895527Y-81033847D01*
X51571605Y-81167689D01*
X51323560Y-81415302D01*
X51189153Y-81738989D01*
X51188847Y-82089473D01*
X51322689Y-82413395D01*
X51439000Y-82529909D01*
X51439000Y-82907859D01*
X51273501Y-82507320D01*
X50815093Y-82048112D01*
X50215849Y-81799284D01*
X49566997Y-81798718D01*
X48967320Y-82046499D01*
X48508112Y-82504907D01*
X48259284Y-83104151D01*
X48258718Y-83753003D01*
X47421000Y-83753003D01*
X47421000Y-76363482D01*
X49974357Y-76363482D01*
X50099767Y-76666998D01*
X50267566Y-76835089D01*
X50100583Y-77001781D01*
X49974643Y-77305077D01*
X49974357Y-77633482D01*
X50099767Y-77936998D01*
X50298103Y-78135680D01*
X50330669Y-78299403D01*
X50440790Y-78464210D01*
X54102000Y-82125420D01*
X54102000Y-88265000D01*
X54140669Y-88459403D01*
X54152156Y-88476594D01*
X54070000Y-88558750D01*
X54070000Y-89285000D01*
X54796250Y-89285000D01*
X54853915Y-89227335D01*
X56155790Y-90529210D01*
X56320597Y-90639331D01*
X56515000Y-90678000D01*
X57243857Y-90678000D01*
X57333388Y-90894680D01*
X57693425Y-91255345D01*
X58138636Y-91440213D01*
X57695320Y-91623388D01*
X57334655Y-91983425D01*
X57139223Y-92454076D01*
X57138778Y-92963689D01*
X57333388Y-93434680D01*
X57693425Y-93795345D01*
X58164076Y-93990777D01*
X58673689Y-93991222D01*
X59144680Y-93796612D01*
X59505345Y-93436575D01*
X59553232Y-93321250D01*
X62390000Y-93321250D01*
X62390000Y-93526309D01*
X62486673Y-93759698D01*
X62665301Y-93938327D01*
X62898690Y-94035000D01*
X63103750Y-94035000D01*
X63262500Y-93876250D01*
X63262500Y-93162500D01*
X63737500Y-93162500D01*
X63737500Y-93876250D01*
X63896250Y-94035000D01*
X64101310Y-94035000D01*
X64334699Y-93938327D01*
X64513327Y-93759698D01*
X64610000Y-93526309D01*
X64610000Y-93321250D01*
X64451250Y-93162500D01*
X63737500Y-93162500D01*
X63262500Y-93162500D01*
X62548750Y-93162500D01*
X62390000Y-93321250D01*
X59553232Y-93321250D01*
X59700777Y-92965924D01*
X59701222Y-92456311D01*
X59646425Y-92323691D01*
X62390000Y-92323691D01*
X62390000Y-92528750D01*
X62548750Y-92687500D01*
X63262500Y-92687500D01*
X63262500Y-92532000D01*
X63737500Y-92532000D01*
X63737500Y-92687500D01*
X64451250Y-92687500D01*
X64610000Y-92528750D01*
X64610000Y-92323691D01*
X64513327Y-92090302D01*
X64334699Y-91911673D01*
X64301025Y-91897725D01*
X64332859Y-91851134D01*
X64356781Y-91733000D01*
X65614580Y-91733000D01*
X66806536Y-92924956D01*
X66806536Y-94095000D01*
X66833103Y-94236190D01*
X66916546Y-94365865D01*
X67043866Y-94452859D01*
X67195000Y-94483464D01*
X68695000Y-94483464D01*
X68836190Y-94456897D01*
X68965865Y-94373454D01*
X69052859Y-94246134D01*
X69083464Y-94095000D01*
X69083464Y-92595000D01*
X69056897Y-92453810D01*
X68973454Y-92324135D01*
X68846134Y-92237141D01*
X68695000Y-92206536D01*
X67524956Y-92206536D01*
X66184210Y-90865790D01*
X66019403Y-90755669D01*
X65825000Y-90717000D01*
X64357255Y-90717000D01*
X64336897Y-90608810D01*
X64253454Y-90479135D01*
X64126134Y-90392141D01*
X63975000Y-90361536D01*
X63025000Y-90361536D01*
X62883810Y-90388103D01*
X62754135Y-90471546D01*
X62667141Y-90598866D01*
X62636536Y-90750000D01*
X62636536Y-91700000D01*
X62663103Y-91841190D01*
X62699375Y-91897559D01*
X62665301Y-91911673D01*
X62486673Y-92090302D01*
X62390000Y-92323691D01*
X59646425Y-92323691D01*
X59506612Y-91985320D01*
X59146575Y-91624655D01*
X58701364Y-91439787D01*
X59144680Y-91256612D01*
X59505345Y-90896575D01*
X59700777Y-90425924D01*
X59701222Y-89916311D01*
X59506612Y-89445320D01*
X59146575Y-89084655D01*
X58701364Y-88899787D01*
X59144680Y-88716612D01*
X59505345Y-88356575D01*
X59700777Y-87885924D01*
X59701222Y-87376311D01*
X59506612Y-86905320D01*
X59146575Y-86544655D01*
X58701364Y-86359787D01*
X59144680Y-86176612D01*
X59505345Y-85816575D01*
X59700777Y-85345924D01*
X59701222Y-84836311D01*
X59506612Y-84365320D01*
X59146575Y-84004655D01*
X58701364Y-83819787D01*
X59144680Y-83636612D01*
X59505345Y-83276575D01*
X59700777Y-82805924D01*
X59701222Y-82296311D01*
X59506612Y-81825320D01*
X59146575Y-81464655D01*
X58701364Y-81279787D01*
X59144680Y-81096612D01*
X59505345Y-80736575D01*
X59700777Y-80265924D01*
X59701222Y-79756311D01*
X59506612Y-79285320D01*
X59146575Y-78924655D01*
X59030966Y-78876650D01*
X59115053Y-78692555D01*
X58420000Y-77997502D01*
X57724947Y-78692555D01*
X57808939Y-78876442D01*
X57695320Y-78923388D01*
X57334655Y-79283425D01*
X57139223Y-79754076D01*
X57138778Y-80263689D01*
X57333388Y-80734680D01*
X57693425Y-81095345D01*
X58138636Y-81280213D01*
X57695320Y-81463388D01*
X57334655Y-81823425D01*
X57139223Y-82294076D01*
X57138778Y-82803689D01*
X57333388Y-83274680D01*
X57693425Y-83635345D01*
X58138636Y-83820213D01*
X57695320Y-84003388D01*
X57334655Y-84363425D01*
X57139223Y-84834076D01*
X57138778Y-85343689D01*
X57333388Y-85814680D01*
X57693425Y-86175345D01*
X58138636Y-86360213D01*
X57695320Y-86543388D01*
X57334655Y-86903425D01*
X57243894Y-87122000D01*
X56725420Y-87122000D01*
X55753000Y-86149580D01*
X55753000Y-80645000D01*
X55714331Y-80450597D01*
X55714331Y-80450596D01*
X55604210Y-80285790D01*
X52796283Y-77477863D01*
X56854948Y-77477863D01*
X56971071Y-78061655D01*
X57197445Y-78165053D01*
X57892498Y-77470000D01*
X58947502Y-77470000D01*
X59642555Y-78165053D01*
X59868929Y-78061655D01*
X59985052Y-77462137D01*
X59868929Y-76878345D01*
X59642555Y-76774947D01*
X58947502Y-77470000D01*
X57892498Y-77470000D01*
X57197445Y-76774947D01*
X56971071Y-76878345D01*
X56854948Y-77477863D01*
X52796283Y-77477863D01*
X51625407Y-76306987D01*
X51625643Y-76036518D01*
X51500233Y-75733002D01*
X51268219Y-75500583D01*
X50964923Y-75374643D01*
X50636518Y-75374357D01*
X50333002Y-75499767D01*
X50100583Y-75731781D01*
X49974643Y-76035077D01*
X49974357Y-76363482D01*
X47421000Y-76363482D01*
X47421000Y-66753003D01*
X48258718Y-66753003D01*
X48506499Y-67352680D01*
X48964907Y-67811888D01*
X49564151Y-68060716D01*
X50213003Y-68061282D01*
X50812680Y-67813501D01*
X51271888Y-67355093D01*
X51520716Y-66755849D01*
X51521282Y-66106997D01*
X51273501Y-65507320D01*
X50815093Y-65048112D01*
X50215849Y-64799284D01*
X49566997Y-64798718D01*
X48967320Y-65046499D01*
X48508112Y-65504907D01*
X48259284Y-66104151D01*
X48258718Y-66753003D01*
X47421000Y-66753003D01*
X47421000Y-58673689D01*
X48883778Y-58673689D01*
X49078388Y-59144680D01*
X49438425Y-59505345D01*
X49657000Y-59596106D01*
X49657000Y-60325000D01*
X49695669Y-60519403D01*
X49805790Y-60684210D01*
X51562000Y-62440420D01*
X51562000Y-72390000D01*
X51600669Y-72584403D01*
X51710790Y-72749210D01*
X54250789Y-75289210D01*
X54360910Y-75362790D01*
X54415597Y-75399331D01*
X54610000Y-75438000D01*
X57243857Y-75438000D01*
X57333388Y-75654680D01*
X57693425Y-76015345D01*
X57809034Y-76063350D01*
X57724947Y-76247445D01*
X58420000Y-76942498D01*
X59115053Y-76247445D01*
X59031061Y-76063558D01*
X59144680Y-76016612D01*
X59505345Y-75656575D01*
X59700777Y-75185924D01*
X59701222Y-74676311D01*
X59506612Y-74205320D01*
X59146575Y-73844655D01*
X58701364Y-73659787D01*
X59144680Y-73476612D01*
X59505345Y-73116575D01*
X59596106Y-72898000D01*
X62230000Y-72898000D01*
X62424403Y-72859331D01*
X62589210Y-72749210D01*
X63710420Y-71628000D01*
X64452490Y-71628000D01*
X64303002Y-71689767D01*
X64070583Y-71921781D01*
X63944643Y-72225077D01*
X63944357Y-72553482D01*
X64069767Y-72856998D01*
X64262000Y-73049567D01*
X64262000Y-87630000D01*
X64300669Y-87824403D01*
X64410790Y-87989210D01*
X66868895Y-90447315D01*
X66814196Y-90579043D01*
X66813804Y-91028983D01*
X66985625Y-91444823D01*
X67303503Y-91763256D01*
X67719043Y-91935804D01*
X68168983Y-91936196D01*
X68584823Y-91764375D01*
X68903256Y-91446497D01*
X69075804Y-91030957D01*
X69076196Y-90581017D01*
X68904375Y-90165177D01*
X68586497Y-89846744D01*
X68170957Y-89674196D01*
X67721017Y-89673804D01*
X67587424Y-89729004D01*
X65278000Y-87419580D01*
X65278000Y-86316420D01*
X69342000Y-90380420D01*
X69342000Y-96944580D01*
X69083464Y-97203116D01*
X69083464Y-95770000D01*
X69056897Y-95628810D01*
X68973454Y-95499135D01*
X68846134Y-95412141D01*
X68695000Y-95381536D01*
X67195000Y-95381536D01*
X67053810Y-95408103D01*
X66924135Y-95491546D01*
X66837141Y-95618866D01*
X66806536Y-95770000D01*
X66806536Y-96940044D01*
X65614580Y-98132000D01*
X64357255Y-98132000D01*
X64336897Y-98023810D01*
X64300625Y-97967441D01*
X64334699Y-97953327D01*
X64513327Y-97774698D01*
X64610000Y-97541309D01*
X64610000Y-97336250D01*
X64451250Y-97177500D01*
X63737500Y-97177500D01*
X63737500Y-97333000D01*
X63262500Y-97333000D01*
X63262500Y-97177500D01*
X62548750Y-97177500D01*
X62390000Y-97336250D01*
X62390000Y-97541309D01*
X62486673Y-97774698D01*
X62665301Y-97953327D01*
X62698975Y-97967275D01*
X62667141Y-98013866D01*
X62636536Y-98165000D01*
X62636536Y-99115000D01*
X62663103Y-99256190D01*
X62746546Y-99385865D01*
X62873866Y-99472859D01*
X63025000Y-99503464D01*
X63975000Y-99503464D01*
X64116190Y-99476897D01*
X64245865Y-99393454D01*
X64332859Y-99266134D01*
X64356781Y-99148000D01*
X65825000Y-99148000D01*
X66019403Y-99109331D01*
X66184210Y-98999210D01*
X67524956Y-97658464D01*
X68628116Y-97658464D01*
X68302685Y-97983895D01*
X68170957Y-97929196D01*
X67721017Y-97928804D01*
X67305177Y-98100625D01*
X66986744Y-98418503D01*
X66814196Y-98834043D01*
X66813804Y-99283983D01*
X66985625Y-99699823D01*
X67303503Y-100018256D01*
X67719043Y-100190804D01*
X68168983Y-100191196D01*
X68584823Y-100019375D01*
X68903256Y-99701497D01*
X69075804Y-99285957D01*
X69076196Y-98836017D01*
X69060287Y-98797513D01*
X86383674Y-98797513D01*
X86669436Y-99489109D01*
X87198108Y-100018704D01*
X87889204Y-100305673D01*
X88637513Y-100306326D01*
X89329109Y-100020564D01*
X89858704Y-99491892D01*
X90145673Y-98800796D01*
X90146326Y-98052487D01*
X89860564Y-97360891D01*
X89331892Y-96831296D01*
X88640796Y-96544327D01*
X87892487Y-96543674D01*
X87200891Y-96829436D01*
X86671296Y-97358108D01*
X86384327Y-98049204D01*
X86383674Y-98797513D01*
X69060287Y-98797513D01*
X69020996Y-98702424D01*
X70209210Y-97514210D01*
X70319331Y-97349403D01*
X70358000Y-97155000D01*
X70358000Y-90170000D01*
X70319331Y-89975597D01*
X70319331Y-89975596D01*
X70209210Y-89810790D01*
X65913000Y-85514580D01*
X65913000Y-83651532D01*
X67208587Y-83651532D01*
X67570309Y-84526966D01*
X68239511Y-85197337D01*
X69114312Y-85560586D01*
X70061532Y-85561413D01*
X70936966Y-85199691D01*
X71607337Y-84530489D01*
X71970586Y-83655688D01*
X71971413Y-82708468D01*
X71609691Y-81833034D01*
X70940489Y-81162663D01*
X70065688Y-80799414D01*
X69118468Y-80798587D01*
X68243034Y-81160309D01*
X67572663Y-81829511D01*
X67209414Y-82704312D01*
X67208587Y-83651532D01*
X65913000Y-83651532D01*
X65913000Y-80220420D01*
X68790420Y-77343000D01*
X69825698Y-77343000D01*
X70016781Y-77534417D01*
X70243161Y-77628419D01*
X69321987Y-78549593D01*
X69051518Y-78549357D01*
X68748002Y-78674767D01*
X68515583Y-78906781D01*
X68389643Y-79210077D01*
X68389357Y-79538482D01*
X68514767Y-79841998D01*
X68746781Y-80074417D01*
X69050077Y-80200357D01*
X69378482Y-80200643D01*
X69681998Y-80075233D01*
X69914417Y-79843219D01*
X70040357Y-79539923D01*
X70040594Y-79267826D01*
X71648013Y-77660407D01*
X71918482Y-77660643D01*
X72221998Y-77535233D01*
X72454417Y-77303219D01*
X72580357Y-76999923D01*
X72580643Y-76671518D01*
X72455233Y-76368002D01*
X72223219Y-76135583D01*
X71919923Y-76009643D01*
X71591518Y-76009357D01*
X71288002Y-76134767D01*
X71119911Y-76302566D01*
X70993000Y-76175433D01*
X70993000Y-73049302D01*
X71184417Y-72858219D01*
X71310357Y-72554923D01*
X71310643Y-72226518D01*
X71185233Y-71923002D01*
X70953219Y-71690583D01*
X70802503Y-71628000D01*
X73660000Y-71628000D01*
X73854403Y-71589331D01*
X74019210Y-71479210D01*
X75289210Y-70209210D01*
X75399331Y-70044404D01*
X75427650Y-69902032D01*
X75438000Y-69850000D01*
X75438000Y-62440420D01*
X76362552Y-61515868D01*
X76579076Y-61605777D01*
X77088689Y-61606222D01*
X77280781Y-61526851D01*
X75753816Y-63053816D01*
X75617032Y-63258527D01*
X75569000Y-63500000D01*
X75569000Y-70223632D01*
X73013643Y-72778989D01*
X72850527Y-72778847D01*
X72526605Y-72912689D01*
X72278560Y-73160302D01*
X72144153Y-73483989D01*
X72143847Y-73834473D01*
X72277689Y-74158395D01*
X72525302Y-74406440D01*
X72848989Y-74540847D01*
X73199473Y-74541153D01*
X73523395Y-74407311D01*
X73771440Y-74159698D01*
X73905847Y-73836011D01*
X73905991Y-73671377D01*
X74913875Y-72663493D01*
X79898761Y-72663493D01*
X80108563Y-73171251D01*
X80496705Y-73560072D01*
X80737324Y-73659985D01*
X80498749Y-73758563D01*
X80109928Y-74146705D01*
X79899241Y-74654097D01*
X79898761Y-75203493D01*
X80108563Y-75711251D01*
X80496705Y-76100072D01*
X80737324Y-76199985D01*
X80498749Y-76298563D01*
X80109928Y-76686705D01*
X79899241Y-77194097D01*
X79898761Y-77743493D01*
X80108563Y-78251251D01*
X80496705Y-78640072D01*
X80737324Y-78739985D01*
X80498749Y-78838563D01*
X80109928Y-79226705D01*
X79899241Y-79734097D01*
X79898761Y-80283493D01*
X80108563Y-80791251D01*
X80496705Y-81180072D01*
X80737324Y-81279985D01*
X80498749Y-81378563D01*
X80109928Y-81766705D01*
X79899241Y-82274097D01*
X79898761Y-82823493D01*
X80108563Y-83331251D01*
X80496705Y-83720072D01*
X80737324Y-83819985D01*
X80498749Y-83918563D01*
X80109928Y-84306705D01*
X79899241Y-84814097D01*
X79898761Y-85363493D01*
X80108563Y-85871251D01*
X80496705Y-86260072D01*
X80737324Y-86359985D01*
X80498749Y-86458563D01*
X80109928Y-86846705D01*
X79899241Y-87354097D01*
X79898761Y-87903493D01*
X80108563Y-88411251D01*
X80496705Y-88800072D01*
X80737324Y-88899985D01*
X80498749Y-88998563D01*
X80109928Y-89386705D01*
X79899241Y-89894097D01*
X79898761Y-90443493D01*
X80108563Y-90951251D01*
X80496705Y-91340072D01*
X80737324Y-91439985D01*
X80498749Y-91538563D01*
X80109928Y-91926705D01*
X79899241Y-92434097D01*
X79898761Y-92983493D01*
X80108563Y-93491251D01*
X80496705Y-93880072D01*
X81004097Y-94090759D01*
X81553493Y-94091239D01*
X82061251Y-93881437D01*
X82450072Y-93493295D01*
X82660759Y-92985903D01*
X82661239Y-92436507D01*
X82451437Y-91928749D01*
X82216788Y-91693689D01*
X84443778Y-91693689D01*
X84638388Y-92164680D01*
X84998425Y-92525345D01*
X85469076Y-92720777D01*
X85978689Y-92721222D01*
X86120673Y-92662555D01*
X87569947Y-92662555D01*
X87673345Y-92888929D01*
X88272863Y-93005052D01*
X88856655Y-92888929D01*
X88960053Y-92662555D01*
X88265000Y-91967502D01*
X87569947Y-92662555D01*
X86120673Y-92662555D01*
X86449680Y-92526612D01*
X86810345Y-92166575D01*
X86858350Y-92050966D01*
X87042445Y-92135053D01*
X87737498Y-91440000D01*
X88792502Y-91440000D01*
X89487555Y-92135053D01*
X89713929Y-92031655D01*
X89830052Y-91432137D01*
X89713929Y-90848345D01*
X89487555Y-90744947D01*
X88792502Y-91440000D01*
X87737498Y-91440000D01*
X87042445Y-90744947D01*
X86858558Y-90828939D01*
X86811612Y-90715320D01*
X86451575Y-90354655D01*
X86121138Y-90217445D01*
X87569947Y-90217445D01*
X88265000Y-90912498D01*
X88960053Y-90217445D01*
X88856655Y-89991071D01*
X88257137Y-89874948D01*
X87673345Y-89991071D01*
X87569947Y-90217445D01*
X86121138Y-90217445D01*
X85980924Y-90159223D01*
X85471311Y-90158778D01*
X85000320Y-90353388D01*
X84639655Y-90713425D01*
X84444223Y-91184076D01*
X84443778Y-91693689D01*
X82216788Y-91693689D01*
X82063295Y-91539928D01*
X81822676Y-91440015D01*
X82061251Y-91341437D01*
X82450072Y-90953295D01*
X82660759Y-90445903D01*
X82661239Y-89896507D01*
X82451437Y-89388749D01*
X82063295Y-88999928D01*
X81822676Y-88900015D01*
X82061251Y-88801437D01*
X82450072Y-88413295D01*
X82660759Y-87905903D01*
X82661239Y-87356507D01*
X82451437Y-86848749D01*
X82063295Y-86459928D01*
X81822676Y-86360015D01*
X82061251Y-86261437D01*
X82450072Y-85873295D01*
X82660759Y-85365903D01*
X82661239Y-84816507D01*
X82451437Y-84308749D01*
X82063295Y-83919928D01*
X81822676Y-83820015D01*
X82061251Y-83721437D01*
X82450072Y-83333295D01*
X82660759Y-82825903D01*
X82661239Y-82276507D01*
X82451437Y-81768749D01*
X82063295Y-81379928D01*
X81822676Y-81280015D01*
X82061251Y-81181437D01*
X82450072Y-80793295D01*
X82660759Y-80285903D01*
X82661239Y-79736507D01*
X82451437Y-79228749D01*
X82063295Y-78839928D01*
X81822676Y-78740015D01*
X82061251Y-78641437D01*
X82450072Y-78253295D01*
X82660759Y-77745903D01*
X82661239Y-77196507D01*
X82451437Y-76688749D01*
X82063295Y-76299928D01*
X81822676Y-76200015D01*
X82061251Y-76101437D01*
X82450072Y-75713295D01*
X82660759Y-75205903D01*
X82661239Y-74656507D01*
X82451437Y-74148749D01*
X82063295Y-73759928D01*
X81822676Y-73660015D01*
X82061251Y-73561437D01*
X82450072Y-73173295D01*
X82660759Y-72665903D01*
X82661239Y-72116507D01*
X82451437Y-71608749D01*
X82063295Y-71219928D01*
X82022219Y-71202872D01*
X82049638Y-71147140D01*
X81280000Y-70377502D01*
X80510362Y-71147140D01*
X80537603Y-71202509D01*
X80498749Y-71218563D01*
X80109928Y-71606705D01*
X79899241Y-72114097D01*
X79898761Y-72663493D01*
X74913875Y-72663493D01*
X76646184Y-70931184D01*
X76782968Y-70726473D01*
X76831000Y-70485000D01*
X76831000Y-69833400D01*
X79613051Y-69833400D01*
X79733587Y-70472578D01*
X79746292Y-70503251D01*
X79982860Y-70619638D01*
X80752498Y-69850000D01*
X81807502Y-69850000D01*
X82577140Y-70619638D01*
X82813708Y-70503251D01*
X82946949Y-69866600D01*
X82826413Y-69227422D01*
X82813708Y-69196749D01*
X82577140Y-69080362D01*
X81807502Y-69850000D01*
X80752498Y-69850000D01*
X79982860Y-69080362D01*
X79746292Y-69196749D01*
X79613051Y-69833400D01*
X76831000Y-69833400D01*
X76831000Y-63761368D01*
X78088875Y-62503493D01*
X79898761Y-62503493D01*
X80108563Y-63011251D01*
X80496705Y-63400072D01*
X80737324Y-63499985D01*
X80498749Y-63598563D01*
X80109928Y-63986705D01*
X79899241Y-64494097D01*
X79898761Y-65043493D01*
X80108563Y-65551251D01*
X80496705Y-65940072D01*
X80737324Y-66039985D01*
X80498749Y-66138563D01*
X80109928Y-66526705D01*
X79899241Y-67034097D01*
X79898761Y-67583493D01*
X80108563Y-68091251D01*
X80496705Y-68480072D01*
X80537781Y-68497128D01*
X80510362Y-68552860D01*
X81280000Y-69322498D01*
X82049638Y-68552860D01*
X82022397Y-68497491D01*
X82061251Y-68481437D01*
X82450072Y-68093295D01*
X82660759Y-67585903D01*
X82661239Y-67036507D01*
X82547407Y-66761013D01*
X83183007Y-66125413D01*
X83172149Y-66180000D01*
X83269659Y-66670217D01*
X83547345Y-67085804D01*
X83962932Y-67363490D01*
X84297301Y-67430000D01*
X83962932Y-67496510D01*
X83547345Y-67774196D01*
X83269659Y-68189783D01*
X83172149Y-68680000D01*
X83269659Y-69170217D01*
X83547345Y-69585804D01*
X83815392Y-69764907D01*
X83359484Y-70078044D01*
X83077690Y-70578663D01*
X83165260Y-70807000D01*
X84717000Y-70807000D01*
X84717000Y-70787000D01*
X85463000Y-70787000D01*
X85463000Y-70807000D01*
X87014740Y-70807000D01*
X87102310Y-70578663D01*
X86820516Y-70078044D01*
X86364608Y-69764907D01*
X86632655Y-69585804D01*
X86910341Y-69170217D01*
X87007851Y-68680000D01*
X86910341Y-68189783D01*
X86632655Y-67774196D01*
X86217068Y-67496510D01*
X85882699Y-67430000D01*
X86217068Y-67363490D01*
X86632655Y-67085804D01*
X86910341Y-66670217D01*
X87007851Y-66180000D01*
X86910341Y-65689783D01*
X86632655Y-65274196D01*
X86217068Y-64996510D01*
X85726851Y-64899000D01*
X84453149Y-64899000D01*
X83962932Y-64996510D01*
X83693000Y-65176873D01*
X83693000Y-64980420D01*
X84030421Y-64643000D01*
X87419580Y-64643000D01*
X88392000Y-65615420D01*
X88392000Y-72219580D01*
X87439580Y-73172000D01*
X86898459Y-73172000D01*
X86632655Y-72774196D01*
X86364608Y-72595093D01*
X86820516Y-72281956D01*
X87102310Y-71781337D01*
X87014740Y-71553000D01*
X85463000Y-71553000D01*
X85463000Y-71573000D01*
X84717000Y-71573000D01*
X84717000Y-71553000D01*
X83165260Y-71553000D01*
X83077690Y-71781337D01*
X83359484Y-72281956D01*
X83815392Y-72595093D01*
X83547345Y-72774196D01*
X83269659Y-73189783D01*
X83172149Y-73680000D01*
X83269659Y-74170217D01*
X83547345Y-74585804D01*
X83962932Y-74863490D01*
X84297301Y-74930000D01*
X83962932Y-74996510D01*
X83547345Y-75274196D01*
X83269659Y-75689783D01*
X83172149Y-76180000D01*
X83269659Y-76670217D01*
X83547345Y-77085804D01*
X83815392Y-77264907D01*
X83359484Y-77578044D01*
X83077690Y-78078663D01*
X83165260Y-78307000D01*
X84717000Y-78307000D01*
X84717000Y-78287000D01*
X85463000Y-78287000D01*
X85463000Y-78307000D01*
X87014740Y-78307000D01*
X87102310Y-78078663D01*
X86820516Y-77578044D01*
X86364608Y-77264907D01*
X86632655Y-77085804D01*
X86910341Y-76670217D01*
X87007851Y-76180000D01*
X86910341Y-75689783D01*
X86632655Y-75274196D01*
X86217068Y-74996510D01*
X85882699Y-74930000D01*
X86217068Y-74863490D01*
X86632655Y-74585804D01*
X86898459Y-74188000D01*
X87439580Y-74188000D01*
X88392000Y-75140420D01*
X88392000Y-79799580D01*
X87519580Y-80672000D01*
X86898459Y-80672000D01*
X86632655Y-80274196D01*
X86364608Y-80095093D01*
X86820516Y-79781956D01*
X87102310Y-79281337D01*
X87014740Y-79053000D01*
X85463000Y-79053000D01*
X85463000Y-79073000D01*
X84717000Y-79073000D01*
X84717000Y-79053000D01*
X83165260Y-79053000D01*
X83077690Y-79281337D01*
X83359484Y-79781956D01*
X83815392Y-80095093D01*
X83547345Y-80274196D01*
X83269659Y-80689783D01*
X83172149Y-81180000D01*
X83269659Y-81670217D01*
X83547345Y-82085804D01*
X83962932Y-82363490D01*
X84297301Y-82430000D01*
X83962932Y-82496510D01*
X83547345Y-82774196D01*
X83269659Y-83189783D01*
X83172149Y-83680000D01*
X83269659Y-84170217D01*
X83547345Y-84585804D01*
X83962932Y-84863490D01*
X84453149Y-84961000D01*
X85726851Y-84961000D01*
X86217068Y-84863490D01*
X86632655Y-84585804D01*
X86910341Y-84170217D01*
X87007851Y-83680000D01*
X86910341Y-83189783D01*
X86632655Y-82774196D01*
X86217068Y-82496510D01*
X85882699Y-82430000D01*
X86217068Y-82363490D01*
X86632655Y-82085804D01*
X86898459Y-81688000D01*
X87730000Y-81688000D01*
X87924403Y-81649331D01*
X88089210Y-81539210D01*
X89259210Y-80369210D01*
X89369331Y-80204403D01*
X89408000Y-80010000D01*
X89408000Y-74930000D01*
X89369331Y-74735597D01*
X89259210Y-74570790D01*
X88368420Y-73680000D01*
X89259210Y-72789210D01*
X89369331Y-72624403D01*
X89408000Y-72430000D01*
X89408000Y-65405000D01*
X89369331Y-65210597D01*
X89369331Y-65210596D01*
X89259210Y-65045790D01*
X87989210Y-63775790D01*
X87824403Y-63665669D01*
X87630000Y-63627000D01*
X83820000Y-63627000D01*
X83625597Y-63665669D01*
X83460790Y-63775789D01*
X82825790Y-64410790D01*
X82715669Y-64575597D01*
X82677000Y-64770000D01*
X82677000Y-65194580D01*
X82543653Y-65327927D01*
X82660759Y-65045903D01*
X82661239Y-64496507D01*
X82451437Y-63988749D01*
X82063295Y-63599928D01*
X81822676Y-63500015D01*
X82061251Y-63401437D01*
X82450072Y-63013295D01*
X82660759Y-62505903D01*
X82661239Y-61956507D01*
X82451437Y-61448749D01*
X82063295Y-61059928D01*
X82022219Y-61042872D01*
X82049638Y-60987140D01*
X81280000Y-60217502D01*
X80510362Y-60987140D01*
X80537603Y-61042509D01*
X80498749Y-61058563D01*
X80109928Y-61446705D01*
X79899241Y-61954097D01*
X79898761Y-62503493D01*
X78088875Y-62503493D01*
X79821184Y-60771184D01*
X79957968Y-60566473D01*
X79973046Y-60490669D01*
X79979543Y-60458006D01*
X79982860Y-60459638D01*
X80752498Y-59690000D01*
X81807502Y-59690000D01*
X82577140Y-60459638D01*
X82813708Y-60343251D01*
X82946949Y-59706600D01*
X82826413Y-59067422D01*
X82813708Y-59036749D01*
X82577140Y-58920362D01*
X81807502Y-59690000D01*
X80752498Y-59690000D01*
X80006000Y-58943502D01*
X80006000Y-58420000D01*
X79957968Y-58178527D01*
X79922168Y-58124948D01*
X79821185Y-57973816D01*
X79632369Y-57785000D01*
X79636369Y-57781000D01*
X80046480Y-57781000D01*
X80108563Y-57931251D01*
X80496705Y-58320072D01*
X80537781Y-58337128D01*
X80510362Y-58392860D01*
X81280000Y-59162498D01*
X82049638Y-58392860D01*
X82022397Y-58337491D01*
X82061251Y-58321437D01*
X82450072Y-57933295D01*
X82660759Y-57425903D01*
X82661239Y-56876507D01*
X82451437Y-56368749D01*
X82063295Y-55979928D01*
X81555903Y-55769241D01*
X81006507Y-55768761D01*
X80498749Y-55978563D01*
X80109928Y-56366705D01*
X80046690Y-56519000D01*
X79375000Y-56519000D01*
X79133527Y-56567032D01*
X78928816Y-56703815D01*
X78478632Y-57154000D01*
X77960320Y-57154000D01*
X77921612Y-57060320D01*
X77561575Y-56699655D01*
X77116364Y-56514787D01*
X77559680Y-56331612D01*
X77920345Y-55971575D01*
X78115777Y-55500924D01*
X78116222Y-54991311D01*
X77921612Y-54520320D01*
X77561575Y-54159655D01*
X77343000Y-54068894D01*
X77343000Y-52729302D01*
X77534417Y-52538219D01*
X77660357Y-52234923D01*
X77660643Y-51906518D01*
X77619736Y-51807513D01*
X86383674Y-51807513D01*
X86669436Y-52499109D01*
X87198108Y-53028704D01*
X87889204Y-53315673D01*
X88637513Y-53316326D01*
X89329109Y-53030564D01*
X89858704Y-52501892D01*
X90145673Y-51810796D01*
X90146326Y-51062487D01*
X89860564Y-50370891D01*
X89331892Y-49841296D01*
X88640796Y-49554327D01*
X87892487Y-49553674D01*
X87200891Y-49839436D01*
X86671296Y-50368108D01*
X86384327Y-51059204D01*
X86383674Y-51807513D01*
X77619736Y-51807513D01*
X77535233Y-51603002D01*
X77303219Y-51370583D01*
X76999923Y-51244643D01*
X76671518Y-51244357D01*
X76368002Y-51369767D01*
X76135583Y-51601781D01*
X76009643Y-51905077D01*
X76009357Y-52233482D01*
X76134767Y-52536998D01*
X76327000Y-52729567D01*
X76327000Y-54068857D01*
X76110320Y-54158388D01*
X75749655Y-54518425D01*
X75701650Y-54634034D01*
X75517555Y-54549947D01*
X74822502Y-55245000D01*
X75517555Y-55940053D01*
X75701442Y-55856061D01*
X75748388Y-55969680D01*
X76108425Y-56330345D01*
X76553636Y-56515213D01*
X76110320Y-56698388D01*
X75749655Y-57058425D01*
X75564787Y-57503636D01*
X75381612Y-57060320D01*
X75021575Y-56699655D01*
X74905966Y-56651650D01*
X74990053Y-56467555D01*
X74295000Y-55772502D01*
X73599947Y-56467555D01*
X73683939Y-56651442D01*
X73570320Y-56698388D01*
X73209655Y-57058425D01*
X73014223Y-57529076D01*
X73013778Y-58038689D01*
X73104157Y-58257423D01*
X72030790Y-59330790D01*
X71920669Y-59495597D01*
X71882000Y-59690000D01*
X71882000Y-60960000D01*
X71920669Y-61154403D01*
X72030790Y-61319210D01*
X73152000Y-62440420D01*
X73152000Y-68369580D01*
X72179580Y-69342000D01*
X64345421Y-69342000D01*
X62154953Y-67151532D01*
X67208587Y-67151532D01*
X67570309Y-68026966D01*
X68239511Y-68697337D01*
X69114312Y-69060586D01*
X70061532Y-69061413D01*
X70936966Y-68699691D01*
X71607337Y-68030489D01*
X71970586Y-67155688D01*
X71971413Y-66208468D01*
X71609691Y-65333034D01*
X70940489Y-64662663D01*
X70065688Y-64299414D01*
X69118468Y-64298587D01*
X68243034Y-64660309D01*
X67572663Y-65329511D01*
X67209414Y-66204312D01*
X67208587Y-67151532D01*
X62154953Y-67151532D01*
X61954210Y-66950790D01*
X61789403Y-66840669D01*
X61595000Y-66802000D01*
X59596143Y-66802000D01*
X59506612Y-66585320D01*
X59146575Y-66224655D01*
X58701364Y-66039787D01*
X59144680Y-65856612D01*
X59505345Y-65496575D01*
X59700777Y-65025924D01*
X59701222Y-64516311D01*
X59506612Y-64045320D01*
X59146575Y-63684655D01*
X58701364Y-63499787D01*
X59144680Y-63316612D01*
X59433312Y-63028482D01*
X60769357Y-63028482D01*
X60894767Y-63331998D01*
X61126781Y-63564417D01*
X61430077Y-63690357D01*
X61758482Y-63690643D01*
X62061998Y-63565233D01*
X62254567Y-63373000D01*
X67920698Y-63373000D01*
X68111781Y-63564417D01*
X68415077Y-63690357D01*
X68743482Y-63690643D01*
X69046998Y-63565233D01*
X69279417Y-63333219D01*
X69405357Y-63029923D01*
X69405643Y-62701518D01*
X69280233Y-62398002D01*
X69048219Y-62165583D01*
X68744923Y-62039643D01*
X68416518Y-62039357D01*
X68113002Y-62164767D01*
X67920433Y-62357000D01*
X62254302Y-62357000D01*
X62063219Y-62165583D01*
X61759923Y-62039643D01*
X61431518Y-62039357D01*
X61128002Y-62164767D01*
X60895583Y-62396781D01*
X60769643Y-62700077D01*
X60769357Y-63028482D01*
X59433312Y-63028482D01*
X59505345Y-62956575D01*
X59700777Y-62485924D01*
X59701222Y-61976311D01*
X59506612Y-61505320D01*
X59146575Y-61144655D01*
X59030966Y-61096650D01*
X59115053Y-60912555D01*
X58420000Y-60217502D01*
X57724947Y-60912555D01*
X57808939Y-61096442D01*
X57695320Y-61143388D01*
X57334655Y-61503425D01*
X57139223Y-61974076D01*
X57138778Y-62483689D01*
X57333388Y-62954680D01*
X57693425Y-63315345D01*
X58138636Y-63500213D01*
X57695320Y-63683388D01*
X57334655Y-64043425D01*
X57139223Y-64514076D01*
X57138778Y-65023689D01*
X57333388Y-65494680D01*
X57693425Y-65855345D01*
X58138636Y-66040213D01*
X57695320Y-66223388D01*
X57334655Y-66583425D01*
X57139223Y-67054076D01*
X57138778Y-67563689D01*
X57333388Y-68034680D01*
X57693425Y-68395345D01*
X58138636Y-68580213D01*
X57695320Y-68763388D01*
X57334655Y-69123425D01*
X57139223Y-69594076D01*
X57138778Y-70103689D01*
X57333388Y-70574680D01*
X57693425Y-70935345D01*
X58138636Y-71120213D01*
X57695320Y-71303388D01*
X57334655Y-71663425D01*
X57139223Y-72134076D01*
X57138778Y-72643689D01*
X57333388Y-73114680D01*
X57693425Y-73475345D01*
X58138636Y-73660213D01*
X57695320Y-73843388D01*
X57334655Y-74203425D01*
X57243894Y-74422000D01*
X54820421Y-74422000D01*
X52578000Y-72179580D01*
X52578000Y-62230000D01*
X52539331Y-62035597D01*
X52429210Y-61870790D01*
X50673000Y-60114580D01*
X50673000Y-59642555D01*
X52009947Y-59642555D01*
X52113345Y-59868929D01*
X52712863Y-59985052D01*
X53296655Y-59868929D01*
X53374790Y-59697863D01*
X56854948Y-59697863D01*
X56971071Y-60281655D01*
X57197445Y-60385053D01*
X57892498Y-59690000D01*
X58947502Y-59690000D01*
X59642555Y-60385053D01*
X59868929Y-60281655D01*
X59985052Y-59682137D01*
X59868929Y-59098345D01*
X59642555Y-58994947D01*
X58947502Y-59690000D01*
X57892498Y-59690000D01*
X57197445Y-58994947D01*
X56971071Y-59098345D01*
X56854948Y-59697863D01*
X53374790Y-59697863D01*
X53400053Y-59642555D01*
X52705000Y-58947502D01*
X52009947Y-59642555D01*
X50673000Y-59642555D01*
X50673000Y-59596143D01*
X50889680Y-59506612D01*
X51250345Y-59146575D01*
X51298350Y-59030966D01*
X51482445Y-59115053D01*
X52177498Y-58420000D01*
X53232502Y-58420000D01*
X53927555Y-59115053D01*
X54153929Y-59011655D01*
X54270052Y-58412137D01*
X54153929Y-57828345D01*
X53927555Y-57724947D01*
X53232502Y-58420000D01*
X52177498Y-58420000D01*
X51482445Y-57724947D01*
X51298558Y-57808939D01*
X51251612Y-57695320D01*
X50891575Y-57334655D01*
X50561138Y-57197445D01*
X52009947Y-57197445D01*
X52705000Y-57892498D01*
X53193809Y-57403689D01*
X57138778Y-57403689D01*
X57333388Y-57874680D01*
X57693425Y-58235345D01*
X57809034Y-58283350D01*
X57724947Y-58467445D01*
X58420000Y-59162498D01*
X59115053Y-58467445D01*
X59031061Y-58283558D01*
X59144680Y-58236612D01*
X59505345Y-57876575D01*
X59700777Y-57405924D01*
X59700842Y-57331250D01*
X62390000Y-57331250D01*
X62390000Y-57536309D01*
X62486673Y-57769698D01*
X62665301Y-57948327D01*
X62698975Y-57962275D01*
X62667141Y-58008866D01*
X62636536Y-58160000D01*
X62636536Y-59110000D01*
X62663103Y-59251190D01*
X62746546Y-59380865D01*
X62873866Y-59467859D01*
X63025000Y-59498464D01*
X63975000Y-59498464D01*
X64116190Y-59471897D01*
X64245865Y-59388454D01*
X64320663Y-59278983D01*
X66813804Y-59278983D01*
X66985625Y-59694823D01*
X67303503Y-60013256D01*
X67719043Y-60185804D01*
X68168983Y-60186196D01*
X68584823Y-60014375D01*
X68903256Y-59696497D01*
X69075804Y-59280957D01*
X69076196Y-58831017D01*
X68904375Y-58415177D01*
X68586497Y-58096744D01*
X68170957Y-57924196D01*
X67721017Y-57923804D01*
X67305177Y-58095625D01*
X66986744Y-58413503D01*
X66814196Y-58829043D01*
X66813804Y-59278983D01*
X64320663Y-59278983D01*
X64332859Y-59261134D01*
X64356781Y-59143000D01*
X65825000Y-59143000D01*
X66019403Y-59104331D01*
X66184210Y-58994210D01*
X67524956Y-57653464D01*
X68695000Y-57653464D01*
X68836190Y-57626897D01*
X68965865Y-57543454D01*
X69052859Y-57416134D01*
X69083464Y-57265000D01*
X69083464Y-55765000D01*
X69056897Y-55623810D01*
X68973454Y-55494135D01*
X68846134Y-55407141D01*
X68695000Y-55376536D01*
X67195000Y-55376536D01*
X67053810Y-55403103D01*
X66924135Y-55486546D01*
X66837141Y-55613866D01*
X66806536Y-55765000D01*
X66806536Y-56935044D01*
X65614580Y-58127000D01*
X64357255Y-58127000D01*
X64336897Y-58018810D01*
X64300625Y-57962441D01*
X64334699Y-57948327D01*
X64513327Y-57769698D01*
X64610000Y-57536309D01*
X64610000Y-57331250D01*
X64451250Y-57172500D01*
X63737500Y-57172500D01*
X63737500Y-57328000D01*
X63262500Y-57328000D01*
X63262500Y-57172500D01*
X62548750Y-57172500D01*
X62390000Y-57331250D01*
X59700842Y-57331250D01*
X59701222Y-56896311D01*
X59506612Y-56425320D01*
X59415143Y-56333691D01*
X62390000Y-56333691D01*
X62390000Y-56538750D01*
X62548750Y-56697500D01*
X63262500Y-56697500D01*
X63262500Y-55983750D01*
X63737500Y-55983750D01*
X63737500Y-56697500D01*
X64451250Y-56697500D01*
X64610000Y-56538750D01*
X64610000Y-56333691D01*
X64513327Y-56100302D01*
X64334699Y-55921673D01*
X64101310Y-55825000D01*
X63896250Y-55825000D01*
X63737500Y-55983750D01*
X63262500Y-55983750D01*
X63103750Y-55825000D01*
X62898690Y-55825000D01*
X62665301Y-55921673D01*
X62486673Y-56100302D01*
X62390000Y-56333691D01*
X59415143Y-56333691D01*
X59146575Y-56064655D01*
X58675924Y-55869223D01*
X58166311Y-55868778D01*
X57695320Y-56063388D01*
X57334655Y-56423425D01*
X57139223Y-56894076D01*
X57138778Y-57403689D01*
X53193809Y-57403689D01*
X53400053Y-57197445D01*
X53296655Y-56971071D01*
X52697137Y-56854948D01*
X52113345Y-56971071D01*
X52009947Y-57197445D01*
X50561138Y-57197445D01*
X50420924Y-57139223D01*
X49911311Y-57138778D01*
X49440320Y-57333388D01*
X49079655Y-57693425D01*
X48884223Y-58164076D01*
X48883778Y-58673689D01*
X47421000Y-58673689D01*
X47421000Y-55252863D01*
X72729948Y-55252863D01*
X72846071Y-55836655D01*
X73072445Y-55940053D01*
X73767498Y-55245000D01*
X73072445Y-54549947D01*
X72846071Y-54653345D01*
X72729948Y-55252863D01*
X47421000Y-55252863D01*
X47421000Y-51807513D01*
X48283674Y-51807513D01*
X48569436Y-52499109D01*
X49098108Y-53028704D01*
X49789204Y-53315673D01*
X50537513Y-53316326D01*
X50537696Y-53316250D01*
X62390000Y-53316250D01*
X62390000Y-53521309D01*
X62486673Y-53754698D01*
X62665301Y-53933327D01*
X62898690Y-54030000D01*
X63103750Y-54030000D01*
X63262500Y-53871250D01*
X63262500Y-53157500D01*
X63737500Y-53157500D01*
X63737500Y-53871250D01*
X63896250Y-54030000D01*
X64101310Y-54030000D01*
X64334699Y-53933327D01*
X64513327Y-53754698D01*
X64610000Y-53521309D01*
X64610000Y-53316250D01*
X64451250Y-53157500D01*
X63737500Y-53157500D01*
X63262500Y-53157500D01*
X62548750Y-53157500D01*
X62390000Y-53316250D01*
X50537696Y-53316250D01*
X51229109Y-53030564D01*
X51758704Y-52501892D01*
X51834775Y-52318691D01*
X62390000Y-52318691D01*
X62390000Y-52523750D01*
X62548750Y-52682500D01*
X63262500Y-52682500D01*
X63262500Y-52527000D01*
X63737500Y-52527000D01*
X63737500Y-52682500D01*
X64451250Y-52682500D01*
X64610000Y-52523750D01*
X64610000Y-52318691D01*
X64513327Y-52085302D01*
X64334699Y-51906673D01*
X64301025Y-51892725D01*
X64332859Y-51846134D01*
X64356781Y-51728000D01*
X65614580Y-51728000D01*
X66806536Y-52919956D01*
X66806536Y-54090000D01*
X66833103Y-54231190D01*
X66916546Y-54360865D01*
X67043866Y-54447859D01*
X67195000Y-54478464D01*
X68695000Y-54478464D01*
X68836190Y-54451897D01*
X68965865Y-54368454D01*
X69052859Y-54241134D01*
X69083464Y-54090000D01*
X69083464Y-54022445D01*
X73599947Y-54022445D01*
X74295000Y-54717498D01*
X74990053Y-54022445D01*
X74886655Y-53796071D01*
X74287137Y-53679948D01*
X73703345Y-53796071D01*
X73599947Y-54022445D01*
X69083464Y-54022445D01*
X69083464Y-52590000D01*
X69056897Y-52448810D01*
X68973454Y-52319135D01*
X68846134Y-52232141D01*
X68695000Y-52201536D01*
X67524956Y-52201536D01*
X66347403Y-51023983D01*
X66813804Y-51023983D01*
X66985625Y-51439823D01*
X67303503Y-51758256D01*
X67719043Y-51930804D01*
X68168983Y-51931196D01*
X68584823Y-51759375D01*
X68903256Y-51441497D01*
X69075804Y-51025957D01*
X69076196Y-50576017D01*
X68904375Y-50160177D01*
X68586497Y-49841744D01*
X68170957Y-49669196D01*
X67721017Y-49668804D01*
X67305177Y-49840625D01*
X66986744Y-50158503D01*
X66814196Y-50574043D01*
X66813804Y-51023983D01*
X66347403Y-51023983D01*
X66184210Y-50860790D01*
X66019403Y-50750669D01*
X65825000Y-50712000D01*
X64357255Y-50712000D01*
X64336897Y-50603810D01*
X64253454Y-50474135D01*
X64126134Y-50387141D01*
X63975000Y-50356536D01*
X63025000Y-50356536D01*
X62883810Y-50383103D01*
X62754135Y-50466546D01*
X62667141Y-50593866D01*
X62636536Y-50745000D01*
X62636536Y-51695000D01*
X62663103Y-51836190D01*
X62699375Y-51892559D01*
X62665301Y-51906673D01*
X62486673Y-52085302D01*
X62390000Y-52318691D01*
X51834775Y-52318691D01*
X52045673Y-51810796D01*
X52046326Y-51062487D01*
X51760564Y-50370891D01*
X51231892Y-49841296D01*
X50540796Y-49554327D01*
X49792487Y-49553674D01*
X49100891Y-49839436D01*
X48571296Y-50368108D01*
X48284327Y-51059204D01*
X48283674Y-51807513D01*
X47421000Y-51807513D01*
X47421000Y-50842448D01*
X47589339Y-49996152D01*
X48044683Y-49314683D01*
X48726152Y-48859339D01*
X49572448Y-48691000D01*
X88857552Y-48691000D01*
X89703848Y-48859339D01*
X89703848Y-48859339D01*
G37*
X89703848Y-48859339D02*
X90385317Y-49314683D01*
X90840661Y-49996152D01*
X91009000Y-50842448D01*
X91009000Y-99017552D01*
X90840661Y-99863848D01*
X90385317Y-100545317D01*
X89703848Y-101000661D01*
X88857552Y-101169000D01*
X49572448Y-101169000D01*
X48726152Y-101000661D01*
X48044683Y-100545317D01*
X47589339Y-99863848D01*
X47421000Y-99017552D01*
X47421000Y-98797513D01*
X48283674Y-98797513D01*
X48569436Y-99489109D01*
X49098108Y-100018704D01*
X49789204Y-100305673D01*
X50537513Y-100306326D01*
X51229109Y-100020564D01*
X51758704Y-99491892D01*
X52045673Y-98800796D01*
X52046326Y-98052487D01*
X51760564Y-97360891D01*
X51231892Y-96831296D01*
X50540796Y-96544327D01*
X49792487Y-96543674D01*
X49100891Y-96829436D01*
X48571296Y-97358108D01*
X48284327Y-98049204D01*
X48283674Y-98797513D01*
X47421000Y-98797513D01*
X47421000Y-96338691D01*
X62390000Y-96338691D01*
X62390000Y-96543750D01*
X62548750Y-96702500D01*
X63262500Y-96702500D01*
X63262500Y-95988750D01*
X63737500Y-95988750D01*
X63737500Y-96702500D01*
X64451250Y-96702500D01*
X64610000Y-96543750D01*
X64610000Y-96338691D01*
X64513327Y-96105302D01*
X64334699Y-95926673D01*
X64101310Y-95830000D01*
X63896250Y-95830000D01*
X63737500Y-95988750D01*
X63262500Y-95988750D01*
X63103750Y-95830000D01*
X62898690Y-95830000D01*
X62665301Y-95926673D01*
X62486673Y-96105302D01*
X62390000Y-96338691D01*
X47421000Y-96338691D01*
X47421000Y-83753003D01*
X48258718Y-83753003D01*
X48506499Y-84352680D01*
X48964907Y-84811888D01*
X49564151Y-85060716D01*
X50213003Y-85061282D01*
X50812680Y-84813501D01*
X51271888Y-84355093D01*
X51439000Y-83952643D01*
X51439000Y-88638631D01*
X51173632Y-88904000D01*
X50934937Y-88904000D01*
X50819698Y-88788560D01*
X50496011Y-88654153D01*
X50145527Y-88653847D01*
X49821605Y-88787689D01*
X49573560Y-89035302D01*
X49439153Y-89358989D01*
X49438847Y-89709473D01*
X49572689Y-90033395D01*
X49820302Y-90281440D01*
X50143989Y-90415847D01*
X50494473Y-90416153D01*
X50818395Y-90282311D01*
X50934909Y-90166000D01*
X51435000Y-90166000D01*
X51676473Y-90117968D01*
X51881184Y-89981184D01*
X51918618Y-89943750D01*
X52685000Y-89943750D01*
X52685000Y-90161310D01*
X52781673Y-90394699D01*
X52960302Y-90573327D01*
X53193691Y-90670000D01*
X53411250Y-90670000D01*
X53570000Y-90511250D01*
X53570000Y-89785000D01*
X54070000Y-89785000D01*
X54070000Y-90511250D01*
X54228750Y-90670000D01*
X54446309Y-90670000D01*
X54679698Y-90573327D01*
X54858327Y-90394699D01*
X54955000Y-90161310D01*
X54955000Y-89943750D01*
X54796250Y-89785000D01*
X54070000Y-89785000D01*
X53570000Y-89785000D01*
X52843750Y-89785000D01*
X52685000Y-89943750D01*
X51918618Y-89943750D01*
X52516185Y-89346184D01*
X52652968Y-89141473D01*
X52685000Y-88980437D01*
X52685000Y-89126250D01*
X52843750Y-89285000D01*
X53570000Y-89285000D01*
X53570000Y-88558750D01*
X53411250Y-88400000D01*
X53193691Y-88400000D01*
X52960302Y-88496673D01*
X52781673Y-88675301D01*
X52701000Y-88870063D01*
X52701000Y-82529937D01*
X52816440Y-82414698D01*
X52950847Y-82091011D01*
X52951153Y-81740527D01*
X52817311Y-81416605D01*
X52569698Y-81168560D01*
X52246011Y-81034153D01*
X51895527Y-81033847D01*
X51571605Y-81167689D01*
X51323560Y-81415302D01*
X51189153Y-81738989D01*
X51188847Y-82089473D01*
X51322689Y-82413395D01*
X51439000Y-82529909D01*
X51439000Y-82907859D01*
X51273501Y-82507320D01*
X50815093Y-82048112D01*
X50215849Y-81799284D01*
X49566997Y-81798718D01*
X48967320Y-82046499D01*
X48508112Y-82504907D01*
X48259284Y-83104151D01*
X48258718Y-83753003D01*
X47421000Y-83753003D01*
X47421000Y-76363482D01*
X49974357Y-76363482D01*
X50099767Y-76666998D01*
X50267566Y-76835089D01*
X50100583Y-77001781D01*
X49974643Y-77305077D01*
X49974357Y-77633482D01*
X50099767Y-77936998D01*
X50298103Y-78135680D01*
X50330669Y-78299403D01*
X50440790Y-78464210D01*
X54102000Y-82125420D01*
X54102000Y-88265000D01*
X54140669Y-88459403D01*
X54152156Y-88476594D01*
X54070000Y-88558750D01*
X54070000Y-89285000D01*
X54796250Y-89285000D01*
X54853915Y-89227335D01*
X56155790Y-90529210D01*
X56320597Y-90639331D01*
X56515000Y-90678000D01*
X57243857Y-90678000D01*
X57333388Y-90894680D01*
X57693425Y-91255345D01*
X58138636Y-91440213D01*
X57695320Y-91623388D01*
X57334655Y-91983425D01*
X57139223Y-92454076D01*
X57138778Y-92963689D01*
X57333388Y-93434680D01*
X57693425Y-93795345D01*
X58164076Y-93990777D01*
X58673689Y-93991222D01*
X59144680Y-93796612D01*
X59505345Y-93436575D01*
X59553232Y-93321250D01*
X62390000Y-93321250D01*
X62390000Y-93526309D01*
X62486673Y-93759698D01*
X62665301Y-93938327D01*
X62898690Y-94035000D01*
X63103750Y-94035000D01*
X63262500Y-93876250D01*
X63262500Y-93162500D01*
X63737500Y-93162500D01*
X63737500Y-93876250D01*
X63896250Y-94035000D01*
X64101310Y-94035000D01*
X64334699Y-93938327D01*
X64513327Y-93759698D01*
X64610000Y-93526309D01*
X64610000Y-93321250D01*
X64451250Y-93162500D01*
X63737500Y-93162500D01*
X63262500Y-93162500D01*
X62548750Y-93162500D01*
X62390000Y-93321250D01*
X59553232Y-93321250D01*
X59700777Y-92965924D01*
X59701222Y-92456311D01*
X59646425Y-92323691D01*
X62390000Y-92323691D01*
X62390000Y-92528750D01*
X62548750Y-92687500D01*
X63262500Y-92687500D01*
X63262500Y-92532000D01*
X63737500Y-92532000D01*
X63737500Y-92687500D01*
X64451250Y-92687500D01*
X64610000Y-92528750D01*
X64610000Y-92323691D01*
X64513327Y-92090302D01*
X64334699Y-91911673D01*
X64301025Y-91897725D01*
X64332859Y-91851134D01*
X64356781Y-91733000D01*
X65614580Y-91733000D01*
X66806536Y-92924956D01*
X66806536Y-94095000D01*
X66833103Y-94236190D01*
X66916546Y-94365865D01*
X67043866Y-94452859D01*
X67195000Y-94483464D01*
X68695000Y-94483464D01*
X68836190Y-94456897D01*
X68965865Y-94373454D01*
X69052859Y-94246134D01*
X69083464Y-94095000D01*
X69083464Y-92595000D01*
X69056897Y-92453810D01*
X68973454Y-92324135D01*
X68846134Y-92237141D01*
X68695000Y-92206536D01*
X67524956Y-92206536D01*
X66184210Y-90865790D01*
X66019403Y-90755669D01*
X65825000Y-90717000D01*
X64357255Y-90717000D01*
X64336897Y-90608810D01*
X64253454Y-90479135D01*
X64126134Y-90392141D01*
X63975000Y-90361536D01*
X63025000Y-90361536D01*
X62883810Y-90388103D01*
X62754135Y-90471546D01*
X62667141Y-90598866D01*
X62636536Y-90750000D01*
X62636536Y-91700000D01*
X62663103Y-91841190D01*
X62699375Y-91897559D01*
X62665301Y-91911673D01*
X62486673Y-92090302D01*
X62390000Y-92323691D01*
X59646425Y-92323691D01*
X59506612Y-91985320D01*
X59146575Y-91624655D01*
X58701364Y-91439787D01*
X59144680Y-91256612D01*
X59505345Y-90896575D01*
X59700777Y-90425924D01*
X59701222Y-89916311D01*
X59506612Y-89445320D01*
X59146575Y-89084655D01*
X58701364Y-88899787D01*
X59144680Y-88716612D01*
X59505345Y-88356575D01*
X59700777Y-87885924D01*
X59701222Y-87376311D01*
X59506612Y-86905320D01*
X59146575Y-86544655D01*
X58701364Y-86359787D01*
X59144680Y-86176612D01*
X59505345Y-85816575D01*
X59700777Y-85345924D01*
X59701222Y-84836311D01*
X59506612Y-84365320D01*
X59146575Y-84004655D01*
X58701364Y-83819787D01*
X59144680Y-83636612D01*
X59505345Y-83276575D01*
X59700777Y-82805924D01*
X59701222Y-82296311D01*
X59506612Y-81825320D01*
X59146575Y-81464655D01*
X58701364Y-81279787D01*
X59144680Y-81096612D01*
X59505345Y-80736575D01*
X59700777Y-80265924D01*
X59701222Y-79756311D01*
X59506612Y-79285320D01*
X59146575Y-78924655D01*
X59030966Y-78876650D01*
X59115053Y-78692555D01*
X58420000Y-77997502D01*
X57724947Y-78692555D01*
X57808939Y-78876442D01*
X57695320Y-78923388D01*
X57334655Y-79283425D01*
X57139223Y-79754076D01*
X57138778Y-80263689D01*
X57333388Y-80734680D01*
X57693425Y-81095345D01*
X58138636Y-81280213D01*
X57695320Y-81463388D01*
X57334655Y-81823425D01*
X57139223Y-82294076D01*
X57138778Y-82803689D01*
X57333388Y-83274680D01*
X57693425Y-83635345D01*
X58138636Y-83820213D01*
X57695320Y-84003388D01*
X57334655Y-84363425D01*
X57139223Y-84834076D01*
X57138778Y-85343689D01*
X57333388Y-85814680D01*
X57693425Y-86175345D01*
X58138636Y-86360213D01*
X57695320Y-86543388D01*
X57334655Y-86903425D01*
X57243894Y-87122000D01*
X56725420Y-87122000D01*
X55753000Y-86149580D01*
X55753000Y-80645000D01*
X55714331Y-80450597D01*
X55714331Y-80450596D01*
X55604210Y-80285790D01*
X52796283Y-77477863D01*
X56854948Y-77477863D01*
X56971071Y-78061655D01*
X57197445Y-78165053D01*
X57892498Y-77470000D01*
X58947502Y-77470000D01*
X59642555Y-78165053D01*
X59868929Y-78061655D01*
X59985052Y-77462137D01*
X59868929Y-76878345D01*
X59642555Y-76774947D01*
X58947502Y-77470000D01*
X57892498Y-77470000D01*
X57197445Y-76774947D01*
X56971071Y-76878345D01*
X56854948Y-77477863D01*
X52796283Y-77477863D01*
X51625407Y-76306987D01*
X51625643Y-76036518D01*
X51500233Y-75733002D01*
X51268219Y-75500583D01*
X50964923Y-75374643D01*
X50636518Y-75374357D01*
X50333002Y-75499767D01*
X50100583Y-75731781D01*
X49974643Y-76035077D01*
X49974357Y-76363482D01*
X47421000Y-76363482D01*
X47421000Y-66753003D01*
X48258718Y-66753003D01*
X48506499Y-67352680D01*
X48964907Y-67811888D01*
X49564151Y-68060716D01*
X50213003Y-68061282D01*
X50812680Y-67813501D01*
X51271888Y-67355093D01*
X51520716Y-66755849D01*
X51521282Y-66106997D01*
X51273501Y-65507320D01*
X50815093Y-65048112D01*
X50215849Y-64799284D01*
X49566997Y-64798718D01*
X48967320Y-65046499D01*
X48508112Y-65504907D01*
X48259284Y-66104151D01*
X48258718Y-66753003D01*
X47421000Y-66753003D01*
X47421000Y-58673689D01*
X48883778Y-58673689D01*
X49078388Y-59144680D01*
X49438425Y-59505345D01*
X49657000Y-59596106D01*
X49657000Y-60325000D01*
X49695669Y-60519403D01*
X49805790Y-60684210D01*
X51562000Y-62440420D01*
X51562000Y-72390000D01*
X51600669Y-72584403D01*
X51710790Y-72749210D01*
X54250789Y-75289210D01*
X54360910Y-75362790D01*
X54415597Y-75399331D01*
X54610000Y-75438000D01*
X57243857Y-75438000D01*
X57333388Y-75654680D01*
X57693425Y-76015345D01*
X57809034Y-76063350D01*
X57724947Y-76247445D01*
X58420000Y-76942498D01*
X59115053Y-76247445D01*
X59031061Y-76063558D01*
X59144680Y-76016612D01*
X59505345Y-75656575D01*
X59700777Y-75185924D01*
X59701222Y-74676311D01*
X59506612Y-74205320D01*
X59146575Y-73844655D01*
X58701364Y-73659787D01*
X59144680Y-73476612D01*
X59505345Y-73116575D01*
X59596106Y-72898000D01*
X62230000Y-72898000D01*
X62424403Y-72859331D01*
X62589210Y-72749210D01*
X63710420Y-71628000D01*
X64452490Y-71628000D01*
X64303002Y-71689767D01*
X64070583Y-71921781D01*
X63944643Y-72225077D01*
X63944357Y-72553482D01*
X64069767Y-72856998D01*
X64262000Y-73049567D01*
X64262000Y-87630000D01*
X64300669Y-87824403D01*
X64410790Y-87989210D01*
X66868895Y-90447315D01*
X66814196Y-90579043D01*
X66813804Y-91028983D01*
X66985625Y-91444823D01*
X67303503Y-91763256D01*
X67719043Y-91935804D01*
X68168983Y-91936196D01*
X68584823Y-91764375D01*
X68903256Y-91446497D01*
X69075804Y-91030957D01*
X69076196Y-90581017D01*
X68904375Y-90165177D01*
X68586497Y-89846744D01*
X68170957Y-89674196D01*
X67721017Y-89673804D01*
X67587424Y-89729004D01*
X65278000Y-87419580D01*
X65278000Y-86316420D01*
X69342000Y-90380420D01*
X69342000Y-96944580D01*
X69083464Y-97203116D01*
X69083464Y-95770000D01*
X69056897Y-95628810D01*
X68973454Y-95499135D01*
X68846134Y-95412141D01*
X68695000Y-95381536D01*
X67195000Y-95381536D01*
X67053810Y-95408103D01*
X66924135Y-95491546D01*
X66837141Y-95618866D01*
X66806536Y-95770000D01*
X66806536Y-96940044D01*
X65614580Y-98132000D01*
X64357255Y-98132000D01*
X64336897Y-98023810D01*
X64300625Y-97967441D01*
X64334699Y-97953327D01*
X64513327Y-97774698D01*
X64610000Y-97541309D01*
X64610000Y-97336250D01*
X64451250Y-97177500D01*
X63737500Y-97177500D01*
X63737500Y-97333000D01*
X63262500Y-97333000D01*
X63262500Y-97177500D01*
X62548750Y-97177500D01*
X62390000Y-97336250D01*
X62390000Y-97541309D01*
X62486673Y-97774698D01*
X62665301Y-97953327D01*
X62698975Y-97967275D01*
X62667141Y-98013866D01*
X62636536Y-98165000D01*
X62636536Y-99115000D01*
X62663103Y-99256190D01*
X62746546Y-99385865D01*
X62873866Y-99472859D01*
X63025000Y-99503464D01*
X63975000Y-99503464D01*
X64116190Y-99476897D01*
X64245865Y-99393454D01*
X64332859Y-99266134D01*
X64356781Y-99148000D01*
X65825000Y-99148000D01*
X66019403Y-99109331D01*
X66184210Y-98999210D01*
X67524956Y-97658464D01*
X68628116Y-97658464D01*
X68302685Y-97983895D01*
X68170957Y-97929196D01*
X67721017Y-97928804D01*
X67305177Y-98100625D01*
X66986744Y-98418503D01*
X66814196Y-98834043D01*
X66813804Y-99283983D01*
X66985625Y-99699823D01*
X67303503Y-100018256D01*
X67719043Y-100190804D01*
X68168983Y-100191196D01*
X68584823Y-100019375D01*
X68903256Y-99701497D01*
X69075804Y-99285957D01*
X69076196Y-98836017D01*
X69060287Y-98797513D01*
X86383674Y-98797513D01*
X86669436Y-99489109D01*
X87198108Y-100018704D01*
X87889204Y-100305673D01*
X88637513Y-100306326D01*
X89329109Y-100020564D01*
X89858704Y-99491892D01*
X90145673Y-98800796D01*
X90146326Y-98052487D01*
X89860564Y-97360891D01*
X89331892Y-96831296D01*
X88640796Y-96544327D01*
X87892487Y-96543674D01*
X87200891Y-96829436D01*
X86671296Y-97358108D01*
X86384327Y-98049204D01*
X86383674Y-98797513D01*
X69060287Y-98797513D01*
X69020996Y-98702424D01*
X70209210Y-97514210D01*
X70319331Y-97349403D01*
X70358000Y-97155000D01*
X70358000Y-90170000D01*
X70319331Y-89975597D01*
X70319331Y-89975596D01*
X70209210Y-89810790D01*
X65913000Y-85514580D01*
X65913000Y-83651532D01*
X67208587Y-83651532D01*
X67570309Y-84526966D01*
X68239511Y-85197337D01*
X69114312Y-85560586D01*
X70061532Y-85561413D01*
X70936966Y-85199691D01*
X71607337Y-84530489D01*
X71970586Y-83655688D01*
X71971413Y-82708468D01*
X71609691Y-81833034D01*
X70940489Y-81162663D01*
X70065688Y-80799414D01*
X69118468Y-80798587D01*
X68243034Y-81160309D01*
X67572663Y-81829511D01*
X67209414Y-82704312D01*
X67208587Y-83651532D01*
X65913000Y-83651532D01*
X65913000Y-80220420D01*
X68790420Y-77343000D01*
X69825698Y-77343000D01*
X70016781Y-77534417D01*
X70243161Y-77628419D01*
X69321987Y-78549593D01*
X69051518Y-78549357D01*
X68748002Y-78674767D01*
X68515583Y-78906781D01*
X68389643Y-79210077D01*
X68389357Y-79538482D01*
X68514767Y-79841998D01*
X68746781Y-80074417D01*
X69050077Y-80200357D01*
X69378482Y-80200643D01*
X69681998Y-80075233D01*
X69914417Y-79843219D01*
X70040357Y-79539923D01*
X70040594Y-79267826D01*
X71648013Y-77660407D01*
X71918482Y-77660643D01*
X72221998Y-77535233D01*
X72454417Y-77303219D01*
X72580357Y-76999923D01*
X72580643Y-76671518D01*
X72455233Y-76368002D01*
X72223219Y-76135583D01*
X71919923Y-76009643D01*
X71591518Y-76009357D01*
X71288002Y-76134767D01*
X71119911Y-76302566D01*
X70993000Y-76175433D01*
X70993000Y-73049302D01*
X71184417Y-72858219D01*
X71310357Y-72554923D01*
X71310643Y-72226518D01*
X71185233Y-71923002D01*
X70953219Y-71690583D01*
X70802503Y-71628000D01*
X73660000Y-71628000D01*
X73854403Y-71589331D01*
X74019210Y-71479210D01*
X75289210Y-70209210D01*
X75399331Y-70044404D01*
X75427650Y-69902032D01*
X75438000Y-69850000D01*
X75438000Y-62440420D01*
X76362552Y-61515868D01*
X76579076Y-61605777D01*
X77088689Y-61606222D01*
X77280781Y-61526851D01*
X75753816Y-63053816D01*
X75617032Y-63258527D01*
X75569000Y-63500000D01*
X75569000Y-70223632D01*
X73013643Y-72778989D01*
X72850527Y-72778847D01*
X72526605Y-72912689D01*
X72278560Y-73160302D01*
X72144153Y-73483989D01*
X72143847Y-73834473D01*
X72277689Y-74158395D01*
X72525302Y-74406440D01*
X72848989Y-74540847D01*
X73199473Y-74541153D01*
X73523395Y-74407311D01*
X73771440Y-74159698D01*
X73905847Y-73836011D01*
X73905991Y-73671377D01*
X74913875Y-72663493D01*
X79898761Y-72663493D01*
X80108563Y-73171251D01*
X80496705Y-73560072D01*
X80737324Y-73659985D01*
X80498749Y-73758563D01*
X80109928Y-74146705D01*
X79899241Y-74654097D01*
X79898761Y-75203493D01*
X80108563Y-75711251D01*
X80496705Y-76100072D01*
X80737324Y-76199985D01*
X80498749Y-76298563D01*
X80109928Y-76686705D01*
X79899241Y-77194097D01*
X79898761Y-77743493D01*
X80108563Y-78251251D01*
X80496705Y-78640072D01*
X80737324Y-78739985D01*
X80498749Y-78838563D01*
X80109928Y-79226705D01*
X79899241Y-79734097D01*
X79898761Y-80283493D01*
X80108563Y-80791251D01*
X80496705Y-81180072D01*
X80737324Y-81279985D01*
X80498749Y-81378563D01*
X80109928Y-81766705D01*
X79899241Y-82274097D01*
X79898761Y-82823493D01*
X80108563Y-83331251D01*
X80496705Y-83720072D01*
X80737324Y-83819985D01*
X80498749Y-83918563D01*
X80109928Y-84306705D01*
X79899241Y-84814097D01*
X79898761Y-85363493D01*
X80108563Y-85871251D01*
X80496705Y-86260072D01*
X80737324Y-86359985D01*
X80498749Y-86458563D01*
X80109928Y-86846705D01*
X79899241Y-87354097D01*
X79898761Y-87903493D01*
X80108563Y-88411251D01*
X80496705Y-88800072D01*
X80737324Y-88899985D01*
X80498749Y-88998563D01*
X80109928Y-89386705D01*
X79899241Y-89894097D01*
X79898761Y-90443493D01*
X80108563Y-90951251D01*
X80496705Y-91340072D01*
X80737324Y-91439985D01*
X80498749Y-91538563D01*
X80109928Y-91926705D01*
X79899241Y-92434097D01*
X79898761Y-92983493D01*
X80108563Y-93491251D01*
X80496705Y-93880072D01*
X81004097Y-94090759D01*
X81553493Y-94091239D01*
X82061251Y-93881437D01*
X82450072Y-93493295D01*
X82660759Y-92985903D01*
X82661239Y-92436507D01*
X82451437Y-91928749D01*
X82216788Y-91693689D01*
X84443778Y-91693689D01*
X84638388Y-92164680D01*
X84998425Y-92525345D01*
X85469076Y-92720777D01*
X85978689Y-92721222D01*
X86120673Y-92662555D01*
X87569947Y-92662555D01*
X87673345Y-92888929D01*
X88272863Y-93005052D01*
X88856655Y-92888929D01*
X88960053Y-92662555D01*
X88265000Y-91967502D01*
X87569947Y-92662555D01*
X86120673Y-92662555D01*
X86449680Y-92526612D01*
X86810345Y-92166575D01*
X86858350Y-92050966D01*
X87042445Y-92135053D01*
X87737498Y-91440000D01*
X88792502Y-91440000D01*
X89487555Y-92135053D01*
X89713929Y-92031655D01*
X89830052Y-91432137D01*
X89713929Y-90848345D01*
X89487555Y-90744947D01*
X88792502Y-91440000D01*
X87737498Y-91440000D01*
X87042445Y-90744947D01*
X86858558Y-90828939D01*
X86811612Y-90715320D01*
X86451575Y-90354655D01*
X86121138Y-90217445D01*
X87569947Y-90217445D01*
X88265000Y-90912498D01*
X88960053Y-90217445D01*
X88856655Y-89991071D01*
X88257137Y-89874948D01*
X87673345Y-89991071D01*
X87569947Y-90217445D01*
X86121138Y-90217445D01*
X85980924Y-90159223D01*
X85471311Y-90158778D01*
X85000320Y-90353388D01*
X84639655Y-90713425D01*
X84444223Y-91184076D01*
X84443778Y-91693689D01*
X82216788Y-91693689D01*
X82063295Y-91539928D01*
X81822676Y-91440015D01*
X82061251Y-91341437D01*
X82450072Y-90953295D01*
X82660759Y-90445903D01*
X82661239Y-89896507D01*
X82451437Y-89388749D01*
X82063295Y-88999928D01*
X81822676Y-88900015D01*
X82061251Y-88801437D01*
X82450072Y-88413295D01*
X82660759Y-87905903D01*
X82661239Y-87356507D01*
X82451437Y-86848749D01*
X82063295Y-86459928D01*
X81822676Y-86360015D01*
X82061251Y-86261437D01*
X82450072Y-85873295D01*
X82660759Y-85365903D01*
X82661239Y-84816507D01*
X82451437Y-84308749D01*
X82063295Y-83919928D01*
X81822676Y-83820015D01*
X82061251Y-83721437D01*
X82450072Y-83333295D01*
X82660759Y-82825903D01*
X82661239Y-82276507D01*
X82451437Y-81768749D01*
X82063295Y-81379928D01*
X81822676Y-81280015D01*
X82061251Y-81181437D01*
X82450072Y-80793295D01*
X82660759Y-80285903D01*
X82661239Y-79736507D01*
X82451437Y-79228749D01*
X82063295Y-78839928D01*
X81822676Y-78740015D01*
X82061251Y-78641437D01*
X82450072Y-78253295D01*
X82660759Y-77745903D01*
X82661239Y-77196507D01*
X82451437Y-76688749D01*
X82063295Y-76299928D01*
X81822676Y-76200015D01*
X82061251Y-76101437D01*
X82450072Y-75713295D01*
X82660759Y-75205903D01*
X82661239Y-74656507D01*
X82451437Y-74148749D01*
X82063295Y-73759928D01*
X81822676Y-73660015D01*
X82061251Y-73561437D01*
X82450072Y-73173295D01*
X82660759Y-72665903D01*
X82661239Y-72116507D01*
X82451437Y-71608749D01*
X82063295Y-71219928D01*
X82022219Y-71202872D01*
X82049638Y-71147140D01*
X81280000Y-70377502D01*
X80510362Y-71147140D01*
X80537603Y-71202509D01*
X80498749Y-71218563D01*
X80109928Y-71606705D01*
X79899241Y-72114097D01*
X79898761Y-72663493D01*
X74913875Y-72663493D01*
X76646184Y-70931184D01*
X76782968Y-70726473D01*
X76831000Y-70485000D01*
X76831000Y-69833400D01*
X79613051Y-69833400D01*
X79733587Y-70472578D01*
X79746292Y-70503251D01*
X79982860Y-70619638D01*
X80752498Y-69850000D01*
X81807502Y-69850000D01*
X82577140Y-70619638D01*
X82813708Y-70503251D01*
X82946949Y-69866600D01*
X82826413Y-69227422D01*
X82813708Y-69196749D01*
X82577140Y-69080362D01*
X81807502Y-69850000D01*
X80752498Y-69850000D01*
X79982860Y-69080362D01*
X79746292Y-69196749D01*
X79613051Y-69833400D01*
X76831000Y-69833400D01*
X76831000Y-63761368D01*
X78088875Y-62503493D01*
X79898761Y-62503493D01*
X80108563Y-63011251D01*
X80496705Y-63400072D01*
X80737324Y-63499985D01*
X80498749Y-63598563D01*
X80109928Y-63986705D01*
X79899241Y-64494097D01*
X79898761Y-65043493D01*
X80108563Y-65551251D01*
X80496705Y-65940072D01*
X80737324Y-66039985D01*
X80498749Y-66138563D01*
X80109928Y-66526705D01*
X79899241Y-67034097D01*
X79898761Y-67583493D01*
X80108563Y-68091251D01*
X80496705Y-68480072D01*
X80537781Y-68497128D01*
X80510362Y-68552860D01*
X81280000Y-69322498D01*
X82049638Y-68552860D01*
X82022397Y-68497491D01*
X82061251Y-68481437D01*
X82450072Y-68093295D01*
X82660759Y-67585903D01*
X82661239Y-67036507D01*
X82547407Y-66761013D01*
X83183007Y-66125413D01*
X83172149Y-66180000D01*
X83269659Y-66670217D01*
X83547345Y-67085804D01*
X83962932Y-67363490D01*
X84297301Y-67430000D01*
X83962932Y-67496510D01*
X83547345Y-67774196D01*
X83269659Y-68189783D01*
X83172149Y-68680000D01*
X83269659Y-69170217D01*
X83547345Y-69585804D01*
X83815392Y-69764907D01*
X83359484Y-70078044D01*
X83077690Y-70578663D01*
X83165260Y-70807000D01*
X84717000Y-70807000D01*
X84717000Y-70787000D01*
X85463000Y-70787000D01*
X85463000Y-70807000D01*
X87014740Y-70807000D01*
X87102310Y-70578663D01*
X86820516Y-70078044D01*
X86364608Y-69764907D01*
X86632655Y-69585804D01*
X86910341Y-69170217D01*
X87007851Y-68680000D01*
X86910341Y-68189783D01*
X86632655Y-67774196D01*
X86217068Y-67496510D01*
X85882699Y-67430000D01*
X86217068Y-67363490D01*
X86632655Y-67085804D01*
X86910341Y-66670217D01*
X87007851Y-66180000D01*
X86910341Y-65689783D01*
X86632655Y-65274196D01*
X86217068Y-64996510D01*
X85726851Y-64899000D01*
X84453149Y-64899000D01*
X83962932Y-64996510D01*
X83693000Y-65176873D01*
X83693000Y-64980420D01*
X84030421Y-64643000D01*
X87419580Y-64643000D01*
X88392000Y-65615420D01*
X88392000Y-72219580D01*
X87439580Y-73172000D01*
X86898459Y-73172000D01*
X86632655Y-72774196D01*
X86364608Y-72595093D01*
X86820516Y-72281956D01*
X87102310Y-71781337D01*
X87014740Y-71553000D01*
X85463000Y-71553000D01*
X85463000Y-71573000D01*
X84717000Y-71573000D01*
X84717000Y-71553000D01*
X83165260Y-71553000D01*
X83077690Y-71781337D01*
X83359484Y-72281956D01*
X83815392Y-72595093D01*
X83547345Y-72774196D01*
X83269659Y-73189783D01*
X83172149Y-73680000D01*
X83269659Y-74170217D01*
X83547345Y-74585804D01*
X83962932Y-74863490D01*
X84297301Y-74930000D01*
X83962932Y-74996510D01*
X83547345Y-75274196D01*
X83269659Y-75689783D01*
X83172149Y-76180000D01*
X83269659Y-76670217D01*
X83547345Y-77085804D01*
X83815392Y-77264907D01*
X83359484Y-77578044D01*
X83077690Y-78078663D01*
X83165260Y-78307000D01*
X84717000Y-78307000D01*
X84717000Y-78287000D01*
X85463000Y-78287000D01*
X85463000Y-78307000D01*
X87014740Y-78307000D01*
X87102310Y-78078663D01*
X86820516Y-77578044D01*
X86364608Y-77264907D01*
X86632655Y-77085804D01*
X86910341Y-76670217D01*
X87007851Y-76180000D01*
X86910341Y-75689783D01*
X86632655Y-75274196D01*
X86217068Y-74996510D01*
X85882699Y-74930000D01*
X86217068Y-74863490D01*
X86632655Y-74585804D01*
X86898459Y-74188000D01*
X87439580Y-74188000D01*
X88392000Y-75140420D01*
X88392000Y-79799580D01*
X87519580Y-80672000D01*
X86898459Y-80672000D01*
X86632655Y-80274196D01*
X86364608Y-80095093D01*
X86820516Y-79781956D01*
X87102310Y-79281337D01*
X87014740Y-79053000D01*
X85463000Y-79053000D01*
X85463000Y-79073000D01*
X84717000Y-79073000D01*
X84717000Y-79053000D01*
X83165260Y-79053000D01*
X83077690Y-79281337D01*
X83359484Y-79781956D01*
X83815392Y-80095093D01*
X83547345Y-80274196D01*
X83269659Y-80689783D01*
X83172149Y-81180000D01*
X83269659Y-81670217D01*
X83547345Y-82085804D01*
X83962932Y-82363490D01*
X84297301Y-82430000D01*
X83962932Y-82496510D01*
X83547345Y-82774196D01*
X83269659Y-83189783D01*
X83172149Y-83680000D01*
X83269659Y-84170217D01*
X83547345Y-84585804D01*
X83962932Y-84863490D01*
X84453149Y-84961000D01*
X85726851Y-84961000D01*
X86217068Y-84863490D01*
X86632655Y-84585804D01*
X86910341Y-84170217D01*
X87007851Y-83680000D01*
X86910341Y-83189783D01*
X86632655Y-82774196D01*
X86217068Y-82496510D01*
X85882699Y-82430000D01*
X86217068Y-82363490D01*
X86632655Y-82085804D01*
X86898459Y-81688000D01*
X87730000Y-81688000D01*
X87924403Y-81649331D01*
X88089210Y-81539210D01*
X89259210Y-80369210D01*
X89369331Y-80204403D01*
X89408000Y-80010000D01*
X89408000Y-74930000D01*
X89369331Y-74735597D01*
X89259210Y-74570790D01*
X88368420Y-73680000D01*
X89259210Y-72789210D01*
X89369331Y-72624403D01*
X89408000Y-72430000D01*
X89408000Y-65405000D01*
X89369331Y-65210597D01*
X89369331Y-65210596D01*
X89259210Y-65045790D01*
X87989210Y-63775790D01*
X87824403Y-63665669D01*
X87630000Y-63627000D01*
X83820000Y-63627000D01*
X83625597Y-63665669D01*
X83460790Y-63775789D01*
X82825790Y-64410790D01*
X82715669Y-64575597D01*
X82677000Y-64770000D01*
X82677000Y-65194580D01*
X82543653Y-65327927D01*
X82660759Y-65045903D01*
X82661239Y-64496507D01*
X82451437Y-63988749D01*
X82063295Y-63599928D01*
X81822676Y-63500015D01*
X82061251Y-63401437D01*
X82450072Y-63013295D01*
X82660759Y-62505903D01*
X82661239Y-61956507D01*
X82451437Y-61448749D01*
X82063295Y-61059928D01*
X82022219Y-61042872D01*
X82049638Y-60987140D01*
X81280000Y-60217502D01*
X80510362Y-60987140D01*
X80537603Y-61042509D01*
X80498749Y-61058563D01*
X80109928Y-61446705D01*
X79899241Y-61954097D01*
X79898761Y-62503493D01*
X78088875Y-62503493D01*
X79821184Y-60771184D01*
X79957968Y-60566473D01*
X79973046Y-60490669D01*
X79979543Y-60458006D01*
X79982860Y-60459638D01*
X80752498Y-59690000D01*
X81807502Y-59690000D01*
X82577140Y-60459638D01*
X82813708Y-60343251D01*
X82946949Y-59706600D01*
X82826413Y-59067422D01*
X82813708Y-59036749D01*
X82577140Y-58920362D01*
X81807502Y-59690000D01*
X80752498Y-59690000D01*
X80006000Y-58943502D01*
X80006000Y-58420000D01*
X79957968Y-58178527D01*
X79922168Y-58124948D01*
X79821185Y-57973816D01*
X79632369Y-57785000D01*
X79636369Y-57781000D01*
X80046480Y-57781000D01*
X80108563Y-57931251D01*
X80496705Y-58320072D01*
X80537781Y-58337128D01*
X80510362Y-58392860D01*
X81280000Y-59162498D01*
X82049638Y-58392860D01*
X82022397Y-58337491D01*
X82061251Y-58321437D01*
X82450072Y-57933295D01*
X82660759Y-57425903D01*
X82661239Y-56876507D01*
X82451437Y-56368749D01*
X82063295Y-55979928D01*
X81555903Y-55769241D01*
X81006507Y-55768761D01*
X80498749Y-55978563D01*
X80109928Y-56366705D01*
X80046690Y-56519000D01*
X79375000Y-56519000D01*
X79133527Y-56567032D01*
X78928816Y-56703815D01*
X78478632Y-57154000D01*
X77960320Y-57154000D01*
X77921612Y-57060320D01*
X77561575Y-56699655D01*
X77116364Y-56514787D01*
X77559680Y-56331612D01*
X77920345Y-55971575D01*
X78115777Y-55500924D01*
X78116222Y-54991311D01*
X77921612Y-54520320D01*
X77561575Y-54159655D01*
X77343000Y-54068894D01*
X77343000Y-52729302D01*
X77534417Y-52538219D01*
X77660357Y-52234923D01*
X77660643Y-51906518D01*
X77619736Y-51807513D01*
X86383674Y-51807513D01*
X86669436Y-52499109D01*
X87198108Y-53028704D01*
X87889204Y-53315673D01*
X88637513Y-53316326D01*
X89329109Y-53030564D01*
X89858704Y-52501892D01*
X90145673Y-51810796D01*
X90146326Y-51062487D01*
X89860564Y-50370891D01*
X89331892Y-49841296D01*
X88640796Y-49554327D01*
X87892487Y-49553674D01*
X87200891Y-49839436D01*
X86671296Y-50368108D01*
X86384327Y-51059204D01*
X86383674Y-51807513D01*
X77619736Y-51807513D01*
X77535233Y-51603002D01*
X77303219Y-51370583D01*
X76999923Y-51244643D01*
X76671518Y-51244357D01*
X76368002Y-51369767D01*
X76135583Y-51601781D01*
X76009643Y-51905077D01*
X76009357Y-52233482D01*
X76134767Y-52536998D01*
X76327000Y-52729567D01*
X76327000Y-54068857D01*
X76110320Y-54158388D01*
X75749655Y-54518425D01*
X75701650Y-54634034D01*
X75517555Y-54549947D01*
X74822502Y-55245000D01*
X75517555Y-55940053D01*
X75701442Y-55856061D01*
X75748388Y-55969680D01*
X76108425Y-56330345D01*
X76553636Y-56515213D01*
X76110320Y-56698388D01*
X75749655Y-57058425D01*
X75564787Y-57503636D01*
X75381612Y-57060320D01*
X75021575Y-56699655D01*
X74905966Y-56651650D01*
X74990053Y-56467555D01*
X74295000Y-55772502D01*
X73599947Y-56467555D01*
X73683939Y-56651442D01*
X73570320Y-56698388D01*
X73209655Y-57058425D01*
X73014223Y-57529076D01*
X73013778Y-58038689D01*
X73104157Y-58257423D01*
X72030790Y-59330790D01*
X71920669Y-59495597D01*
X71882000Y-59690000D01*
X71882000Y-60960000D01*
X71920669Y-61154403D01*
X72030790Y-61319210D01*
X73152000Y-62440420D01*
X73152000Y-68369580D01*
X72179580Y-69342000D01*
X64345421Y-69342000D01*
X62154953Y-67151532D01*
X67208587Y-67151532D01*
X67570309Y-68026966D01*
X68239511Y-68697337D01*
X69114312Y-69060586D01*
X70061532Y-69061413D01*
X70936966Y-68699691D01*
X71607337Y-68030489D01*
X71970586Y-67155688D01*
X71971413Y-66208468D01*
X71609691Y-65333034D01*
X70940489Y-64662663D01*
X70065688Y-64299414D01*
X69118468Y-64298587D01*
X68243034Y-64660309D01*
X67572663Y-65329511D01*
X67209414Y-66204312D01*
X67208587Y-67151532D01*
X62154953Y-67151532D01*
X61954210Y-66950790D01*
X61789403Y-66840669D01*
X61595000Y-66802000D01*
X59596143Y-66802000D01*
X59506612Y-66585320D01*
X59146575Y-66224655D01*
X58701364Y-66039787D01*
X59144680Y-65856612D01*
X59505345Y-65496575D01*
X59700777Y-65025924D01*
X59701222Y-64516311D01*
X59506612Y-64045320D01*
X59146575Y-63684655D01*
X58701364Y-63499787D01*
X59144680Y-63316612D01*
X59433312Y-63028482D01*
X60769357Y-63028482D01*
X60894767Y-63331998D01*
X61126781Y-63564417D01*
X61430077Y-63690357D01*
X61758482Y-63690643D01*
X62061998Y-63565233D01*
X62254567Y-63373000D01*
X67920698Y-63373000D01*
X68111781Y-63564417D01*
X68415077Y-63690357D01*
X68743482Y-63690643D01*
X69046998Y-63565233D01*
X69279417Y-63333219D01*
X69405357Y-63029923D01*
X69405643Y-62701518D01*
X69280233Y-62398002D01*
X69048219Y-62165583D01*
X68744923Y-62039643D01*
X68416518Y-62039357D01*
X68113002Y-62164767D01*
X67920433Y-62357000D01*
X62254302Y-62357000D01*
X62063219Y-62165583D01*
X61759923Y-62039643D01*
X61431518Y-62039357D01*
X61128002Y-62164767D01*
X60895583Y-62396781D01*
X60769643Y-62700077D01*
X60769357Y-63028482D01*
X59433312Y-63028482D01*
X59505345Y-62956575D01*
X59700777Y-62485924D01*
X59701222Y-61976311D01*
X59506612Y-61505320D01*
X59146575Y-61144655D01*
X59030966Y-61096650D01*
X59115053Y-60912555D01*
X58420000Y-60217502D01*
X57724947Y-60912555D01*
X57808939Y-61096442D01*
X57695320Y-61143388D01*
X57334655Y-61503425D01*
X57139223Y-61974076D01*
X57138778Y-62483689D01*
X57333388Y-62954680D01*
X57693425Y-63315345D01*
X58138636Y-63500213D01*
X57695320Y-63683388D01*
X57334655Y-64043425D01*
X57139223Y-64514076D01*
X57138778Y-65023689D01*
X57333388Y-65494680D01*
X57693425Y-65855345D01*
X58138636Y-66040213D01*
X57695320Y-66223388D01*
X57334655Y-66583425D01*
X57139223Y-67054076D01*
X57138778Y-67563689D01*
X57333388Y-68034680D01*
X57693425Y-68395345D01*
X58138636Y-68580213D01*
X57695320Y-68763388D01*
X57334655Y-69123425D01*
X57139223Y-69594076D01*
X57138778Y-70103689D01*
X57333388Y-70574680D01*
X57693425Y-70935345D01*
X58138636Y-71120213D01*
X57695320Y-71303388D01*
X57334655Y-71663425D01*
X57139223Y-72134076D01*
X57138778Y-72643689D01*
X57333388Y-73114680D01*
X57693425Y-73475345D01*
X58138636Y-73660213D01*
X57695320Y-73843388D01*
X57334655Y-74203425D01*
X57243894Y-74422000D01*
X54820421Y-74422000D01*
X52578000Y-72179580D01*
X52578000Y-62230000D01*
X52539331Y-62035597D01*
X52429210Y-61870790D01*
X50673000Y-60114580D01*
X50673000Y-59642555D01*
X52009947Y-59642555D01*
X52113345Y-59868929D01*
X52712863Y-59985052D01*
X53296655Y-59868929D01*
X53374790Y-59697863D01*
X56854948Y-59697863D01*
X56971071Y-60281655D01*
X57197445Y-60385053D01*
X57892498Y-59690000D01*
X58947502Y-59690000D01*
X59642555Y-60385053D01*
X59868929Y-60281655D01*
X59985052Y-59682137D01*
X59868929Y-59098345D01*
X59642555Y-58994947D01*
X58947502Y-59690000D01*
X57892498Y-59690000D01*
X57197445Y-58994947D01*
X56971071Y-59098345D01*
X56854948Y-59697863D01*
X53374790Y-59697863D01*
X53400053Y-59642555D01*
X52705000Y-58947502D01*
X52009947Y-59642555D01*
X50673000Y-59642555D01*
X50673000Y-59596143D01*
X50889680Y-59506612D01*
X51250345Y-59146575D01*
X51298350Y-59030966D01*
X51482445Y-59115053D01*
X52177498Y-58420000D01*
X53232502Y-58420000D01*
X53927555Y-59115053D01*
X54153929Y-59011655D01*
X54270052Y-58412137D01*
X54153929Y-57828345D01*
X53927555Y-57724947D01*
X53232502Y-58420000D01*
X52177498Y-58420000D01*
X51482445Y-57724947D01*
X51298558Y-57808939D01*
X51251612Y-57695320D01*
X50891575Y-57334655D01*
X50561138Y-57197445D01*
X52009947Y-57197445D01*
X52705000Y-57892498D01*
X53193809Y-57403689D01*
X57138778Y-57403689D01*
X57333388Y-57874680D01*
X57693425Y-58235345D01*
X57809034Y-58283350D01*
X57724947Y-58467445D01*
X58420000Y-59162498D01*
X59115053Y-58467445D01*
X59031061Y-58283558D01*
X59144680Y-58236612D01*
X59505345Y-57876575D01*
X59700777Y-57405924D01*
X59700842Y-57331250D01*
X62390000Y-57331250D01*
X62390000Y-57536309D01*
X62486673Y-57769698D01*
X62665301Y-57948327D01*
X62698975Y-57962275D01*
X62667141Y-58008866D01*
X62636536Y-58160000D01*
X62636536Y-59110000D01*
X62663103Y-59251190D01*
X62746546Y-59380865D01*
X62873866Y-59467859D01*
X63025000Y-59498464D01*
X63975000Y-59498464D01*
X64116190Y-59471897D01*
X64245865Y-59388454D01*
X64320663Y-59278983D01*
X66813804Y-59278983D01*
X66985625Y-59694823D01*
X67303503Y-60013256D01*
X67719043Y-60185804D01*
X68168983Y-60186196D01*
X68584823Y-60014375D01*
X68903256Y-59696497D01*
X69075804Y-59280957D01*
X69076196Y-58831017D01*
X68904375Y-58415177D01*
X68586497Y-58096744D01*
X68170957Y-57924196D01*
X67721017Y-57923804D01*
X67305177Y-58095625D01*
X66986744Y-58413503D01*
X66814196Y-58829043D01*
X66813804Y-59278983D01*
X64320663Y-59278983D01*
X64332859Y-59261134D01*
X64356781Y-59143000D01*
X65825000Y-59143000D01*
X66019403Y-59104331D01*
X66184210Y-58994210D01*
X67524956Y-57653464D01*
X68695000Y-57653464D01*
X68836190Y-57626897D01*
X68965865Y-57543454D01*
X69052859Y-57416134D01*
X69083464Y-57265000D01*
X69083464Y-55765000D01*
X69056897Y-55623810D01*
X68973454Y-55494135D01*
X68846134Y-55407141D01*
X68695000Y-55376536D01*
X67195000Y-55376536D01*
X67053810Y-55403103D01*
X66924135Y-55486546D01*
X66837141Y-55613866D01*
X66806536Y-55765000D01*
X66806536Y-56935044D01*
X65614580Y-58127000D01*
X64357255Y-58127000D01*
X64336897Y-58018810D01*
X64300625Y-57962441D01*
X64334699Y-57948327D01*
X64513327Y-57769698D01*
X64610000Y-57536309D01*
X64610000Y-57331250D01*
X64451250Y-57172500D01*
X63737500Y-57172500D01*
X63737500Y-57328000D01*
X63262500Y-57328000D01*
X63262500Y-57172500D01*
X62548750Y-57172500D01*
X62390000Y-57331250D01*
X59700842Y-57331250D01*
X59701222Y-56896311D01*
X59506612Y-56425320D01*
X59415143Y-56333691D01*
X62390000Y-56333691D01*
X62390000Y-56538750D01*
X62548750Y-56697500D01*
X63262500Y-56697500D01*
X63262500Y-55983750D01*
X63737500Y-55983750D01*
X63737500Y-56697500D01*
X64451250Y-56697500D01*
X64610000Y-56538750D01*
X64610000Y-56333691D01*
X64513327Y-56100302D01*
X64334699Y-55921673D01*
X64101310Y-55825000D01*
X63896250Y-55825000D01*
X63737500Y-55983750D01*
X63262500Y-55983750D01*
X63103750Y-55825000D01*
X62898690Y-55825000D01*
X62665301Y-55921673D01*
X62486673Y-56100302D01*
X62390000Y-56333691D01*
X59415143Y-56333691D01*
X59146575Y-56064655D01*
X58675924Y-55869223D01*
X58166311Y-55868778D01*
X57695320Y-56063388D01*
X57334655Y-56423425D01*
X57139223Y-56894076D01*
X57138778Y-57403689D01*
X53193809Y-57403689D01*
X53400053Y-57197445D01*
X53296655Y-56971071D01*
X52697137Y-56854948D01*
X52113345Y-56971071D01*
X52009947Y-57197445D01*
X50561138Y-57197445D01*
X50420924Y-57139223D01*
X49911311Y-57138778D01*
X49440320Y-57333388D01*
X49079655Y-57693425D01*
X48884223Y-58164076D01*
X48883778Y-58673689D01*
X47421000Y-58673689D01*
X47421000Y-55252863D01*
X72729948Y-55252863D01*
X72846071Y-55836655D01*
X73072445Y-55940053D01*
X73767498Y-55245000D01*
X73072445Y-54549947D01*
X72846071Y-54653345D01*
X72729948Y-55252863D01*
X47421000Y-55252863D01*
X47421000Y-51807513D01*
X48283674Y-51807513D01*
X48569436Y-52499109D01*
X49098108Y-53028704D01*
X49789204Y-53315673D01*
X50537513Y-53316326D01*
X50537696Y-53316250D01*
X62390000Y-53316250D01*
X62390000Y-53521309D01*
X62486673Y-53754698D01*
X62665301Y-53933327D01*
X62898690Y-54030000D01*
X63103750Y-54030000D01*
X63262500Y-53871250D01*
X63262500Y-53157500D01*
X63737500Y-53157500D01*
X63737500Y-53871250D01*
X63896250Y-54030000D01*
X64101310Y-54030000D01*
X64334699Y-53933327D01*
X64513327Y-53754698D01*
X64610000Y-53521309D01*
X64610000Y-53316250D01*
X64451250Y-53157500D01*
X63737500Y-53157500D01*
X63262500Y-53157500D01*
X62548750Y-53157500D01*
X62390000Y-53316250D01*
X50537696Y-53316250D01*
X51229109Y-53030564D01*
X51758704Y-52501892D01*
X51834775Y-52318691D01*
X62390000Y-52318691D01*
X62390000Y-52523750D01*
X62548750Y-52682500D01*
X63262500Y-52682500D01*
X63262500Y-52527000D01*
X63737500Y-52527000D01*
X63737500Y-52682500D01*
X64451250Y-52682500D01*
X64610000Y-52523750D01*
X64610000Y-52318691D01*
X64513327Y-52085302D01*
X64334699Y-51906673D01*
X64301025Y-51892725D01*
X64332859Y-51846134D01*
X64356781Y-51728000D01*
X65614580Y-51728000D01*
X66806536Y-52919956D01*
X66806536Y-54090000D01*
X66833103Y-54231190D01*
X66916546Y-54360865D01*
X67043866Y-54447859D01*
X67195000Y-54478464D01*
X68695000Y-54478464D01*
X68836190Y-54451897D01*
X68965865Y-54368454D01*
X69052859Y-54241134D01*
X69083464Y-54090000D01*
X69083464Y-54022445D01*
X73599947Y-54022445D01*
X74295000Y-54717498D01*
X74990053Y-54022445D01*
X74886655Y-53796071D01*
X74287137Y-53679948D01*
X73703345Y-53796071D01*
X73599947Y-54022445D01*
X69083464Y-54022445D01*
X69083464Y-52590000D01*
X69056897Y-52448810D01*
X68973454Y-52319135D01*
X68846134Y-52232141D01*
X68695000Y-52201536D01*
X67524956Y-52201536D01*
X66347403Y-51023983D01*
X66813804Y-51023983D01*
X66985625Y-51439823D01*
X67303503Y-51758256D01*
X67719043Y-51930804D01*
X68168983Y-51931196D01*
X68584823Y-51759375D01*
X68903256Y-51441497D01*
X69075804Y-51025957D01*
X69076196Y-50576017D01*
X68904375Y-50160177D01*
X68586497Y-49841744D01*
X68170957Y-49669196D01*
X67721017Y-49668804D01*
X67305177Y-49840625D01*
X66986744Y-50158503D01*
X66814196Y-50574043D01*
X66813804Y-51023983D01*
X66347403Y-51023983D01*
X66184210Y-50860790D01*
X66019403Y-50750669D01*
X65825000Y-50712000D01*
X64357255Y-50712000D01*
X64336897Y-50603810D01*
X64253454Y-50474135D01*
X64126134Y-50387141D01*
X63975000Y-50356536D01*
X63025000Y-50356536D01*
X62883810Y-50383103D01*
X62754135Y-50466546D01*
X62667141Y-50593866D01*
X62636536Y-50745000D01*
X62636536Y-51695000D01*
X62663103Y-51836190D01*
X62699375Y-51892559D01*
X62665301Y-51906673D01*
X62486673Y-52085302D01*
X62390000Y-52318691D01*
X51834775Y-52318691D01*
X52045673Y-51810796D01*
X52046326Y-51062487D01*
X51760564Y-50370891D01*
X51231892Y-49841296D01*
X50540796Y-49554327D01*
X49792487Y-49553674D01*
X49100891Y-49839436D01*
X48571296Y-50368108D01*
X48284327Y-51059204D01*
X48283674Y-51807513D01*
X47421000Y-51807513D01*
X47421000Y-50842448D01*
X47589339Y-49996152D01*
X48044683Y-49314683D01*
X48726152Y-48859339D01*
X49572448Y-48691000D01*
X88857552Y-48691000D01*
X89703848Y-48859339D01*
M02*
